# Noesis .obj export.
#
mtllib door3.mtl
g
v  192.999481 30.000698 15.006895
v  193.000488 0.000000 -14.992738
v  193.000549 30.000698 -14.993010
v  193.000488 0.000000 -14.992738
v  192.999481 30.000698 15.006895
v  192.999405 0.000000 15.007147
v  -0.000420 30.000698 14.999720
v  0.000577 0.000000 -14.999908
v  -0.000646 0.000000 15.000084
v  0.000577 0.000000 -14.999908
v  -0.000420 30.000698 14.999720
v  0.000577 30.000698 -14.999908
v  192.999481 300.000610 15.006895
v  193.000488 270.000000 -14.992738
v  193.000656 300.000610 -14.992842
v  193.000488 270.000000 -14.992738
v  192.999481 300.000610 15.006895
v  192.999405 270.000000 15.007147
v  -0.000319 300.000610 14.999887
v  0.000577 270.000000 -14.999908
v  -0.000646 270.000000 15.000084
v  0.000577 270.000000 -14.999908
v  -0.000319 300.000610 14.999887
v  0.000577 300.000610 -14.999908
v  193.773712 165.000702 15.006900
v  193.774719 134.999985 -14.992735
v  193.774780 165.000702 -14.993006
v  193.774719 134.999985 -14.992735
v  193.773712 165.000702 15.006900
v  193.773651 134.999985 15.007152
v  -0.774651 165.000702 14.999720
v  -0.773655 134.999985 -14.999908
v  -0.774878 134.999985 15.000086
v  -0.773655 134.999985 -14.999908
v  -0.774651 165.000702 14.999720
v  -0.773655 165.000702 -14.999908
v  -0.000815 270.000610 -9.999781
v  -0.001804 30.000103 10.000170
v  -0.001705 270.000610 10.000335
v  -0.001804 30.000103 10.000170
v  -0.000815 270.000610 -9.999781
v  -0.000815 30.000103 -9.999781
v  192.998276 270.000610 10.007232
v  192.998917 30.000103 -9.992522
v  192.999084 270.000610 -9.992621
v  192.998917 30.000103 -9.992522
v  192.998276 270.000610 10.007232
v  192.998276 30.000103 10.007232

vt  0.632784 -0.009725 0.000000
vt  0.314453 -0.617288 0.000000
vt  0.314453 -0.009028 0.000000
vt  0.314453 -0.617288 0.000000
vt  0.632784 -0.009725 0.000000
vt  0.632784 -0.617288 0.000000
vt  0.314453 -0.009028 0.000000
vt  0.001953 -0.617288 0.000000
vt  0.314453 -0.617288 0.000000
vt  0.001953 -0.617288 0.000000
vt  0.314453 -0.009028 0.000000
vt  0.001953 -0.009028 0.000000
vt  0.632784 -0.009725 0.000000
vt  0.314453 -0.617288 0.000000
vt  0.314453 -0.009028 0.000000
vt  0.314453 -0.617288 0.000000
vt  0.632784 -0.009725 0.000000
vt  0.632784 -0.617288 0.000000
vt  0.314453 -0.009028 0.000000
vt  0.001953 -0.617288 0.000000
vt  0.314453 -0.617288 0.000000
vt  0.001953 -0.617288 0.000000
vt  0.314453 -0.009028 0.000000
vt  0.001953 -0.009028 0.000000
vt  0.632784 -0.009725 0.000000
vt  0.314453 -0.617288 0.000000
vt  0.314453 -0.009028 0.000000
vt  0.314453 -0.617288 0.000000
vt  0.632784 -0.009725 0.000000
vt  0.632784 -0.617288 0.000000
vt  0.939453 -0.009028 0.000000
vt  0.632784 -0.617288 0.000000
vt  0.939453 -0.617288 0.000000
vt  0.632784 -0.617288 0.000000
vt  0.939453 -0.009028 0.000000
vt  0.632784 -0.009725 0.000000
vt  0.000000 -0.617288 0.000000
vt  0.732422 -0.917969 0.000000
vt  0.000000 -0.917969 0.000000
vt  0.732422 -0.917969 0.000000
vt  0.000000 -0.617288 0.000000
vt  0.732422 -0.617288 0.000000
vt  0.000000 -0.617288 0.000000
vt  0.732422 -0.917969 0.000000
vt  0.000000 -0.917969 0.000000
vt  0.732422 -0.917969 0.000000
vt  0.000000 -0.617288 0.000000
vt  0.732422 -0.617288 0.000000

vn  1.000000 -0.000002 0.000036
vn  1.000000 -0.000002 0.000036
vn  1.000000 -0.000002 0.000036
vn  1.000000 -0.000002 0.000036
vn  1.000000 -0.000002 0.000036
vn  1.000000 -0.000002 0.000036
vn  -1.000000 0.000008 -0.000041
vn  -1.000000 0.000008 -0.000041
vn  -1.000000 0.000008 -0.000041
vn  -1.000000 0.000008 -0.000041
vn  -1.000000 0.000008 -0.000041
vn  -1.000000 0.000008 -0.000041
vn  1.000000 -0.000006 0.000036
vn  1.000000 -0.000006 0.000036
vn  1.000000 -0.000006 0.000036
vn  1.000000 -0.000006 0.000036
vn  1.000000 -0.000006 0.000036
vn  1.000000 -0.000006 0.000036
vn  -1.000000 0.000011 -0.000041
vn  -1.000000 0.000011 -0.000041
vn  -1.000000 0.000011 -0.000041
vn  -1.000000 0.000011 -0.000041
vn  -1.000000 0.000011 -0.000041
vn  -1.000000 0.000011 -0.000041
vn  1.000000 -0.000002 0.000036
vn  1.000000 -0.000002 0.000036
vn  1.000000 -0.000002 0.000036
vn  1.000000 -0.000002 0.000036
vn  1.000000 -0.000002 0.000036
vn  1.000000 -0.000002 0.000036
vn  -1.000000 0.000008 -0.000041
vn  -1.000000 0.000008 -0.000041
vn  -1.000000 0.000008 -0.000041
vn  -1.000000 0.000008 -0.000041
vn  -1.000000 0.000008 -0.000041
vn  -1.000000 0.000008 -0.000041
vn  -1.000000 0.000000 -0.000049
vn  -1.000000 0.000000 -0.000049
vn  -1.000000 0.000000 -0.000049
vn  -1.000000 0.000000 -0.000049
vn  -1.000000 0.000000 -0.000049
vn  -1.000000 0.000000 -0.000049
vn  1.000000 -0.000001 0.000032
vn  1.000000 -0.000001 0.000032
vn  1.000000 -0.000001 0.000032
vn  1.000000 -0.000001 0.000032
vn  1.000000 -0.000001 0.000032
vn  1.000000 -0.000001 0.000032

g rdmobj00
usemtl material000
f  1/1/1 2/2/2 3/3/3
f  4/4/4 5/5/5 6/6/6
f  7/7/7 8/8/8 9/9/9
f  10/10/10 11/11/11 12/12/12
f  13/13/13 14/14/14 15/15/15
f  16/16/16 17/17/17 18/18/18
f  19/19/19 20/20/20 21/21/21
f  22/22/22 23/23/23 24/24/24
f  25/25/25 26/26/26 27/27/27
f  28/28/28 29/29/29 30/30/30
f  31/31/31 32/32/32 33/33/33
f  34/34/34 35/35/35 36/36/36
f  37/37/37 38/38/38 39/39/39
f  40/40/40 41/41/41 42/42/42
f  43/43/43 44/44/44 45/45/45
f  46/46/46 47/47/47 48/48/48

g
v  -0.001705 270.000610 10.000335
v  192.998276 30.000103 10.007232
v  192.998276 270.000610 10.007232
v  192.998276 30.000103 10.007232
v  -0.001705 270.000610 10.000335
v  -0.001804 30.000103 10.000170
v  -0.000815 270.000610 -9.999781
v  192.998276 270.000610 10.007232
v  192.999084 270.000610 -9.992621
v  192.998276 270.000610 10.007232
v  -0.000815 270.000610 -9.999781
v  -0.001705 270.000610 10.000335
v  -0.000815 270.000610 -9.999781
v  192.998917 30.000103 -9.992522
v  -0.000815 30.000103 -9.999781
v  192.998917 30.000103 -9.992522
v  -0.000815 270.000610 -9.999781
v  192.999084 270.000610 -9.992621
v  -0.001804 30.000103 10.000170
v  192.998917 30.000103 -9.992522
v  192.998276 30.000103 10.007232
v  192.998917 30.000103 -9.992522
v  -0.001804 30.000103 10.000170
v  -0.000815 30.000103 -9.999781

vt  0.998047 -0.001953 0.000000
vt  0.001953 -0.998047 0.000000
vt  0.001953 -0.001953 0.000000
vt  0.001953 -0.998047 0.000000
vt  0.998047 -0.001953 0.000000
vt  0.998047 -0.998047 0.000000
vt  1.000000 -0.000000 0.000000
vt  0.001953 -0.029297 0.000000
vt  0.000000 -0.000000 0.000000
vt  0.001953 -0.029297 0.000000
vt  1.000000 -0.000000 0.000000
vt  0.998047 -0.029297 0.000000
vt  0.998047 -0.001953 0.000000
vt  0.001953 -0.998047 0.000000
vt  0.998047 -0.998047 0.000000
vt  0.001953 -0.998047 0.000000
vt  0.998047 -0.001953 0.000000
vt  0.001953 -0.001953 0.000000
vt  1.000000 -1.000000 0.000000
vt  0.001953 -0.966797 0.000000
vt  0.000000 -1.000000 0.000000
vt  0.001953 -0.966797 0.000000
vt  1.000000 -1.000000 0.000000
vt  0.998047 -0.966797 0.000000

vn  -0.000026 0.707107 0.707107
vn  -0.000026 -0.707107 0.707107
vn  -0.000026 0.707107 0.707107
vn  -0.000026 -0.707107 0.707107
vn  -0.000026 0.707107 0.707107
vn  -0.000026 -0.707107 0.707107
vn  0.000027 0.707107 -0.707107
vn  -0.000026 0.707107 0.707107
vn  0.000027 0.707107 -0.707107
vn  -0.000026 0.707107 0.707107
vn  0.000027 0.707107 -0.707107
vn  -0.000026 0.707107 0.707107
vn  0.000027 0.707107 -0.707107
vn  0.000027 -0.707107 -0.707107
vn  0.000027 -0.707107 -0.707107
vn  0.000027 -0.707107 -0.707107
vn  0.000027 0.707107 -0.707107
vn  0.000027 0.707107 -0.707107
vn  -0.000026 -0.707107 0.707107
vn  0.000027 -0.707107 -0.707107
vn  -0.000026 -0.707107 0.707107
vn  0.000027 -0.707107 -0.707107
vn  -0.000026 -0.707107 0.707107
vn  0.000027 -0.707107 -0.707107

g rdmobj01
usemtl material001
f  49/49/49 50/50/50 51/51/51
f  52/52/52 53/53/53 54/54/54
f  55/55/55 56/56/56 57/57/57
f  58/58/58 59/59/59 60/60/60
f  61/61/61 62/62/62 63/63/63
f  64/64/64 65/65/65 66/66/66
f  67/67/67 68/68/68 69/69/69
f  70/70/70 71/71/71 72/72/72

g
v  -0.773655 165.000702 -14.999908
v  -0.774551 165.000702 14.999887
v  193.773712 165.000702 15.006900
v  193.773651 134.999985 15.007152
v  -0.000319 300.000610 14.999887
v  193.000656 300.000610 -14.992842
v  0.000675 300.000610 -14.999743
v  193.000656 300.000610 -14.992842
v  -0.000319 300.000610 14.999887
v  192.999588 300.000610 15.007052
v  0.000675 300.000610 -14.999743
v  193.000595 270.000000 -14.992575
v  0.000675 270.000000 -14.999743
v  193.000595 270.000000 -14.992575
v  0.000675 300.000610 -14.999743
v  193.000656 300.000610 -14.992842
v  192.999405 270.000000 15.007147
v  0.000675 270.000000 -14.999743
v  193.000595 270.000000 -14.992575
v  0.000675 270.000000 -14.999743
v  192.999405 270.000000 15.007147
v  -0.000546 270.000000 15.000248
v  -0.000319 300.000610 14.999887
v  192.999405 270.000000 15.007147
v  192.999588 300.000610 15.007052
v  192.999405 270.000000 15.007147
v  -0.000319 300.000610 14.999887
v  -0.000546 270.000000 15.000248
v  -0.773655 165.000702 -14.999908
v  193.773712 165.000702 15.006900
v  193.774872 165.000702 -14.992839
v  -0.773655 165.000702 -14.999908
v  193.774719 134.999985 -14.992735
v  -0.773655 134.999985 -14.999908
v  193.774719 134.999985 -14.992735
v  -0.773655 165.000702 -14.999908
v  193.774872 165.000702 -14.992839
v  193.774719 134.999985 -14.992735
v  -0.774878 134.999985 15.000086
v  -0.773655 134.999985 -14.999908
v  -0.774878 134.999985 15.000086
v  193.774719 134.999985 -14.992735
v  193.773651 134.999985 15.007152
v  193.773651 134.999985 15.007152
v  -0.774551 165.000702 14.999887
v  -0.774878 134.999985 15.000086
v  0.000577 30.000698 -14.999908
v  192.999481 30.000698 15.006895
v  193.000656 30.000698 -14.992842
v  192.999481 30.000698 15.006895
v  0.000577 30.000698 -14.999908
v  -0.000319 30.000698 14.999887
v  0.000577 30.000698 -14.999908
v  193.000488 0.000000 -14.992738
v  0.000577 0.000000 -14.999908
v  193.000488 0.000000 -14.992738
v  0.000577 30.000698 -14.999908
v  193.000656 30.000698 -14.992842
v  193.000488 0.000000 -14.992738
v  -0.000646 0.000000 15.000084
v  0.000577 0.000000 -14.999908
v  -0.000646 0.000000 15.000084
v  193.000488 0.000000 -14.992738
v  192.999405 0.000000 15.007147
v  -0.000319 30.000698 14.999887
v  192.999405 0.000000 15.007147
v  192.999481 30.000698 15.006895
v  192.999405 0.000000 15.007147
v  -0.000319 30.000698 14.999887
v  -0.000646 0.000000 15.000084

vt  0.994406 -0.509267 0.000000
vt  0.994406 -0.748047 0.000000
vt  0.001953 -0.748047 0.000000
vt  0.001953 -0.986889 0.000000
vt  0.994406 -0.748047 0.000000
vt  0.001953 -0.509267 0.000000
vt  0.994406 -0.509267 0.000000
vt  0.001953 -0.509267 0.000000
vt  0.994406 -0.748047 0.000000
vt  0.001953 -0.748047 0.000000
vt  -0.002579 -0.003306 0.000000
vt  0.989874 -0.242148 0.000000
vt  -0.002579 -0.242148 0.000000
vt  0.989874 -0.242148 0.000000
vt  -0.002579 -0.003306 0.000000
vt  0.989874 -0.003306 0.000000
vt  0.994406 -0.264783 0.000000
vt  0.001953 -0.487726 0.000000
vt  0.994406 -0.487726 0.000000
vt  0.001953 -0.487726 0.000000
vt  0.994406 -0.264783 0.000000
vt  0.001953 -0.264783 0.000000
vt  0.994406 -0.003306 0.000000
vt  0.001953 -0.242148 0.000000
vt  0.001953 -0.003306 0.000000
vt  0.001953 -0.242148 0.000000
vt  0.994406 -0.003306 0.000000
vt  0.994406 -0.242148 0.000000
vt  0.994406 -0.509267 0.000000
vt  0.001953 -0.748047 0.000000
vt  0.001953 -0.509267 0.000000
vt  0.001953 -0.748047 0.000000
vt  0.994406 -0.986889 0.000000
vt  0.001953 -0.986889 0.000000
vt  0.994406 -0.986889 0.000000
vt  0.001953 -0.748047 0.000000
vt  0.994406 -0.748047 0.000000
vt  0.994406 -0.487726 0.000000
vt  0.001953 -0.264783 0.000000
vt  0.001953 -0.487726 0.000000
vt  0.001953 -0.264783 0.000000
vt  0.994406 -0.487726 0.000000
vt  0.994406 -0.264783 0.000000
vt  0.001953 -0.986889 0.000000
vt  0.994406 -0.748047 0.000000
vt  0.994406 -0.986889 0.000000
vt  0.994406 -0.509267 0.000000
vt  0.001953 -0.748047 0.000000
vt  0.001953 -0.509267 0.000000
vt  0.001953 -0.748047 0.000000
vt  0.994406 -0.509267 0.000000
vt  0.994406 -0.748047 0.000000
vt  0.994406 -0.748047 0.000000
vt  0.001953 -0.986889 0.000000
vt  0.994406 -0.986889 0.000000
vt  0.001953 -0.986889 0.000000
vt  0.994406 -0.748047 0.000000
vt  0.001953 -0.748047 0.000000
vt  0.994406 -0.487726 0.000000
vt  0.001953 -0.264783 0.000000
vt  0.001953 -0.487726 0.000000
vt  0.001953 -0.264783 0.000000
vt  0.994406 -0.487726 0.000000
vt  0.994406 -0.264783 0.000000
vt  0.001953 -0.748047 0.000000
vt  0.994406 -0.986889 0.000000
vt  0.994406 -0.748047 0.000000
vt  0.994406 -0.986889 0.000000
vt  0.001953 -0.748047 0.000000
vt  0.001953 -0.986889 0.000000

vn  0.000026 0.707107 -0.707107
vn  -0.000026 0.707110 0.707104
vn  -0.000026 0.707110 0.707104
vn  -0.000026 -0.707104 0.707110
vn  -0.000025 0.707108 0.707106
vn  0.000026 0.707107 -0.707107
vn  0.000026 0.707107 -0.707107
vn  0.000026 0.707107 -0.707107
vn  -0.000025 0.707108 0.707106
vn  -0.000025 0.707108 0.707106
vn  0.000026 0.707107 -0.707107
vn  0.000026 -0.707107 -0.707107
vn  0.000026 -0.707107 -0.707107
vn  0.000026 -0.707107 -0.707107
vn  0.000026 0.707107 -0.707107
vn  0.000026 0.707107 -0.707107
vn  -0.000025 -0.707106 0.707108
vn  0.000026 -0.707107 -0.707107
vn  0.000026 -0.707107 -0.707107
vn  0.000026 -0.707107 -0.707107
vn  -0.000025 -0.707106 0.707108
vn  -0.000025 -0.707106 0.707108
vn  -0.000025 0.707108 0.707106
vn  -0.000025 -0.707106 0.707108
vn  -0.000025 0.707108 0.707106
vn  -0.000025 -0.707106 0.707108
vn  -0.000025 0.707108 0.707106
vn  -0.000025 -0.707106 0.707108
vn  0.000026 0.707107 -0.707107
vn  -0.000026 0.707110 0.707104
vn  0.000026 0.707107 -0.707107
vn  0.000026 0.707107 -0.707107
vn  0.000026 -0.707107 -0.707107
vn  0.000026 -0.707107 -0.707107
vn  0.000026 -0.707107 -0.707107
vn  0.000026 0.707107 -0.707107
vn  0.000026 0.707107 -0.707107
vn  0.000026 -0.707107 -0.707107
vn  -0.000026 -0.707104 0.707110
vn  0.000026 -0.707107 -0.707107
vn  -0.000026 -0.707104 0.707110
vn  0.000026 -0.707107 -0.707107
vn  -0.000026 -0.707104 0.707110
vn  -0.000026 -0.707104 0.707110
vn  -0.000026 0.707110 0.707104
vn  -0.000026 -0.707104 0.707110
vn  0.000026 0.707107 -0.707107
vn  -0.000026 0.707110 0.707104
vn  0.000026 0.707107 -0.707107
vn  -0.000026 0.707110 0.707104
vn  0.000026 0.707107 -0.707107
vn  -0.000026 0.707110 0.707104
vn  0.000026 0.707107 -0.707107
vn  0.000026 -0.707107 -0.707107
vn  0.000026 -0.707107 -0.707107
vn  0.000026 -0.707107 -0.707107
vn  0.000026 0.707107 -0.707107
vn  0.000026 0.707107 -0.707107
vn  0.000026 -0.707107 -0.707107
vn  -0.000026 -0.707104 0.707110
vn  0.000026 -0.707107 -0.707107
vn  -0.000026 -0.707104 0.707110
vn  0.000026 -0.707107 -0.707107
vn  -0.000026 -0.707104 0.707110
vn  -0.000026 0.707110 0.707104
vn  -0.000026 -0.707104 0.707110
vn  -0.000026 0.707110 0.707104
vn  -0.000026 -0.707104 0.707110
vn  -0.000026 0.707110 0.707104
vn  -0.000026 -0.707104 0.707110

g rdmobj02
usemtl material002
f  73/73/73 74/74/74 75/75/75
f  76/76/76 75/75/75 74/74/74
f  77/77/77 78/78/78 79/79/79
f  80/80/80 81/81/81 82/82/82
f  83/83/83 84/84/84 85/85/85
f  86/86/86 87/87/87 88/88/88
f  89/89/89 90/90/90 91/91/91
f  92/92/92 93/93/93 94/94/94
f  95/95/95 96/96/96 97/97/97
f  98/98/98 99/99/99 100/100/100
f  101/101/101 102/102/102 103/103/103
f  104/104/104 105/105/105 106/106/106
f  107/107/107 108/108/108 109/109/109
f  110/110/110 111/111/111 112/112/112
f  113/113/113 114/114/114 115/115/115
f  116/116/116 117/117/117 118/118/118
f  119/119/119 120/120/120 121/121/121
f  122/122/122 123/123/123 124/124/124
f  125/125/125 126/126/126 127/127/127
f  128/128/128 129/129/129 130/130/130
f  131/131/131 132/132/132 133/133/133
f  134/134/134 135/135/135 136/136/136
f  137/137/137 138/138/138 139/139/139
f  140/140/140 141/141/141 142/142/142

g
