# Noesis .obj export.
#
mtllib coconut.mtl
g
v  -2.286870 28.764601 16.606800
v  -1.917460 37.907001 10.796100
v  -12.747000 28.262800 12.018500
v  -7.844650 38.262402 8.295500
v  -15.832400 28.197800 2.708640
v  -9.980090 38.245201 2.201700
v  -12.381300 28.686701 -8.751330
v  -7.491500 38.228100 -3.464450
v  -2.355460 29.352100 -12.671700
v  -1.756660 37.894001 -5.360190
v  7.113950 2.229480 5.311370
v  7.113950 2.229480 5.311370
v  3.776480 0.648313 2.390190
v  -6.702180 4.617510 9.935000
v  2.089640 -0.153984 -2.133140
v  -10.144200 3.206430 -0.020685
v  3.604680 0.735649 -7.797250
v  -6.866310 4.567420 -9.354220
v  6.710950 2.648870 -10.019400
v  1.764580 8.145480 -13.621000
v  -12.381300 28.686701 -8.751330
v  -12.381300 28.686701 -8.751330
v  -15.832400 28.197800 2.708640
v  -12.879700 15.258200 -10.636200
v  -16.294500 14.339600 0.932689
v  -10.144200 3.206430 -0.020685
v  -12.879700 15.258200 12.501400
v  -6.702180 4.617510 9.935000
v  -1.588500 17.942900 16.807501
v  1.846600 8.170510 13.354500
v  3.776480 0.648313 2.390190
v  3.776480 0.648313 2.390190
v  9.942060 -0.125950 -2.921160
v  2.089640 -0.153984 -2.133140
v  9.803500 -0.081020 -6.487050
v  3.604680 0.735649 -7.797250
v  6.710950 2.648870 -10.019400
v  -15.832400 28.197800 2.708640
v  -15.832400 28.197800 2.708640
v  -12.747000 28.262800 12.018500
v  -12.879700 15.258200 12.501400
v  -2.286870 28.764601 16.606800
v  -1.588500 17.942900 16.807501
v  -1.756660 37.894001 -5.360190
v  -7.491500 38.228100 -3.464450
v  -0.978389 42.713001 0.443760
v  -9.980090 38.245201 2.201700
v  -1.283890 43.027100 3.513560
v  -12.879700 15.258200 -10.636200
v  -12.381300 28.686701 -8.751330
v  -1.588500 17.942900 -15.205800
v  -2.355460 29.352100 -12.671700
v  -1.588500 17.942900 -15.205800
v  1.764580 8.145480 -13.621000
v  -12.879700 15.258200 -10.636200
v  -6.866310 4.567420 -9.354220
v  -1.917460 37.907001 10.796100
v  -1.283890 43.027100 3.513560
v  -7.844650 38.262402 8.295500
v  -9.980090 38.245201 2.201700
v  7.113950 2.229480 5.311370
v  3.776480 0.648313 2.390190
v  9.942060 -0.125950 -2.921160
v  -15.832400 28.197800 2.708640
v  -16.294500 14.339600 0.932689
v  -12.879700 15.258200 12.501400
v  -12.879700 15.258200 -10.636200
v  -6.866310 4.567420 -9.354220
v  -10.144200 3.206430 -0.020685
v  7.113950 2.229480 5.311370
v  1.846600 8.170510 13.354500
v  -6.702180 4.617510 9.935000

vt  0.197474 -0.306169 0.000000
vt  0.297230 -0.125227 0.000000
vt  0.368199 -0.315429 0.000000
vt  0.397355 -0.154361 0.000000
vt  0.498330 -0.316807 0.000000
vt  0.500219 -0.153944 0.000000
vt  0.661129 -0.310908 0.000000
vt  0.598718 -0.143906 0.000000
vt  0.789849 -0.214516 0.000000
vt  0.638753 -0.070350 0.000000
vt  0.333289 -0.842379 0.000000
vt  0.333289 -0.842379 0.000000
vt  0.417336 -0.827392 0.000000
vt  0.370562 -0.676600 0.000000
vt  0.497031 -0.828282 0.000000
vt  0.513820 -0.685618 0.000000
vt  0.589565 -0.854018 0.000000
vt  0.644070 -0.721844 0.000000
vt  0.643746 -0.892854 0.000000
vt  0.784954 -0.756274 0.000000
vt  0.661129 -0.310908 0.000000
vt  0.661129 -0.310908 0.000000
vt  0.498330 -0.316807 0.000000
vt  0.674515 -0.522035 0.000000
vt  0.515769 -0.511504 0.000000
vt  0.513820 -0.685618 0.000000
vt  0.363209 -0.498615 0.000000
vt  0.370562 -0.676600 0.000000
vt  0.185440 -0.537098 0.000000
vt  0.241071 -0.723940 0.000000
vt  0.417336 -0.827392 0.000000
vt  0.417336 -0.827392 0.000000
vt  0.463966 -0.971155 0.000000
vt  0.497031 -0.828282 0.000000
vt  0.543352 -0.976123 0.000000
vt  0.589565 -0.854018 0.000000
vt  0.643746 -0.892854 0.000000
vt  0.498330 -0.316807 0.000000
vt  0.498330 -0.316807 0.000000
vt  0.368199 -0.315429 0.000000
vt  0.363209 -0.498615 0.000000
vt  0.197474 -0.306169 0.000000
vt  0.185440 -0.537098 0.000000
vt  0.638753 -0.070350 0.000000
vt  0.598718 -0.143906 0.000000
vt  0.528855 -0.013785 0.000000
vt  0.500219 -0.153944 0.000000
vt  0.430664 -0.021595 0.000000
vt  0.674515 -0.522035 0.000000
vt  0.661129 -0.310908 0.000000
vt  0.852975 -0.475438 0.000000
vt  0.789849 -0.214516 0.000000
vt  0.852975 -0.475438 0.000000
vt  0.784954 -0.756274 0.000000
vt  0.674515 -0.522035 0.000000
vt  0.644070 -0.721844 0.000000
vt  0.297230 -0.125227 0.000000
vt  0.430664 -0.021595 0.000000
vt  0.397355 -0.154361 0.000000
vt  0.500219 -0.153944 0.000000
vt  0.333289 -0.842379 0.000000
vt  0.417336 -0.827392 0.000000
vt  0.463966 -0.971155 0.000000
vt  0.498330 -0.316807 0.000000
vt  0.515769 -0.511504 0.000000
vt  0.363209 -0.498615 0.000000
vt  0.674515 -0.522035 0.000000
vt  0.644070 -0.721844 0.000000
vt  0.513820 -0.685618 0.000000
vt  0.333289 -0.842379 0.000000
vt  0.241071 -0.723940 0.000000
vt  0.370562 -0.676600 0.000000

vn  0.031007 0.267633 0.963022
vn  -0.089137 0.653488 0.751670
vn  -0.636952 0.342174 0.690803
vn  -0.574319 0.678786 0.457611
vn  -0.966541 0.250620 0.054669
vn  -0.678827 0.729940 -0.079880
vn  -0.677051 0.375737 -0.632791
vn  -0.404846 0.724380 -0.558008
vn  0.002486 0.457195 -0.889363
vn  0.088428 0.694792 -0.713754
vn  0.337991 -0.768450 0.543366
vn  0.337991 -0.768450 0.543366
vn  -0.000688 -0.952511 0.304502
vn  -0.248394 -0.771145 0.586205
vn  -0.132550 -0.990567 0.034746
vn  -0.649890 -0.758858 -0.042161
vn  -0.164389 -0.891808 -0.421491
vn  -0.368377 -0.653883 -0.660859
vn  0.191591 -0.509494 -0.838873
vn  0.008233 -0.299636 -0.954018
vn  -0.677051 0.375737 -0.632791
vn  -0.677051 0.375737 -0.632791
vn  -0.966541 0.250620 0.054669
vn  -0.746240 -0.194078 -0.636758
vn  -0.972345 -0.233546 0.000821
vn  -0.649890 -0.758858 -0.042161
vn  -0.734065 -0.215624 0.643937
vn  -0.248394 -0.771145 0.586205
vn  0.042837 -0.193519 0.980161
vn  0.179859 -0.513505 0.839025
vn  -0.000688 -0.952511 0.304502
vn  -0.000688 -0.952511 0.304502
vn  0.365495 -0.904026 0.221699
vn  -0.132550 -0.990567 0.034746
vn  0.319319 -0.848689 -0.421619
vn  -0.164389 -0.891808 -0.421491
vn  0.191591 -0.509494 -0.838873
vn  -0.966541 0.250620 0.054669
vn  -0.966541 0.250620 0.054669
vn  -0.636952 0.342174 0.690803
vn  -0.734065 -0.215624 0.643937
vn  0.031007 0.267633 0.963022
vn  0.042837 -0.193519 0.980161
vn  0.088428 0.694792 -0.713754
vn  -0.404846 0.724380 -0.558008
vn  -0.056492 0.913300 -0.403352
vn  -0.678827 0.729940 -0.079880
vn  -0.093351 0.951180 0.294179
vn  -0.746240 -0.194078 -0.636758
vn  -0.677051 0.375737 -0.632791
vn  -0.007784 0.041157 -0.999122
vn  0.002486 0.457195 -0.889363
vn  -0.007784 0.041157 -0.999122
vn  0.008233 -0.299636 -0.954018
vn  -0.746240 -0.194078 -0.636758
vn  -0.368377 -0.653883 -0.660859
vn  -0.089137 0.653488 0.751670
vn  -0.093351 0.951180 0.294179
vn  -0.574319 0.678786 0.457611
vn  -0.678827 0.729940 -0.079880
vn  0.337991 -0.768450 0.543366
vn  -0.000688 -0.952511 0.304502
vn  0.365495 -0.904026 0.221699
vn  -0.966541 0.250620 0.054669
vn  -0.972345 -0.233546 0.000821
vn  -0.734065 -0.215624 0.643937
vn  -0.746240 -0.194078 -0.636758
vn  -0.368377 -0.653883 -0.660859
vn  -0.649890 -0.758858 -0.042161
vn  0.337991 -0.768450 0.543366
vn  0.179859 -0.513505 0.839025
vn  -0.248394 -0.771145 0.586205

g rdmobj00
usemtl material000
f  1/1/1 2/2/2 3/3/3
f  4/4/4 3/3/3 2/2/2
f  3/3/3 4/4/4 5/5/5
f  6/6/6 5/5/5 4/4/4
f  5/5/5 6/6/6 7/7/7
f  8/8/8 7/7/7 6/6/6
f  7/7/7 8/8/8 9/9/9
f  10/10/10 9/9/9 8/8/8
f  11/11/11 12/12/12 13/13/13
f  14/14/14 13/13/13 12/12/12
f  13/13/13 14/14/14 15/15/15
f  16/16/16 15/15/15 14/14/14
f  15/15/15 16/16/16 17/17/17
f  18/18/18 17/17/17 16/16/16
f  17/17/17 18/18/18 19/19/19
f  20/20/20 19/19/19 18/18/18
f  21/21/21 22/22/22 23/23/23
f  24/24/24 23/23/23 22/22/22
f  23/23/23 24/24/24 25/25/25
f  26/26/26 25/25/25 24/24/24
f  25/25/25 26/26/26 27/27/27
f  28/28/28 27/27/27 26/26/26
f  27/27/27 28/28/28 29/29/29
f  30/30/30 29/29/29 28/28/28
f  31/31/31 32/32/32 33/33/33
f  34/34/34 33/33/33 32/32/32
f  33/33/33 34/34/34 35/35/35
f  36/36/36 35/35/35 34/34/34
f  35/35/35 36/36/36 37/37/37
f  38/38/38 39/39/39 40/40/40
f  41/41/41 40/40/40 39/39/39
f  40/40/40 41/41/41 42/42/42
f  43/43/43 42/42/42 41/41/41
f  44/44/44 45/45/45 46/46/46
f  47/47/47 46/46/46 45/45/45
f  46/46/46 47/47/47 48/48/48
f  49/49/49 50/50/50 51/51/51
f  52/52/52 51/51/51 50/50/50
f  53/53/53 54/54/54 55/55/55
f  56/56/56 55/55/55 54/54/54
f  57/57/57 58/58/58 59/59/59
f  60/60/60 59/59/59 58/58/58
f  61/61/61 62/62/62 63/63/63
f  64/64/64 65/65/65 66/66/66
f  67/67/67 68/68/68 69/69/69
f  70/70/70 71/71/71 72/72/72

g
v  1.764580 8.145480 -13.621000
v  -1.588500 17.942900 -15.205800
v  11.129900 12.174500 -9.976460
v  10.084100 20.638100 -10.758600
v  14.493300 13.343600 0.353051
v  14.536600 21.636700 1.443100
v  11.376000 12.249500 10.557200
v  10.084100 20.638100 12.623800
v  -1.588500 17.942900 16.807501
v  -2.286870 28.764601 16.606800
v  2.506710 42.351501 2.458860
v  4.314490 37.551601 9.120260
v  6.305960 37.555801 2.341020
v  12.652200 29.961100 1.977920
v  4.196800 37.559898 -3.415270
v  8.014730 29.866400 -8.457190
v  -1.756660 37.894001 -5.360190
v  -2.355460 29.352100 -12.671700
v  13.363200 2.387900 -4.393200
v  12.067500 5.766850 -8.355310
v  13.450100 6.529740 -1.807480
v  14.493300 13.343600 0.353051
v  12.256500 5.905160 3.371480
v  11.376000 12.249500 10.557200
v  7.113950 2.229480 5.311370
v  1.846600 8.170510 13.354500
v  9.942060 -0.125950 -2.921160
v  9.942060 -0.125950 -2.921160
v  13.363200 2.387900 -4.393200
v  9.803500 -0.081020 -6.487050
v  12.067500 5.766850 -8.355310
v  6.710950 2.648870 -10.019400
v  11.129900 12.174500 -9.976460
v  1.764580 8.145480 -13.621000
v  -1.917460 37.907001 10.796100
v  4.314490 37.551601 9.120260
v  -1.283890 43.027100 3.513560
v  2.506710 42.351501 2.458860
v  -0.978389 42.713001 0.443760
v  4.196800 37.559898 -3.415270
v  12.652200 29.961100 1.977920
v  12.652200 29.961100 1.977920
v  8.014730 29.866400 -8.457190
v  10.084100 20.638100 -10.758600
v  -2.355460 29.352100 -12.671700
v  -1.588500 17.942900 -15.205800
v  -2.286870 28.764601 16.606800
v  -2.286870 28.764601 16.606800
v  7.989810 29.452400 11.956400
v  10.084100 20.638100 12.623800
v  12.652200 29.961100 1.977920
v  14.536600 21.636700 1.443100
v  13.450100 6.529740 -1.807480
v  13.450100 6.529740 -1.807480
v  13.363200 2.387900 -4.393200
v  12.256500 5.905160 3.371480
v  9.942060 -0.125950 -2.921160
v  7.113950 2.229480 5.311370
v  7.989810 29.452400 11.956400
v  4.314490 37.551601 9.120260
v  -2.286870 28.764601 16.606800
v  -1.917460 37.907001 10.796100
v  2.506710 42.351501 2.458860
v  6.305960 37.555801 2.341020
v  4.196800 37.559898 -3.415270
v  -0.978389 42.713001 0.443760
v  4.196800 37.559898 -3.415270
v  -1.756660 37.894001 -5.360190
v  4.314490 37.551601 9.120260
v  7.989810 29.452400 11.956400
v  12.652200 29.961100 1.977920
v  12.652200 29.961100 1.977920
v  14.536600 21.636700 1.443100
v  10.084100 20.638100 -10.758600
v  -1.588500 17.942900 16.807501
v  1.846600 8.170510 13.354500
v  11.376000 12.249500 10.557200
v  12.067500 5.766850 -8.355310
v  11.129900 12.174500 -9.976460
v  14.493300 13.343600 0.353051

vt  0.172862 -0.769109 0.000000
vt  0.105378 -0.583606 0.000000
vt  0.334747 -0.695583 0.000000
vt  0.311382 -0.543514 0.000000
vt  0.513354 -0.673911 0.000000
vt  0.526251 -0.536380 0.000000
vt  0.694964 -0.679829 0.000000
vt  0.725994 -0.511376 0.000000
vt  0.936533 -0.570803 0.000000
vt  0.895012 -0.307687 0.000000
vt  0.524606 -0.134504 0.000000
vt  0.643259 -0.207794 0.000000
vt  0.526068 -0.235860 0.000000
vt  0.528075 -0.399308 0.000000
vt  0.420070 -0.226580 0.000000
vt  0.343519 -0.379715 0.000000
vt  0.329232 -0.162589 0.000000
vt  0.161216 -0.330162 0.000000
vt  0.445550 -0.858641 0.000000
vt  0.371917 -0.804243 0.000000
vt  0.484060 -0.789366 0.000000
vt  0.513354 -0.673911 0.000000
vt  0.576503 -0.797900 0.000000
vt  0.694964 -0.679829 0.000000
vt  0.661964 -0.883744 0.000000
vt  0.841616 -0.778449 0.000000
vt  0.483572 -0.926492 0.000000
vt  0.483572 -0.926492 0.000000
vt  0.445550 -0.858641 0.000000
vt  0.379702 -0.913816 0.000000
vt  0.371917 -0.804243 0.000000
vt  0.282219 -0.862978 0.000000
vt  0.334747 -0.695583 0.000000
vt  0.172862 -0.769109 0.000000
vt  0.703748 -0.117574 0.000000
vt  0.643259 -0.207794 0.000000
vt  0.542949 -0.071404 0.000000
vt  0.524606 -0.134504 0.000000
vt  0.468195 -0.088593 0.000000
vt  0.420070 -0.226580 0.000000
vt  0.528075 -0.399308 0.000000
vt  0.528075 -0.399308 0.000000
vt  0.343519 -0.379715 0.000000
vt  0.311382 -0.543514 0.000000
vt  0.161216 -0.330162 0.000000
vt  0.105378 -0.583606 0.000000
vt  0.895012 -0.307687 0.000000
vt  0.895012 -0.307687 0.000000
vt  0.697377 -0.356600 0.000000
vt  0.725994 -0.511376 0.000000
vt  0.528075 -0.399308 0.000000
vt  0.526251 -0.536380 0.000000
vt  0.484060 -0.789366 0.000000
vt  0.484060 -0.789366 0.000000
vt  0.445550 -0.858641 0.000000
vt  0.576503 -0.797900 0.000000
vt  0.483572 -0.926492 0.000000
vt  0.661964 -0.883744 0.000000
vt  0.697377 -0.356600 0.000000
vt  0.643259 -0.207794 0.000000
vt  0.895012 -0.307687 0.000000
vt  0.703748 -0.117574 0.000000
vt  0.524606 -0.134504 0.000000
vt  0.526068 -0.235860 0.000000
vt  0.420070 -0.226580 0.000000
vt  0.468195 -0.088593 0.000000
vt  0.420070 -0.226580 0.000000
vt  0.329232 -0.162589 0.000000
vt  0.643259 -0.207794 0.000000
vt  0.697377 -0.356600 0.000000
vt  0.528075 -0.399308 0.000000
vt  0.528075 -0.399308 0.000000
vt  0.526251 -0.536380 0.000000
vt  0.311382 -0.543514 0.000000
vt  0.936533 -0.570803 0.000000
vt  0.841616 -0.778449 0.000000
vt  0.694964 -0.679829 0.000000
vt  0.371917 -0.804243 0.000000
vt  0.334747 -0.695583 0.000000
vt  0.513354 -0.673911 0.000000

vn  0.008233 -0.299636 -0.954018
vn  -0.007784 0.041157 -0.999122
vn  0.625121 -0.051953 -0.778797
vn  0.735837 0.178436 -0.653226
vn  0.996826 -0.048905 -0.062812
vn  0.992473 0.097979 0.073466
vn  0.726813 -0.259916 0.635757
vn  0.692145 0.091804 0.715896
vn  0.042837 -0.193519 0.980161
vn  0.031007 0.267633 0.963022
vn  0.526215 0.849731 -0.032485
vn  0.518937 0.656253 0.547755
vn  0.774991 0.631492 -0.024627
vn  0.895611 0.444743 0.009182
vn  0.545340 0.685136 -0.482900
vn  0.538327 0.518530 -0.664327
vn  0.088428 0.694792 -0.713754
vn  0.002486 0.457195 -0.889363
vn  0.889844 -0.452366 -0.059512
vn  0.814983 -0.177799 -0.551535
vn  0.996411 -0.084576 -0.003454
vn  0.996826 -0.048905 -0.062812
vn  0.833962 -0.421691 0.355927
vn  0.726813 -0.259916 0.635757
vn  0.337991 -0.768450 0.543366
vn  0.179859 -0.513505 0.839025
vn  0.365495 -0.904026 0.221699
vn  0.365495 -0.904026 0.221699
vn  0.889844 -0.452366 -0.059512
vn  0.319319 -0.848689 -0.421619
vn  0.814983 -0.177799 -0.551535
vn  0.191591 -0.509494 -0.838873
vn  0.625121 -0.051953 -0.778797
vn  0.008233 -0.299636 -0.954018
vn  -0.089137 0.653488 0.751670
vn  0.518937 0.656253 0.547755
vn  -0.093351 0.951180 0.294179
vn  0.526215 0.849731 -0.032485
vn  -0.056492 0.913300 -0.403352
vn  0.545340 0.685136 -0.482900
vn  0.895611 0.444743 0.009182
vn  0.895611 0.444743 0.009182
vn  0.538327 0.518530 -0.664327
vn  0.735837 0.178436 -0.653226
vn  0.002486 0.457195 -0.889363
vn  -0.007784 0.041157 -0.999122
vn  0.031007 0.267633 0.963022
vn  0.031007 0.267633 0.963022
vn  0.640841 0.357895 0.679142
vn  0.692145 0.091804 0.715896
vn  0.895611 0.444743 0.009182
vn  0.992473 0.097979 0.073466
vn  0.996411 -0.084576 -0.003454
vn  0.996411 -0.084576 -0.003454
vn  0.889844 -0.452366 -0.059512
vn  0.833962 -0.421691 0.355927
vn  0.365495 -0.904026 0.221699
vn  0.337991 -0.768450 0.543366
vn  0.640841 0.357895 0.679142
vn  0.518937 0.656253 0.547755
vn  0.031007 0.267633 0.963022
vn  -0.089137 0.653488 0.751670
vn  0.526215 0.849731 -0.032485
vn  0.774991 0.631492 -0.024627
vn  0.545340 0.685136 -0.482900
vn  -0.056492 0.913300 -0.403352
vn  0.545340 0.685136 -0.482900
vn  0.088428 0.694792 -0.713754
vn  0.518937 0.656253 0.547755
vn  0.640841 0.357895 0.679142
vn  0.895611 0.444743 0.009182
vn  0.895611 0.444743 0.009182
vn  0.992473 0.097979 0.073466
vn  0.735837 0.178436 -0.653226
vn  0.042837 -0.193519 0.980161
vn  0.179859 -0.513505 0.839025
vn  0.726813 -0.259916 0.635757
vn  0.814983 -0.177799 -0.551535
vn  0.625121 -0.051953 -0.778797
vn  0.996826 -0.048905 -0.062812

g rdmobj01
usemtl material001
f  73/73/73 74/74/74 75/75/75
f  76/76/76 75/75/75 74/74/74
f  75/75/75 76/76/76 77/77/77
f  78/78/78 77/77/77 76/76/76
f  77/77/77 78/78/78 79/79/79
f  80/80/80 79/79/79 78/78/78
f  79/79/79 80/80/80 81/81/81
f  82/82/82 81/81/81 80/80/80
f  83/83/83 84/84/84 85/85/85
f  86/86/86 85/85/85 84/84/84
f  85/85/85 86/86/86 87/87/87
f  88/88/88 87/87/87 86/86/86
f  87/87/87 88/88/88 89/89/89
f  90/90/90 89/89/89 88/88/88
f  91/91/91 92/92/92 93/93/93
f  94/94/94 93/93/93 92/92/92
f  93/93/93 94/94/94 95/95/95
f  96/96/96 95/95/95 94/94/94
f  95/95/95 96/96/96 97/97/97
f  98/98/98 97/97/97 96/96/96
f  99/99/99 100/100/100 101/101/101
f  102/102/102 101/101/101 100/100/100
f  101/101/101 102/102/102 103/103/103
f  104/104/104 103/103/103 102/102/102
f  103/103/103 104/104/104 105/105/105
f  106/106/106 105/105/105 104/104/104
f  107/107/107 108/108/108 109/109/109
f  110/110/110 109/109/109 108/108/108
f  109/109/109 110/110/110 111/111/111
f  112/112/112 111/111/111 110/110/110
f  113/113/113 114/114/114 115/115/115
f  116/116/116 115/115/115 114/114/114
f  115/115/115 116/116/116 117/117/117
f  118/118/118 117/117/117 116/116/116
f  119/119/119 120/120/120 121/121/121
f  122/122/122 121/121/121 120/120/120
f  121/121/121 122/122/122 123/123/123
f  124/124/124 123/123/123 122/122/122
f  125/125/125 126/126/126 127/127/127
f  128/128/128 127/127/127 126/126/126
f  127/127/127 128/128/128 129/129/129
f  130/130/130 129/129/129 128/128/128
f  131/131/131 132/132/132 133/133/133
f  134/134/134 133/133/133 132/132/132
f  135/135/135 136/136/136 137/137/137
f  138/138/138 139/139/139 140/140/140
f  141/141/141 142/142/142 143/143/143
f  144/144/144 145/145/145 146/146/146
f  147/147/147 148/148/148 149/149/149
f  150/150/150 151/151/151 152/152/152

g
