# Noesis .obj export.
#
mtllib door.mtl
g
v  166.112091 68.122871 -1.420550
v  166.112091 68.122871 -8.980527
v  167.827957 83.432854 -8.980475
v  118.741440 76.173622 -8.980505
v  -0.000834 -0.000048 -2.499965
v  173.999390 242.000031 -2.499972
v  173.999390 -0.000048 -2.499972
v  173.999390 242.000031 -2.499972
v  -0.000834 -0.000048 -2.499965
v  -0.000834 242.000031 -2.499965
v  173.999390 242.000031 -2.499972
v  173.999435 -0.000048 2.499984
v  173.999390 -0.000048 -2.499972
v  173.999435 -0.000048 2.499984
v  173.999390 242.000031 -2.499972
v  173.999435 242.000031 2.499984
v  173.999390 242.000031 -2.499972
v  -0.000799 242.000031 2.499990
v  173.999435 242.000031 2.499984
v  -0.000799 242.000031 2.499990
v  173.999390 242.000031 -2.499972
v  -0.000834 242.000031 -2.499965
v  -0.000799 242.000031 2.499990
v  -0.000834 -0.000048 -2.499965
v  -0.000799 -0.000048 2.499990
v  -0.000834 -0.000048 -2.499965
v  -0.000799 242.000031 2.499990
v  -0.000834 242.000031 -2.499965
v  166.112091 68.122871 -1.420550
v  167.827957 83.432854 -8.980475
v  167.827972 83.432854 -1.420499
v  120.586868 89.344994 -8.980502
v  118.741440 76.173615 -1.420529
v  120.586800 89.345016 -1.420501
v  118.741440 76.173615 -1.420529
v  120.586868 89.344994 -8.980502
v  118.741440 76.173622 -8.980505
v  166.112091 68.122871 -1.420550
v  118.741440 76.173622 -8.980505
v  166.112091 68.122871 -8.980527
v  118.741440 76.173622 -8.980505
v  166.112091 68.122871 -1.420550
v  118.741440 76.173615 -1.420529
v  167.827957 83.432854 -8.980475
v  118.741440 76.173622 -8.980505
v  120.586868 89.344994 -8.980502
v  167.827957 83.432854 -8.980475
v  120.586800 89.345016 -1.420501
v  167.827972 83.432854 -1.420499
v  120.586800 89.345016 -1.420501
v  167.827957 83.432854 -8.980475
v  120.586868 89.344994 -8.980502
v  166.112106 68.122849 8.579537
v  167.827957 83.432854 1.019590
v  167.827972 83.432854 8.579566
v  167.827957 83.432854 1.019590
v  166.112106 68.122849 8.579537
v  166.112106 68.122849 1.019561
v  120.586838 89.344955 1.019620
v  118.741348 76.173546 8.579643
v  120.586853 89.344955 8.579596
v  118.741348 76.173546 8.579643
v  120.586838 89.344955 1.019620
v  118.741402 76.173546 1.019550
v  166.112106 68.122849 8.579537
v  118.741402 76.173546 1.019550
v  166.112106 68.122849 1.019561
v  118.741402 76.173546 1.019550
v  166.112106 68.122849 8.579537
v  118.741348 76.173546 8.579643
v  167.827972 83.432854 8.579566
v  118.741348 76.173546 8.579643
v  166.112106 68.122849 8.579537
v  118.741348 76.173546 8.579643
v  167.827972 83.432854 8.579566
v  120.586853 89.344955 8.579596
v  167.827957 83.432854 1.019590
v  120.586853 89.344955 8.579596
v  167.827972 83.432854 8.579566
v  120.586853 89.344955 8.579596
v  167.827957 83.432854 1.019590
v  120.586838 89.344955 1.019620
v  -0.000799 -0.000048 2.499990
v  173.999435 242.000031 2.499984
v  -0.000799 242.000031 2.499990
v  173.999435 242.000031 2.499984
v  -0.000799 -0.000048 2.499990
v  173.999435 -0.000048 2.499984

vt  0.316779 -0.621343 0.000000
vt  0.363654 -0.621343 0.000000
vt  0.363654 -0.589594 0.000000
vt  0.189918 -0.621343 0.000000
vt  0.996094 -0.998047 0.000000
vt  0.003906 -0.505761 0.000000
vt  0.996094 -0.505761 0.000000
vt  0.003906 -0.505761 0.000000
vt  0.996094 -0.998047 0.000000
vt  0.003906 -0.998047 0.000000
vt  0.996094 -0.998047 0.000000
vt  0.003906 -0.966797 0.000000
vt  0.003906 -0.998047 0.000000
vt  0.003906 -0.966797 0.000000
vt  0.996094 -0.998047 0.000000
vt  0.996094 -0.966797 0.000000
vt  0.996094 -0.998047 0.000000
vt  0.941406 -0.500151 0.000000
vt  0.941406 -0.998047 0.000000
vt  0.941406 -0.500151 0.000000
vt  0.996094 -0.998047 0.000000
vt  0.996094 -0.504358 0.000000
vt  0.996094 -0.529297 0.000000
vt  0.003906 -0.504358 0.000000
vt  0.003906 -0.529297 0.000000
vt  0.003906 -0.504358 0.000000
vt  0.996094 -0.529297 0.000000
vt  0.996094 -0.504358 0.000000
vt  0.316779 -0.621343 0.000000
vt  0.363654 -0.589594 0.000000
vt  0.316779 -0.589594 0.000000
vt  0.363654 -0.589594 0.000000
vt  0.316779 -0.621343 0.000000
vt  0.316779 -0.589594 0.000000
vt  0.316779 -0.621343 0.000000
vt  0.363654 -0.589594 0.000000
vt  0.363654 -0.621343 0.000000
vt  0.189918 -0.599609 0.000000
vt  0.363654 -0.621343 0.000000
vt  0.189918 -0.621343 0.000000
vt  0.363654 -0.621343 0.000000
vt  0.189918 -0.599609 0.000000
vt  0.363654 -0.599609 0.000000
vt  0.363654 -0.589594 0.000000
vt  0.189918 -0.621343 0.000000
vt  0.189918 -0.589594 0.000000
vt  0.363654 -0.621343 0.000000
vt  0.189918 -0.599609 0.000000
vt  0.363654 -0.599609 0.000000
vt  0.189918 -0.599609 0.000000
vt  0.363654 -0.621343 0.000000
vt  0.189918 -0.621343 0.000000
vt  0.817352 -0.171834 0.000000
vt  0.887665 -0.140085 0.000000
vt  0.817352 -0.140085 0.000000
vt  0.887665 -0.140085 0.000000
vt  0.817352 -0.171834 0.000000
vt  0.887665 -0.171834 0.000000
vt  0.824049 -0.140085 0.000000
vt  0.878737 -0.171833 0.000000
vt  0.878737 -0.140085 0.000000
vt  0.878737 -0.171833 0.000000
vt  0.824049 -0.140085 0.000000
vt  0.824049 -0.171833 0.000000
vt  0.985880 -0.170431 0.000000
vt  0.810724 -0.150100 0.000000
vt  0.985880 -0.150100 0.000000
vt  0.810724 -0.150100 0.000000
vt  0.985880 -0.170431 0.000000
vt  0.810724 -0.170431 0.000000
vt  0.256713 -0.088192 0.000000
vt  0.081557 -0.119940 0.000000
vt  0.256713 -0.119940 0.000000
vt  0.081557 -0.119940 0.000000
vt  0.256713 -0.088192 0.000000
vt  0.081557 -0.088192 0.000000
vt  0.310284 -0.272816 0.000000
vt  0.135128 -0.256391 0.000000
vt  0.310284 -0.256391 0.000000
vt  0.135128 -0.256391 0.000000
vt  0.310284 -0.272816 0.000000
vt  0.135128 -0.272816 0.000000
vt  0.003906 -0.001953 0.000000
vt  0.996094 -0.500151 0.000000
vt  0.996094 -0.001953 0.000000
vt  0.996094 -0.500151 0.000000
vt  0.003906 -0.001953 0.000000
vt  0.003906 -0.500151 0.000000

vn  0.601535 -0.798846 -0.000002
vn  0.486304 -0.645815 -0.588584
vn  0.642696 0.506406 -0.574886
vn  -0.662100 -0.484398 -0.571823
vn  -0.707109 0.000000 -0.707104
vn  0.577348 0.577349 -0.577354
vn  0.707104 0.000000 -0.707110
vn  0.577348 0.577349 -0.577354
vn  -0.707109 0.000000 -0.707104
vn  -0.577352 0.577352 -0.577348
vn  0.577348 0.577349 -0.577354
vn  0.707110 0.000000 0.707104
vn  0.707104 0.000000 -0.707110
vn  0.707110 0.000000 0.707104
vn  0.577348 0.577349 -0.577354
vn  0.577352 0.577352 0.577347
vn  0.577348 0.577349 -0.577354
vn  -0.577349 0.577349 0.577353
vn  0.577352 0.577352 0.577347
vn  -0.577349 0.577349 0.577353
vn  0.577348 0.577349 -0.577354
vn  -0.577352 0.577352 -0.577348
vn  -0.577349 0.577349 0.577353
vn  -0.707109 0.000000 -0.707104
vn  -0.707104 0.000000 0.707109
vn  -0.707109 0.000000 -0.707104
vn  -0.577349 0.577349 0.577353
vn  -0.577352 0.577352 -0.577348
vn  0.601535 -0.798846 -0.000002
vn  0.642696 0.506406 -0.574886
vn  0.785469 0.618901 -0.000003
vn  -0.497638 0.649813 -0.574543
vn  -0.807068 -0.590459 -0.000001
vn  -0.608008 0.793931 -0.000001
vn  -0.807068 -0.590459 -0.000001
vn  -0.497638 0.649813 -0.574543
vn  -0.662100 -0.484398 -0.571823
vn  0.601535 -0.798846 -0.000002
vn  -0.662100 -0.484398 -0.571823
vn  0.486304 -0.645815 -0.588584
vn  -0.662100 -0.484398 -0.571823
vn  0.601535 -0.798846 -0.000002
vn  -0.807068 -0.590459 -0.000001
vn  0.642696 0.506406 -0.574886
vn  -0.662100 -0.484398 -0.571823
vn  -0.497638 0.649813 -0.574543
vn  0.642696 0.506406 -0.574886
vn  -0.608008 0.793931 -0.000001
vn  0.785469 0.618901 -0.000003
vn  -0.608008 0.793931 -0.000001
vn  0.642696 0.506406 -0.574886
vn  -0.497638 0.649813 -0.574543
vn  0.486307 -0.645816 0.588581
vn  0.785469 0.618902 -0.000002
vn  0.642698 0.506408 0.574883
vn  0.785469 0.618902 -0.000002
vn  0.486307 -0.645816 0.588581
vn  0.601536 -0.798846 -0.000002
vn  -0.608004 0.793934 -0.000005
vn  -0.662103 -0.484396 0.571822
vn  -0.497636 0.649819 0.574537
vn  -0.662103 -0.484396 0.571822
vn  -0.608004 0.793934 -0.000005
vn  -0.807070 -0.590455 -0.000006
vn  0.486307 -0.645816 0.588581
vn  -0.807070 -0.590455 -0.000006
vn  0.601536 -0.798846 -0.000002
vn  -0.807070 -0.590455 -0.000006
vn  0.486307 -0.645816 0.588581
vn  -0.662103 -0.484396 0.571822
vn  0.642698 0.506408 0.574883
vn  -0.662103 -0.484396 0.571822
vn  0.486307 -0.645816 0.588581
vn  -0.662103 -0.484396 0.571822
vn  0.642698 0.506408 0.574883
vn  -0.497636 0.649819 0.574537
vn  0.785469 0.618902 -0.000002
vn  -0.497636 0.649819 0.574537
vn  0.642698 0.506408 0.574883
vn  -0.497636 0.649819 0.574537
vn  0.785469 0.618902 -0.000002
vn  -0.608004 0.793934 -0.000005
vn  -0.707104 0.000000 0.707109
vn  0.577352 0.577352 0.577347
vn  -0.577349 0.577349 0.577353
vn  0.577352 0.577352 0.577347
vn  -0.707104 0.000000 0.707109
vn  0.707110 0.000000 0.707104

g rdmobj00
usemtl material000
f  1/1/1 2/2/2 3/3/3
f  4/4/4 3/3/3 2/2/2
f  5/5/5 6/6/6 7/7/7
f  8/8/8 9/9/9 10/10/10
f  11/11/11 12/12/12 13/13/13
f  14/14/14 15/15/15 16/16/16
f  17/17/17 18/18/18 19/19/19
f  20/20/20 21/21/21 22/22/22
f  23/23/23 24/24/24 25/25/25
f  26/26/26 27/27/27 28/28/28
f  29/29/29 30/30/30 31/31/31
f  32/32/32 33/33/33 34/34/34
f  35/35/35 36/36/36 37/37/37
f  38/38/38 39/39/39 40/40/40
f  41/41/41 42/42/42 43/43/43
f  44/44/44 45/45/45 46/46/46
f  47/47/47 48/48/48 49/49/49
f  50/50/50 51/51/51 52/52/52
f  53/53/53 54/54/54 55/55/55
f  56/56/56 57/57/57 58/58/58
f  59/59/59 60/60/60 61/61/61
f  62/62/62 63/63/63 64/64/64
f  65/65/65 66/66/66 67/67/67
f  68/68/68 69/69/69 70/70/70
f  71/71/71 72/72/72 73/73/73
f  74/74/74 75/75/75 76/76/76
f  77/77/77 78/78/78 79/79/79
f  80/80/80 81/81/81 82/82/82
f  83/83/83 84/84/84 85/85/85
f  86/86/86 87/87/87 88/88/88

g
