# Blender v2.77 (sub 0) OBJ File: ''
# www.blender.org
mtllib Window_Var1.mtl
o Model_Window_Var1
v -0.031553 0.546360 0.035718
v -0.031531 0.058736 0.035718
v 0.018469 0.058736 0.035718
v 0.018478 0.546360 0.035718
v 0.018478 0.596356 0.035718
v -0.031553 0.596356 0.035718
v -0.031532 1.337675 0.035718
v 0.018452 1.337675 0.035718
v 0.018452 1.387676 0.035718
v -0.031532 1.387676 0.035718
v -0.031531 1.772517 0.035718
v 0.018469 1.772517 0.035718
v 0.018469 0.058736 0.085718
v -0.031531 0.058736 0.085718
v -0.031553 0.546360 0.085718
v 0.018478 0.546360 0.085718
v -0.031553 0.596356 0.085718
v 0.018478 0.596356 0.085718
v 0.018478 0.546360 0.035718
v 0.018469 0.058736 0.035718
v 0.018469 0.058736 0.085718
v 0.018478 0.546360 0.085718
v 0.476611 0.546333 0.035718
v 0.476611 0.546333 0.085718
v -0.031532 1.387676 0.035718
v -0.031531 1.772517 0.035718
v -0.031531 1.772517 0.085718
v -0.031532 1.387676 0.085718
v -0.474975 1.387687 0.035718
v -0.474975 1.387687 0.085718
v -0.031532 1.387676 0.035718
v -0.474975 1.387687 0.035718
v -0.474975 1.337687 0.035718
v -0.031532 1.337675 0.035718
v -0.474975 1.337687 0.085718
v -0.474975 1.387687 0.085718
v -0.031532 1.387676 0.085718
v -0.031532 1.337675 0.085718
v -0.031532 1.337675 0.035718
v -0.474975 1.337687 0.035718
v -0.474975 1.337687 0.085718
v -0.031532 1.337675 0.085718
v 0.018452 1.387676 0.035718
v 0.476611 1.387687 0.035719
v 0.476611 1.387687 0.085719
v 0.018452 1.387676 0.085718
v -0.031553 0.596356 0.035718
v -0.474975 0.596333 0.035718
v -0.474975 0.546333 0.035718
v -0.031553 0.546360 0.035718
v -0.474975 0.546333 0.085718
v -0.474975 0.596333 0.085718
v -0.031553 0.596356 0.085718
v -0.031553 0.546360 0.085718
v -0.031553 0.546360 0.035718
v -0.474975 0.546333 0.035718
v -0.474975 0.546333 0.085718
v -0.031553 0.546360 0.085718
v 0.018478 0.596356 0.035718
v 0.476611 0.596333 0.035718
v 0.476611 0.596333 0.085718
v 0.018478 0.596356 0.085718
v 0.440738 1.737056 -0.130506
v 0.440738 1.737056 0.119783
v 0.440738 0.089968 0.119784
v 0.440737 0.089969 -0.130507
v -0.440738 1.737056 -0.130508
v -0.440738 1.737056 0.119782
v 0.440738 1.737056 0.119783
v 0.440738 1.737056 -0.130506
v -0.440739 0.089969 -0.130508
v -0.440739 0.089969 0.119783
v -0.440738 1.737056 0.119782
v -0.440738 1.737056 -0.130508
v -0.440739 0.089969 -0.130508
v 0.440737 0.089969 -0.130507
v 0.440738 0.089968 0.119784
v -0.440739 0.089969 0.119783
v 0.511449 0.019257 0.119784
v 0.511449 1.807767 0.119783
v 0.511449 1.807767 -0.130506
v 0.511447 0.019258 -0.130507
v 0.511449 1.807767 0.119783
v -0.511449 1.807767 0.119782
v -0.511449 1.807767 -0.130508
v 0.511449 1.807767 -0.130506
v -0.511449 1.807767 0.119782
v -0.511450 0.019258 0.119783
v -0.511450 0.019258 -0.130508
v -0.511449 1.807767 -0.130508
v 0.511449 0.019257 0.119784
v 0.511447 0.019258 -0.130507
v -0.511450 0.019258 -0.130508
v -0.511450 0.019258 0.119783
v 0.440737 0.089969 -0.130507
v 0.511447 0.019258 -0.130507
v 0.511449 1.807767 -0.130506
v 0.440738 1.737056 -0.130506
v 0.447809 1.744127 0.130509
v 0.504378 1.800695 0.130509
v 0.504377 0.026328 0.130509
v 0.447809 0.082897 0.130509
v 0.440738 1.737056 -0.130506
v 0.511449 1.807767 -0.130506
v -0.511449 1.807767 -0.130508
v -0.440738 1.737056 -0.130508
v -0.447809 1.744127 0.130508
v -0.504378 1.800696 0.130508
v 0.504378 1.800695 0.130509
v 0.447809 1.744127 0.130509
v -0.440738 1.737056 -0.130508
v -0.511449 1.807767 -0.130508
v -0.511450 0.019258 -0.130508
v -0.440739 0.089969 -0.130508
v -0.447810 0.082897 0.130509
v -0.504378 0.026329 0.130509
v -0.504378 1.800696 0.130508
v -0.447809 1.744127 0.130508
v 0.447809 0.082897 0.130509
v 0.504377 0.026328 0.130509
v -0.504378 0.026329 0.130509
v -0.447810 0.082897 0.130509
v -0.440739 0.089969 -0.130508
v -0.511450 0.019258 -0.130508
v 0.511447 0.019258 -0.130507
v 0.440737 0.089969 -0.130507
v 0.440738 0.089968 0.119784
v 0.440738 1.737056 0.119783
v 0.447809 1.744127 0.130509
v 0.447809 0.082897 0.130509
v 0.440738 1.737056 0.119783
v -0.440738 1.737056 0.119782
v -0.447809 1.744127 0.130508
v 0.447809 1.744127 0.130509
v -0.440738 1.737056 0.119782
v -0.440739 0.089969 0.119783
v -0.447810 0.082897 0.130509
v -0.447809 1.744127 0.130508
v -0.440739 0.089969 0.119783
v 0.440738 0.089968 0.119784
v 0.447809 0.082897 0.130509
v -0.447810 0.082897 0.130509
v 0.511449 1.807767 0.119783
v 0.511449 0.019257 0.119784
v 0.504377 0.026328 0.130509
v 0.504378 1.800695 0.130509
v -0.511449 1.807767 0.119782
v 0.511449 1.807767 0.119783
v 0.504378 1.800695 0.130509
v -0.504378 1.800696 0.130508
v -0.511450 0.019258 0.119783
v -0.511449 1.807767 0.119782
v -0.504378 1.800696 0.130508
v -0.504378 0.026329 0.130509
v 0.511449 0.019257 0.119784
v -0.511450 0.019258 0.119783
v -0.504378 0.026329 0.130509
v 0.504377 0.026328 0.130509
v 0.476611 1.387687 0.035719
v 0.018452 1.387676 0.035718
v 0.018452 1.337675 0.035718
v 0.476611 1.337687 0.035719
v 0.476611 1.337687 0.085719
v 0.018452 1.337675 0.085718
v 0.018452 1.387676 0.085718
v 0.476611 1.387687 0.085719
v 0.476611 1.337687 0.035719
v 0.018452 1.337675 0.085718
v 0.476611 1.337687 0.085719
v 0.018452 1.337675 0.035718
v 0.018478 0.596356 0.085718
v 0.018478 0.596356 0.035718
v 0.018469 1.772517 0.085718
v -0.031532 1.387676 0.085718
v -0.031531 1.772517 0.085718
v 0.018452 1.387676 0.085718
v 0.018452 1.337675 0.085718
v -0.031532 1.337675 0.085718
v 0.018469 1.772517 0.035718
v 0.018452 1.387676 0.035718
v 0.018452 1.387676 0.085718
v 0.018469 1.772517 0.085718
v -0.031553 0.596356 0.035718
v -0.031532 1.337675 0.035718
v -0.031532 1.337675 0.085718
v -0.031553 0.596356 0.085718
v -0.474975 0.596333 0.035718
v -0.474975 0.596333 0.085718
v 0.476611 0.596333 0.035718
v 0.018478 0.596356 0.035718
v 0.018478 0.546360 0.035718
v 0.476611 0.546333 0.035718
v 0.476611 0.546333 0.085718
v 0.018478 0.546360 0.085718
v 0.018478 0.596356 0.085718
v 0.476611 0.596333 0.085718
v 0.018452 1.337675 0.085718
v 0.018478 0.596356 0.085718
v -0.031553 0.596356 0.085718
v -0.031532 1.337675 0.085718
v -0.031531 0.058736 0.035718
v -0.031553 0.546360 0.035718
v -0.031553 0.546360 0.085718
v -0.031531 0.058736 0.085718
vt 0.1241 0.2248
vt 0.1150 0.2248
vt 0.1150 0.3180
vt 0.1241 0.3180
vt 0.1241 0.3276
vt 0.1150 0.3276
vt 0.1150 0.4693
vt 0.1241 0.4693
vt 0.1241 0.4788
vt 0.1150 0.4788
vt 0.1150 0.5524
vt 0.1241 0.5524
vt 0.1768 0.3180
vt 0.1768 0.2248
vt 0.1859 0.2248
vt 0.1859 0.3180
vt 0.1768 0.3276
vt 0.1859 0.3276
vt 0.1571 0.5602
vt 0.1662 0.5602
vt 0.1662 0.6478
vt 0.1571 0.6478
vt 0.1662 0.7311
vt 0.1571 0.7311
vt 0.1156 0.7311
vt 0.1247 0.7311
vt 0.1247 0.6478
vt 0.1156 0.6478
vt 0.1247 0.5602
vt 0.1156 0.5602
vt 0.1870 0.0482
vt 0.1774 0.0482
vt 0.1774 0.1290
vt 0.1870 0.1290
vt 0.1294 0.1290
vt 0.1294 0.0482
vt 0.1389 0.0482
vt 0.1390 0.1290
vt 0.1585 0.2291
vt 0.1679 0.2291
vt 0.1679 0.3148
vt 0.1585 0.3148
vt 0.1384 0.5602
vt 0.1475 0.5602
vt 0.1475 0.6478
vt 0.1384 0.6478
vt 0.1691 0.0482
vt 0.1595 0.0482
vt 0.1595 0.1290
vt 0.1691 0.1290
vt 0.1142 0.1290
vt 0.1142 0.0482
vt 0.1238 0.0482
vt 0.1238 0.1290
vt 0.1870 0.5602
vt 0.1779 0.5602
vt 0.1779 0.6478
vt 0.1870 0.6478
vt 0.1320 0.2291
vt 0.1414 0.2291
vt 0.1414 0.3148
vt 0.1320 0.3148
vt 0.5757 0.7810
vt 0.5757 0.5333
vt 0.5899 0.5333
vt 0.5899 0.7810
vt 0.5757 0.5333
vt 0.5757 0.3960
vt 0.5899 0.3960
vt 0.5899 0.5333
vt 0.5757 0.3960
vt 0.5757 0.1482
vt 0.5899 0.1482
vt 0.5899 0.3960
vt 0.5757 0.0109
vt 0.5899 0.0109
vt 0.5899 0.1482
vt 0.5757 0.1482
vt 0.0258 0.5352
vt 0.0116 0.5352
vt 0.0116 0.7829
vt 0.0258 0.7829
vt 0.0258 0.3979
vt 0.0116 0.3979
vt 0.0116 0.5352
vt 0.0258 0.5352
vt 0.0258 0.1502
vt 0.0116 0.1502
vt 0.0116 0.3979
vt 0.0258 0.3979
vt 0.0258 0.1502
vt 0.0258 0.0128
vt 0.0116 0.0128
vt 0.0116 0.1502
vt 0.0566 0.0160
vt 0.0566 0.5318
vt 0.0742 0.5114
vt 0.0742 0.0364
vt 0.6135 0.0155
vt 0.6135 0.6144
vt 0.5986 0.5956
vt 0.5986 0.0343
vt 0.5949 0.9404
vt 0.5949 0.6195
vt 0.6111 0.6417
vt 0.6111 0.9182
vt 0.0756 0.5267
vt 0.0756 0.9043
vt 0.0592 0.8835
vt 0.0592 0.5474
vt 0.1007 0.9928
vt 0.1007 0.4770
vt 0.0831 0.4974
vt 0.0831 0.9724
vt 0.0488 0.0169
vt 0.0488 0.6019
vt 0.0342 0.5836
vt 0.0342 0.0353
vt 0.0829 0.4887
vt 0.0829 0.1110
vt 0.0993 0.1318
vt 0.0993 0.4679
vt 0.0323 0.5927
vt 0.0323 0.9136
vt 0.0485 0.8915
vt 0.0485 0.6149
vt 0.5986 0.5956
vt 0.5962 0.5925
vt 0.5962 0.0374
vt 0.5986 0.0343
vt 0.0592 0.8835
vt 0.0565 0.8801
vt 0.0565 0.5509
vt 0.0592 0.5474
vt 0.0342 0.5836
vt 0.0319 0.5806
vt 0.0319 0.0383
vt 0.0342 0.0353
vt 0.0993 0.1318
vt 0.1020 0.1352
vt 0.1020 0.4645
vt 0.0993 0.4679
vt 0.6135 0.0155
vt 0.6159 0.0125
vt 0.6159 0.6175
vt 0.6135 0.6144
vt 0.0756 0.5267
vt 0.0783 0.5232
vt 0.0783 0.9077
vt 0.0756 0.9043
vt 0.0488 0.0169
vt 0.0512 0.0139
vt 0.0512 0.6049
vt 0.0488 0.6019
vt 0.0829 0.4887
vt 0.0802 0.4921
vt 0.0802 0.1076
vt 0.0829 0.1110
vt 0.1855 0.1381
vt 0.1759 0.1381
vt 0.1759 0.2215
vt 0.1855 0.2215
vt 0.1303 0.1381
vt 0.1398 0.1381
vt 0.1398 0.2215
vt 0.1303 0.2215
vt 0.1320 0.5373
vt 0.1320 0.4516
vt 0.1414 0.5373
vt 0.1414 0.4516
vt 0.1320 0.3148
vt 0.1414 0.3148
vt 0.1768 0.5524
vt 0.1768 0.3262
vt 0.1859 0.5524
vt 0.1859 0.3262
vt 0.1859 0.3167
vt 0.1768 0.3167
vt 0.1384 0.6478
vt 0.1475 0.6478
vt 0.1475 0.7311
vt 0.1384 0.7311
vt 0.1585 0.3148
vt 0.1679 0.3148
vt 0.1679 0.4516
vt 0.1585 0.4516
vt 0.1679 0.5373
vt 0.1585 0.5373
vt 0.1238 0.1381
vt 0.1142 0.1381
vt 0.1142 0.2215
vt 0.1238 0.2215
vt 0.1591 0.1381
vt 0.1687 0.1381
vt 0.1687 0.2215
vt 0.1591 0.2215
vt 0.1768 0.3276
vt 0.1859 0.3276
vt 0.1859 0.3167
vt 0.1768 0.3167
vt 0.1870 0.6478
vt 0.1779 0.6478
vt 0.1779 0.7311
vt 0.1870 0.7311
vn 0.0000 0.0000 -1.0000
vn 0.0000 -0.0000 1.0000
vn 1.0000 -0.0000 0.0000
vn 0.7071 -0.7071 0.0000
vn -0.0001 -1.0000 0.0000
vn -1.0000 0.0000 -0.0000
vn -0.7071 0.7071 -0.0000
vn 0.0000 1.0000 0.0000
vn -0.0000 -1.0000 0.0000
vn 0.0001 -1.0000 -0.0000
vn 0.0001 1.0000 0.0000
vn -0.8349 0.0000 0.5504
vn -0.0000 -0.8349 0.5504
vn 0.8349 0.0000 0.5504
vn 0.0000 0.8349 0.5504
vn -0.0001 1.0000 0.0000
usemtl Mat_Window_Var1
s 1
f 3/1/1 2/2/1 1/3/1
f 4/4/1 3/1/1 1/3/1
f 4/4/1 1/3/1 5/5/1
f 1/3/1 6/6/1 5/5/1
f 5/5/1 6/6/1 7/7/1
f 8/8/1 5/5/1 7/7/1
f 9/9/1 8/8/1 7/7/1
f 10/10/1 9/9/1 7/7/1
f 9/9/1 10/10/1 11/11/1
f 12/12/1 9/9/1 11/11/1
f 15/13/2 14/14/2 13/15/2
f 16/16/2 15/13/2 13/15/2
f 17/17/2 15/13/2 16/16/2
f 18/18/2 17/17/2 16/16/2
f 21/19/3 20/20/3 19/21/4
f 22/22/4 21/19/3 19/21/4
f 22/22/4 19/21/4 23/23/5
f 24/24/5 22/22/4 23/23/5
f 27/25/6 26/26/6 25/27/7
f 28/28/7 27/25/6 25/27/7
f 28/28/7 25/27/7 29/29/8
f 30/30/8 28/28/7 29/29/8
f 33/31/1 32/32/1 31/33/1
f 34/34/1 33/31/1 31/33/1
f 37/35/2 36/36/2 35/37/2
f 38/38/2 37/35/2 35/37/2
f 41/39/9 40/40/9 39/41/9
f 42/42/9 41/39/9 39/41/9
f 45/43/8 44/44/8 43/45/8
f 46/46/8 45/43/8 43/45/8
f 49/47/1 48/48/1 47/49/1
f 50/50/1 49/47/1 47/49/1
f 53/51/2 52/52/2 51/53/2
f 54/54/2 53/51/2 51/53/2
f 57/55/10 56/56/10 55/57/10
f 58/58/10 57/55/10 55/57/10
f 61/59/11 60/60/11 59/61/11
f 62/62/11 61/59/11 59/61/11
f 65/63/6 64/64/6 63/65/6
f 66/66/6 65/63/6 63/65/6
f 69/67/9 68/68/9 67/69/9
f 70/70/9 69/67/9 67/69/9
f 73/71/3 72/72/3 71/73/3
f 74/74/3 73/71/3 71/73/3
f 77/75/8 76/76/8 75/77/8
f 78/78/8 77/75/8 75/77/8
f 81/79/3 80/80/3 79/81/3
f 82/82/3 81/79/3 79/81/3
f 85/83/8 84/84/8 83/85/8
f 86/86/8 85/83/8 83/85/8
f 89/87/6 88/88/6 87/89/6
f 90/90/6 89/87/6 87/89/6
f 93/91/9 92/92/9 91/93/9
f 94/94/9 93/91/9 91/93/9
f 97/95/1 96/96/1 95/97/1
f 98/98/1 97/95/1 95/97/1
f 101/99/2 100/100/2 99/101/2
f 102/102/2 101/99/2 99/101/2
f 105/103/1 104/104/1 103/105/1
f 106/106/1 105/103/1 103/105/1
f 109/107/2 108/108/2 107/109/2
f 110/110/2 109/107/2 107/109/2
f 113/111/1 112/112/1 111/113/1
f 114/114/1 113/111/1 111/113/1
f 117/115/2 116/116/2 115/117/2
f 118/118/2 117/115/2 115/117/2
f 121/119/2 120/120/2 119/121/2
f 122/122/2 121/119/2 119/121/2
f 125/123/1 124/124/1 123/125/1
f 126/126/1 125/123/1 123/125/1
f 129/127/12 128/128/12 127/129/12
f 130/130/12 129/127/12 127/129/12
f 133/131/13 132/132/13 131/133/13
f 134/134/13 133/131/13 131/133/13
f 137/135/14 136/136/14 135/137/14
f 138/138/14 137/135/14 135/137/14
f 141/139/15 140/140/15 139/141/15
f 142/142/15 141/139/15 139/141/15
f 145/143/14 144/144/14 143/145/14
f 146/146/14 145/143/14 143/145/14
f 149/147/15 148/148/15 147/149/15
f 150/150/15 149/147/15 147/149/15
f 153/151/12 152/152/12 151/153/12
f 154/154/12 153/151/12 151/153/12
f 157/155/13 156/156/13 155/157/13
f 158/158/13 157/155/13 155/157/13
f 161/159/1 160/160/1 159/161/1
f 162/162/1 161/159/1 159/161/1
f 165/163/2 164/164/2 163/165/2
f 166/166/2 165/163/2 163/165/2
f 169/167/9 168/168/4 167/169/9
f 168/168/4 170/170/4 167/169/9
f 168/168/4 171/171/3 170/170/4
f 171/171/3 172/172/3 170/170/4
f 175/173/2 174/174/2 173/175/2
f 174/174/2 176/176/2 173/175/2
f 177/177/2 176/176/2 174/174/2
f 178/178/2 177/177/2 174/174/2
f 181/179/3 180/180/3 179/181/3
f 182/182/3 181/179/3 179/181/3
f 185/183/6 184/184/6 183/185/7
f 186/186/7 185/183/6 183/185/7
f 186/186/7 183/185/7 187/187/16
f 188/188/16 186/186/7 187/187/16
f 191/189/1 190/190/1 189/191/1
f 192/192/1 191/189/1 189/191/1
f 195/193/2 194/194/2 193/195/2
f 196/196/2 195/193/2 193/195/2
f 199/197/2 198/198/2 197/199/2
f 200/200/2 199/197/2 197/199/2
f 203/201/6 202/202/6 201/203/6
f 204/204/6 203/201/6 201/203/6
