# 3ds Max Wavefront OBJ Exporter v0.97b - (c)2007 guruware
# File Created: 05.02.2015 20:03:11

mtllib ToiletWater.mtl

#
# object ToiletWater
#

v  0.0865 0.0000 -0.1405
v  -0.0865 0.0000 -0.1405
v  -0.1393 0.0000 -0.0161
v  0.1393 0.0000 -0.0161
v  -0.1218 0.0000 0.1244
v  0.1218 0.0000 0.1244
v  -0.0545 0.0000 0.2143
v  0.0543 0.0000 0.2143
v  0.0542 -0.0001 -0.0904
v  -0.0542 -0.0001 -0.0904
v  -0.0872 -0.0001 -0.0275
v  0.0872 -0.0001 -0.0275
v  -0.0763 -0.0001 0.0435
v  0.0763 -0.0001 0.0435
v  -0.0341 -0.0001 0.0890
v  0.0340 -0.0001 0.0890
# 16 vertices

vn 0.0000 1.0000 -0.0000
vn 0.0430 0.9989 0.0170
# 2 vertex normals

vt 0.1894 0.0000 0.0000
vt 0.8106 0.0000 0.0000
vt 1.0000 0.3507 0.0000
vt -0.0000 0.3507 0.0000
vt 0.9374 0.7467 0.0000
vt 0.0626 0.7467 0.0000
vt 0.6956 1.0000 0.0000
vt 0.3049 1.0000 0.0000
# 8 texture coords

g ToiletWater
usemtl 18___Default
s 1
f 1/1/1 2/2/1 3/3/1 
f 1/1/1 3/3/1 4/4/1 
f 4/4/1 3/3/1 5/5/2 
f 4/4/1 5/5/2 6/6/2 
f 6/6/2 5/5/2 7/7/2 
f 6/6/2 7/7/2 8/8/2 
f 9/1/1 10/2/1 11/3/1 
f 9/1/1 11/3/1 12/4/1 
f 12/4/1 11/3/1 13/5/2 
f 12/4/1 13/5/2 14/6/2 
f 14/6/2 13/5/2 15/7/2 
f 14/6/2 15/7/2 16/8/2 
# 0 polygons - 12 triangles

