# Noesis .obj export.
#
mtllib log.mtl
g
v  -11.457100 21.142700 18.288500
v  3.887120 21.719000 -1.413400
v  -11.610500 21.870199 -1.012770
v  -11.055300 23.051600 -14.358000
v  -16.647699 12.972600 -2.362280
v  -15.189200 12.799300 -19.265900
v  -11.904100 4.073800 -4.231900
v  -1.571480 2.283600 -54.693100
v  0.366813 19.789700 51.250801
v  0.366813 19.789700 51.250801
v  -6.987750 18.836800 52.467300
v  -9.041540 20.445000 24.985300
v  -12.974300 13.563700 52.716400
v  -14.355300 14.517700 26.815399
v  -12.173600 4.046400 51.667400
v  -16.647699 12.972600 -2.362280
v  -11.904100 4.073800 -4.231900
v  13.461600 24.859400 -47.231098
v  13.461600 24.859400 -47.231098
v  3.887120 21.719000 -1.413400
v  2.868220 27.136600 -49.519901
v  -11.055300 23.051600 -14.358000
v  -5.922990 21.174700 -52.653500
v  -15.189200 12.799300 -19.265900
v  -7.761980 10.465900 -54.796200
v  4.329410 0.691700 48.793201
v  2.231880 3.765600 2.550440
v  9.323110 7.418600 48.583302
v  6.882180 10.431100 1.427960
v  7.481020 15.535100 49.563999
v  3.887120 21.719000 -1.413400
v  0.366813 19.789700 51.250801
v  9.022020 0.006400 -52.404499
v  2.980380 5.007600 -5.490200
v  -11.904100 4.073800 -4.231900
v  2.231880 3.765600 2.550440
v  -4.699280 0.304000 49.901001
v  4.329410 0.691700 48.793201
v  13.461600 24.859400 -47.231098
v  3.887120 21.719000 -1.413400
v  19.652100 15.676900 -47.127899
v  6.930680 9.580200 -4.574610
v  17.813101 5.968400 -49.270901
v  -14.355300 14.517700 26.815399
v  -15.170300 16.840799 19.629499
v  -16.647699 12.972600 -2.362280
v  -11.610500 21.870199 -1.012770
v  9.022020 0.006400 -52.404499
v  17.813101 5.968400 -49.270901
v  2.980380 5.007600 -5.490200
v  6.930680 9.580200 -4.574610
v  -11.457100 21.142700 18.288500
v  -9.041540 20.445000 24.985300
v  3.887120 21.719000 -1.413400
v  0.366813 19.789700 51.250801
v  -11.904100 4.073800 -4.231900
v  -4.699280 0.304000 49.901001
v  -12.173600 4.046400 51.667400
v  6.882180 10.431100 1.427960
v  6.930680 9.580200 -4.574610
v  3.887120 21.719000 -1.413400
v  -15.189200 12.799300 -19.265900
v  -7.761980 10.465900 -54.796200
v  -1.571480 2.283600 -54.693100
v  -11.904100 4.073800 -4.231900
v  -1.571480 2.283600 -54.693100
v  9.022020 0.006400 -52.404499
v  -15.170300 16.840799 19.629499
v  -11.457100 21.142700 18.288500
v  -11.610500 21.870199 -1.012770

vt  0.289063 -0.679687 0.000000
vt  0.523438 -0.492187 0.000000
vt  0.273438 -0.492187 0.000000
vt  0.273438 -0.382812 0.000000
vt  0.132813 -0.492187 0.000000
vt  0.132813 -0.351562 0.000000
vt  0.007813 -0.492187 0.000000
vt  0.007813 -0.007812 0.000000
vt  0.460938 -0.992187 0.000000
vt  0.460938 -0.992187 0.000000
vt  0.351563 -0.992187 0.000000
vt  0.320313 -0.742187 0.000000
vt  0.257813 -0.992187 0.000000
vt  0.195313 -0.757812 0.000000
vt  0.117188 -0.992187 0.000000
vt  0.132813 -0.492187 0.000000
vt  0.007813 -0.492187 0.000000
vt  0.523438 -0.007812 0.000000
vt  0.523438 -0.007812 0.000000
vt  0.523438 -0.492187 0.000000
vt  0.398438 -0.007812 0.000000
vt  0.273438 -0.382812 0.000000
vt  0.273438 -0.007812 0.000000
vt  0.132813 -0.351562 0.000000
vt  0.132813 -0.007812 0.000000
vt  0.882813 -0.992187 0.000000
vt  0.835938 -0.570312 0.000000
vt  0.742188 -0.992187 0.000000
vt  0.742188 -0.554687 0.000000
vt  0.617188 -0.992187 0.000000
vt  0.523438 -0.492187 0.000000
vt  0.460938 -0.992187 0.000000
vt  0.867188 -0.007812 0.000000
vt  0.820313 -0.492187 0.000000
vt  0.992188 -0.507812 0.000000
vt  0.835938 -0.570312 0.000000
vt  0.992188 -0.992187 0.000000
vt  0.882813 -0.992187 0.000000
vt  0.523438 -0.007812 0.000000
vt  0.523438 -0.492187 0.000000
vt  0.632813 -0.007812 0.000000
vt  0.742188 -0.492187 0.000000
vt  0.757813 -0.007812 0.000000
vt  0.195313 -0.757812 0.000000
vt  0.226563 -0.695312 0.000000
vt  0.132813 -0.492187 0.000000
vt  0.273438 -0.492187 0.000000
vt  0.867188 -0.007812 0.000000
vt  0.757813 -0.007812 0.000000
vt  0.820313 -0.492187 0.000000
vt  0.742188 -0.492187 0.000000
vt  0.289063 -0.679687 0.000000
vt  0.320313 -0.742187 0.000000
vt  0.523438 -0.492187 0.000000
vt  0.460938 -0.992187 0.000000
vt  0.007813 -0.492187 0.000000
vt  0.007813 -0.992187 0.000000
vt  0.117188 -0.992187 0.000000
vt  0.742188 -0.554687 0.000000
vt  0.742188 -0.492187 0.000000
vt  0.523438 -0.492187 0.000000
vt  0.132813 -0.351562 0.000000
vt  0.132813 -0.007812 0.000000
vt  0.007813 -0.007812 0.000000
vt  0.992188 -0.507812 0.000000
vt  0.992188 -0.007812 0.000000
vt  0.867188 -0.007812 0.000000
vt  0.226563 -0.695312 0.000000
vt  0.289063 -0.679687 0.000000
vt  0.273438 -0.492187 0.000000

vn  0.043408 0.820509 -0.569983
vn  0.482825 0.869370 0.105239
vn  -0.560746 0.827415 0.030781
vn  -0.609926 0.792086 -0.024296
vn  -0.998458 0.055431 -0.002863
vn  -0.983323 -0.108017 -0.146318
vn  -0.439871 -0.896785 -0.047862
vn  -0.424630 -0.577607 -0.697180
vn  0.183002 0.906930 0.379457
vn  0.183002 0.906930 0.379457
vn  -0.079075 0.420620 0.903784
vn  0.018891 0.986035 0.165463
vn  -0.648211 0.349018 0.676764
vn  -0.899371 0.053867 0.433855
vn  -0.627559 -0.403439 0.665888
vn  -0.998458 0.055431 -0.002863
vn  -0.439871 -0.896785 -0.047862
vn  0.567140 0.768476 -0.296305
vn  0.567140 0.768476 -0.296305
vn  0.482825 0.869370 0.105239
vn  -0.036265 0.960285 -0.276653
vn  -0.609926 0.792086 -0.024296
vn  -0.395054 0.461690 -0.794213
vn  -0.983323 -0.108017 -0.146318
vn  -0.491712 -0.028701 -0.870285
vn  0.393139 -0.662077 0.638040
vn  0.254355 -0.949500 0.183722
vn  0.630369 -0.259975 0.731470
vn  0.885856 0.420136 0.196836
vn  0.779586 0.317336 0.539948
vn  0.482825 0.869370 0.105239
vn  0.183002 0.906930 0.379457
vn  0.219473 -0.943854 -0.246924
vn  0.092451 -0.953151 -0.288021
vn  -0.439871 -0.896785 -0.047862
vn  0.254355 -0.949500 0.183722
vn  -0.085146 -0.962344 0.258154
vn  0.393139 -0.662077 0.638040
vn  0.567140 0.768476 -0.296305
vn  0.482825 0.869370 0.105239
vn  0.914856 0.227335 -0.333703
vn  0.886835 0.353012 -0.298172
vn  0.677846 -0.239505 -0.695099
vn  -0.899371 0.053867 0.433855
vn  -0.964954 -0.099226 -0.242936
vn  -0.998458 0.055431 -0.002863
vn  -0.560746 0.827415 0.030781
vn  0.219473 -0.943854 -0.246924
vn  0.677846 -0.239505 -0.695099
vn  0.092451 -0.953151 -0.288021
vn  0.886835 0.353012 -0.298172
vn  0.043408 0.820509 -0.569983
vn  0.018891 0.986035 0.165463
vn  0.482825 0.869370 0.105239
vn  0.183002 0.906930 0.379457
vn  -0.439871 -0.896785 -0.047862
vn  -0.085146 -0.962344 0.258154
vn  -0.627559 -0.403439 0.665888
vn  0.885856 0.420136 0.196836
vn  0.886835 0.353012 -0.298172
vn  0.482825 0.869370 0.105239
vn  -0.983323 -0.108017 -0.146318
vn  -0.491712 -0.028701 -0.870285
vn  -0.424630 -0.577607 -0.697180
vn  -0.439871 -0.896785 -0.047862
vn  -0.424630 -0.577607 -0.697180
vn  0.219473 -0.943854 -0.246924
vn  -0.964954 -0.099226 -0.242936
vn  0.043408 0.820509 -0.569983
vn  -0.560746 0.827415 0.030781

g rdmobj00
usemtl material000
f  1/1/1 2/2/2 3/3/3
f  4/4/4 3/3/3 2/2/2
f  3/3/3 4/4/4 5/5/5
f  6/6/6 5/5/5 4/4/4
f  5/5/5 6/6/6 7/7/7
f  8/8/8 7/7/7 6/6/6
f  9/9/9 10/10/10 11/11/11
f  12/12/12 11/11/11 10/10/10
f  11/11/11 12/12/12 13/13/13
f  14/14/14 13/13/13 12/12/12
f  13/13/13 14/14/14 15/15/15
f  16/16/16 15/15/15 14/14/14
f  15/15/15 16/16/16 17/17/17
f  18/18/18 19/19/19 20/20/20
f  21/21/21 20/20/20 19/19/19
f  20/20/20 21/21/21 22/22/22
f  23/23/23 22/22/22 21/21/21
f  22/22/22 23/23/23 24/24/24
f  25/25/25 24/24/24 23/23/23
f  26/26/26 27/27/27 28/28/28
f  29/29/29 28/28/28 27/27/27
f  28/28/28 29/29/29 30/30/30
f  31/31/31 30/30/30 29/29/29
f  30/30/30 31/31/31 32/32/32
f  33/33/33 34/34/34 35/35/35
f  36/36/36 35/35/35 34/34/34
f  35/35/35 36/36/36 37/37/37
f  38/38/38 37/37/37 36/36/36
f  39/39/39 40/40/40 41/41/41
f  42/42/42 41/41/41 40/40/40
f  41/41/41 42/42/42 43/43/43
f  44/44/44 45/45/45 46/46/46
f  47/47/47 46/46/46 45/45/45
f  48/48/48 49/49/49 50/50/50
f  51/51/51 50/50/50 49/49/49
f  52/52/52 53/53/53 54/54/54
f  55/55/55 54/54/54 53/53/53
f  56/56/56 57/57/57 58/58/58
f  59/59/59 60/60/60 61/61/61
f  62/62/62 63/63/63 64/64/64
f  65/65/65 66/66/66 67/67/67
f  68/68/68 69/69/69 70/70/70

g
v  -19.018801 21.267799 25.428499
v  -14.355300 14.517700 26.815399
v  -14.997000 26.011200 24.686300
v  -9.041540 20.445000 24.985300
v  -13.241300 23.446400 18.249201
v  -11.457100 21.142700 18.288500
v  -17.300600 20.107500 18.314501
v  -15.170300 16.840799 19.629499
v  -19.018801 21.267799 25.428499
v  -14.355300 14.517700 26.815399
v  -19.018801 21.267799 25.428499
v  -21.739201 25.749500 11.127500
v  -17.300600 20.107500 18.314501
v  -16.709101 22.441200 9.638250
v  -13.241300 23.446400 18.249201
v  -13.270900 27.667400 10.898200
v  -14.997000 26.011200 24.686300
v  -18.308300 30.596500 12.597700
v  -19.018801 21.267799 25.428499
v  -21.739201 25.749500 11.127500
v  2.231880 3.765600 2.550440
v  2.980380 5.007600 -5.490200
v  10.551600 0.383072 -3.017680
v  10.024300 4.773370 -7.341290
v  13.096300 -0.771484 -14.691800
v  12.944600 6.594890 -15.186500
v  2.980380 5.007600 -5.490200
v  6.930680 9.580200 -4.574610
v  10.024300 4.773370 -7.341290
v  13.493200 8.844720 -5.017250
v  12.944600 6.594890 -15.186500
v  19.308201 6.352810 -13.266700
v  6.882180 10.431100 1.427960
v  13.979000 6.144130 1.550240
v  13.493200 8.844720 -5.017250
v  17.955000 3.164170 -3.250170
v  19.308201 6.352810 -13.266700
v  19.799900 -0.770900 -13.587500
v  -1.571480 2.283600 -54.693100
v  -7.761980 10.465900 -54.796200
v  17.813101 5.968400 -49.270901
v  -5.922990 21.174700 -52.653500
v  19.652100 15.676900 -47.127899
v  13.461600 24.859400 -47.231098
v  0.366813 19.789700 51.250801
v  0.366813 19.789700 51.250801
v  7.481020 15.535100 49.563999
v  -6.987750 18.836800 52.467300
v  9.323110 7.418600 48.583302
v  -12.974300 13.563700 52.716400
v  13.979000 6.144130 1.550240
v  13.979000 6.144130 1.550240
v  17.955000 3.164170 -3.250170
v  10.551600 0.383072 -3.017680
v  19.799900 -0.770900 -13.587500
v  13.096300 -0.771484 -14.691800
v  13.096300 -0.771484 -14.691800
v  12.944600 6.594890 -15.186500
v  19.799900 -0.770900 -13.587500
v  19.308201 6.352810 -13.266700
v  10.551600 0.383072 -3.017680
v  13.979000 6.144130 1.550240
v  2.231880 3.765600 2.550440
v  6.882180 10.431100 1.427960
v  -18.308300 30.596500 12.597700
v  -13.270900 27.667400 10.898200
v  -21.739201 25.749500 11.127500
v  -16.709101 22.441200 9.638250
v  -12.974300 13.563700 52.716400
v  -12.173600 4.046400 51.667400
v  9.323110 7.418600 48.583302
v  4.329410 0.691700 48.793201
v  13.493200 8.844720 -5.017250
v  6.930680 9.580200 -4.574610
v  6.882180 10.431100 1.427960
v  -12.173600 4.046400 51.667400
v  -4.699280 0.304000 49.901001
v  4.329410 0.691700 48.793201
v  17.813101 5.968400 -49.270901
v  9.022020 0.006400 -52.404499
v  -1.571480 2.283600 -54.693100
v  13.461600 24.859400 -47.231098
v  -5.922990 21.174700 -52.653500
v  2.868220 27.136600 -49.519901

vt  0.039063 -0.304687 0.000000
vt  0.039063 -0.429687 0.000000
vt  0.148438 -0.304687 0.000000
vt  0.148438 -0.429687 0.000000
vt  0.242188 -0.289062 0.000000
vt  0.242188 -0.367187 0.000000
vt  0.320313 -0.289062 0.000000
vt  0.320313 -0.367187 0.000000
vt  0.398438 -0.304687 0.000000
vt  0.398438 -0.429687 0.000000
vt  0.398438 -0.304687 0.000000
vt  0.398438 -0.101562 0.000000
vt  0.320313 -0.289062 0.000000
vt  0.320313 -0.101562 0.000000
vt  0.242188 -0.289062 0.000000
vt  0.242188 -0.101562 0.000000
vt  0.148438 -0.304687 0.000000
vt  0.148438 -0.101562 0.000000
vt  0.039063 -0.304687 0.000000
vt  0.039063 -0.101562 0.000000
vt  0.882813 -0.429687 0.000000
vt  0.976563 -0.429687 0.000000
vt  0.882813 -0.257812 0.000000
vt  0.976563 -0.257812 0.000000
vt  0.882813 -0.085937 0.000000
vt  0.976563 -0.085937 0.000000
vt  0.585938 -0.429687 0.000000
vt  0.695313 -0.429687 0.000000
vt  0.585938 -0.304687 0.000000
vt  0.695313 -0.304687 0.000000
vt  0.585938 -0.085937 0.000000
vt  0.695313 -0.085937 0.000000
vt  0.789063 -0.429687 0.000000
vt  0.789063 -0.304687 0.000000
vt  0.695313 -0.304687 0.000000
vt  0.789063 -0.210937 0.000000
vt  0.695313 -0.085937 0.000000
vt  0.789063 -0.054687 0.000000
vt  0.617188 -0.898437 0.000000
vt  0.523438 -0.773437 0.000000
vt  0.929688 -0.851562 0.000000
vt  0.554688 -0.617187 0.000000
vt  0.945313 -0.710937 0.000000
vt  0.851563 -0.570312 0.000000
vt  0.289063 -0.585937 0.000000
vt  0.289063 -0.585937 0.000000
vt  0.414063 -0.648437 0.000000
vt  0.148438 -0.601562 0.000000
vt  0.445313 -0.773437 0.000000
vt  0.039063 -0.679687 0.000000
vt  0.789063 -0.304687 0.000000
vt  0.789063 -0.304687 0.000000
vt  0.789063 -0.210937 0.000000
vt  0.882813 -0.257812 0.000000
vt  0.789063 -0.054687 0.000000
vt  0.882813 -0.085937 0.000000
vt  0.554688 -0.414062 0.000000
vt  0.554688 -0.289062 0.000000
vt  0.429688 -0.414062 0.000000
vt  0.429688 -0.289062 0.000000
vt  0.882813 -0.257812 0.000000
vt  0.789063 -0.304687 0.000000
vt  0.882813 -0.429687 0.000000
vt  0.789063 -0.429687 0.000000
vt  0.554688 -0.101562 0.000000
vt  0.429688 -0.101562 0.000000
vt  0.554688 -0.226562 0.000000
vt  0.429688 -0.226562 0.000000
vt  0.039063 -0.679687 0.000000
vt  0.054688 -0.835937 0.000000
vt  0.445313 -0.773437 0.000000
vt  0.367188 -0.882812 0.000000
vt  0.695313 -0.304687 0.000000
vt  0.695313 -0.429687 0.000000
vt  0.789063 -0.429687 0.000000
vt  0.054688 -0.835937 0.000000
vt  0.195313 -0.898437 0.000000
vt  0.367188 -0.882812 0.000000
vt  0.929688 -0.851562 0.000000
vt  0.789063 -0.945312 0.000000
vt  0.617188 -0.898437 0.000000
vt  0.851563 -0.570312 0.000000
vt  0.554688 -0.617187 0.000000
vt  0.695313 -0.539062 0.000000

vn  -0.929589 -0.127292 0.345921
vn  -0.899371 0.053867 0.433855
vn  0.386932 0.678448 0.624494
vn  0.018891 0.986035 0.165463
vn  0.920214 0.078350 -0.383494
vn  0.043408 0.820509 -0.569983
vn  -0.339939 -0.733166 -0.588989
vn  -0.964954 -0.099226 -0.242936
vn  -0.929589 -0.127292 0.345921
vn  -0.899371 0.053867 0.433855
vn  -0.929589 -0.127292 0.345921
vn  -0.773367 -0.103201 -0.625502
vn  -0.339939 -0.733166 -0.588989
vn  0.312108 -0.688562 -0.654577
vn  0.920214 0.078350 -0.383494
vn  0.688767 0.410197 -0.597778
vn  0.386932 0.678448 0.624494
vn  -0.415079 0.909672 -0.014351
vn  -0.929589 -0.127292 0.345921
vn  -0.773367 -0.103201 -0.625502
vn  0.254355 -0.949500 0.183722
vn  0.092451 -0.953151 -0.288021
vn  -0.156851 -0.975190 0.156215
vn  -0.693991 0.119662 -0.709970
vn  -0.655815 -0.527071 -0.540465
vn  -0.336508 0.491325 -0.803344
vn  0.092451 -0.953151 -0.288021
vn  0.886835 0.353012 -0.298172
vn  -0.693991 0.119662 -0.709970
vn  0.257813 0.961345 -0.096685
vn  -0.336508 0.491325 -0.803344
vn  0.741716 0.619479 -0.257106
vn  0.885856 0.420136 0.196836
vn  0.522148 0.063960 0.850453
vn  0.257813 0.961345 -0.096685
vn  0.869765 -0.057957 0.490050
vn  0.741716 0.619479 -0.257106
vn  0.621301 -0.633554 -0.461079
vn  -0.424630 -0.577607 -0.697180
vn  -0.491712 -0.028701 -0.870285
vn  0.677846 -0.239505 -0.695099
vn  -0.395054 0.461690 -0.794213
vn  0.914856 0.227335 -0.333703
vn  0.567140 0.768476 -0.296305
vn  0.183002 0.906930 0.379457
vn  0.183002 0.906930 0.379457
vn  0.779586 0.317336 0.539948
vn  -0.079075 0.420620 0.903784
vn  0.630369 -0.259975 0.731470
vn  -0.648211 0.349018 0.676764
vn  0.522148 0.063960 0.850453
vn  0.522148 0.063960 0.850453
vn  0.869765 -0.057957 0.490050
vn  -0.156851 -0.975190 0.156215
vn  0.621301 -0.633554 -0.461079
vn  -0.655815 -0.527071 -0.540465
vn  -0.655815 -0.527071 -0.540465
vn  -0.336508 0.491325 -0.803344
vn  0.621301 -0.633554 -0.461079
vn  0.741716 0.619479 -0.257106
vn  -0.156851 -0.975190 0.156215
vn  0.522148 0.063960 0.850453
vn  0.254355 -0.949500 0.183722
vn  0.885856 0.420136 0.196836
vn  -0.415079 0.909672 -0.014351
vn  0.688767 0.410197 -0.597778
vn  -0.773367 -0.103201 -0.625502
vn  0.312108 -0.688562 -0.654577
vn  -0.648211 0.349018 0.676764
vn  -0.627559 -0.403439 0.665888
vn  0.630369 -0.259975 0.731470
vn  0.393139 -0.662077 0.638040
vn  0.257813 0.961345 -0.096685
vn  0.886835 0.353012 -0.298172
vn  0.885856 0.420136 0.196836
vn  -0.627559 -0.403439 0.665888
vn  -0.085146 -0.962344 0.258154
vn  0.393139 -0.662077 0.638040
vn  0.677846 -0.239505 -0.695099
vn  0.219473 -0.943854 -0.246924
vn  -0.424630 -0.577607 -0.697180
vn  0.567140 0.768476 -0.296305
vn  -0.395054 0.461690 -0.794213
vn  -0.036265 0.960285 -0.276653

g rdmobj01
usemtl material001
f  71/71/71 72/72/72 73/73/73
f  74/74/74 73/73/73 72/72/72
f  73/73/73 74/74/74 75/75/75
f  76/76/76 75/75/75 74/74/74
f  75/75/75 76/76/76 77/77/77
f  78/78/78 77/77/77 76/76/76
f  77/77/77 78/78/78 79/79/79
f  80/80/80 79/79/79 78/78/78
f  81/81/81 82/82/82 83/83/83
f  84/84/84 83/83/83 82/82/82
f  83/83/83 84/84/84 85/85/85
f  86/86/86 85/85/85 84/84/84
f  85/85/85 86/86/86 87/87/87
f  88/88/88 87/87/87 86/86/86
f  87/87/87 88/88/88 89/89/89
f  90/90/90 89/89/89 88/88/88
f  91/91/91 92/92/92 93/93/93
f  94/94/94 93/93/93 92/92/92
f  93/93/93 94/94/94 95/95/95
f  96/96/96 95/95/95 94/94/94
f  97/97/97 98/98/98 99/99/99
f  100/100/100 99/99/99 98/98/98
f  99/99/99 100/100/100 101/101/101
f  102/102/102 101/101/101 100/100/100
f  103/103/103 104/104/104 105/105/105
f  106/106/106 105/105/105 104/104/104
f  105/105/105 106/106/106 107/107/107
f  108/108/108 107/107/107 106/106/106
f  109/109/109 110/110/110 111/111/111
f  112/112/112 111/111/111 110/110/110
f  111/111/111 112/112/112 113/113/113
f  114/114/114 113/113/113 112/112/112
f  115/115/115 116/116/116 117/117/117
f  118/118/118 117/117/117 116/116/116
f  117/117/117 118/118/118 119/119/119
f  120/120/120 119/119/119 118/118/118
f  121/121/121 122/122/122 123/123/123
f  124/124/124 123/123/123 122/122/122
f  123/123/123 124/124/124 125/125/125
f  126/126/126 125/125/125 124/124/124
f  127/127/127 128/128/128 129/129/129
f  130/130/130 129/129/129 128/128/128
f  131/131/131 132/132/132 133/133/133
f  134/134/134 133/133/133 132/132/132
f  135/135/135 136/136/136 137/137/137
f  138/138/138 137/137/137 136/136/136
f  139/139/139 140/140/140 141/141/141
f  142/142/142 141/141/141 140/140/140
f  143/143/143 144/144/144 145/145/145
f  146/146/146 147/147/147 148/148/148
f  149/149/149 150/150/150 151/151/151
f  152/152/152 153/153/153 154/154/154

g
