# 3ds Max Wavefront OBJ Exporter v0.97b - (c)2007 guruware
# File Created: 23.11.2020 21:45:11

mtllib FastenerParts004.mtl

#
# object Fastener0
#

v  -0.5926 -25.4970 214.9849
v  -0.5896 -25.4972 214.9850
v  -0.5895 -25.4942 214.9850
v  -0.5925 -25.4940 214.9849
v  -0.6052 -25.4797 214.9897
v  -0.5753 -25.4816 214.9903
v  -0.6071 -25.5097 214.9896
v  -0.5771 -25.5115 214.9903
v  -0.5908 -25.4956 214.9750
# 9 vertices

vn 0.1194 0.1253 0.9849
vn -0.1475 0.1417 0.9788
vn -0.1640 -0.1253 0.9785
vn 0.1029 -0.1417 0.9845
vn -0.6360 0.7118 0.2982
vn 0.7045 0.6290 0.3287
vn -0.7187 -0.6290 0.2964
vn 0.6218 -0.7118 0.3268
vn 0.0227 0.0000 -0.9997
# 9 vertex normals

o Fastener0
g Fastener0
usemtl wire_255255000
s 1
f 1//1 2//2 3//3 4//4 
s 2
f 5//5 4//4 3//3 6//6 
s 4
f 7//7 1//1 4//4 5//5 
s 8
f 2//2 8//8 6//6 3//3 
s 16
f 1//1 7//7 8//8 2//2 
s 32
f 9//9 7//7 5//5 
s 64
f 9//9 5//5 6//6 
s 128
f 9//9 6//6 8//8 
s 256
f 9//9 8//8 7//7 
# 5 polygons - 4 triangles

#
# object Fastener1
#

v  -101.1890 -19.2879 212.6982
v  -101.1860 -19.2882 212.6984
v  -101.1857 -19.2852 212.6984
v  -101.1887 -19.2849 212.6982
v  -101.2012 -19.2702 212.7021
v  -101.1715 -19.2730 212.7046
v  -101.2040 -19.3001 212.7019
v  -101.1743 -19.3029 212.7044
v  -101.1865 -19.2865 212.6883
# 9 vertices

vn 0.0638 0.1207 0.9906
vn -0.2015 0.1455 0.9686
vn -0.2262 -0.1207 0.9666
vn 0.0390 -0.1455 0.9886
vn -0.6301 0.7312 0.2613
vn 0.7029 0.6063 0.3720
vn -0.7546 -0.6063 0.2510
vn 0.5784 -0.7312 0.3616
vn 0.0827 0.0000 -0.9966
# 9 vertex normals

o Fastener1
g Fastener1
usemtl wire_255255000
s 1
f 10//10 11//11 12//12 13//13 
s 2
f 14//14 13//13 12//12 15//15 
s 4
f 16//16 10//10 13//13 14//14 
s 8
f 11//11 17//17 15//15 12//12 
s 16
f 10//10 16//16 17//17 11//11 
s 32
f 18//18 16//16 14//14 
s 64
f 18//18 14//14 15//15 
s 128
f 18//18 15//15 17//17 
s 256
f 18//18 17//17 16//16 
# 5 polygons - 4 triangles

#
# object Fastener2
#

v  -192.9285 -10.6933 205.0832
v  -192.9259 -10.6929 205.0846
v  -192.9262 -10.6899 205.0844
v  -192.9288 -10.6903 205.0830
v  -192.9445 -10.6788 205.0798
v  -192.9187 -10.6746 205.0945
v  -192.9409 -10.7085 205.0818
v  -192.9151 -10.7043 205.0965
v  -192.9224 -10.6916 205.0751
# 9 vertices

vn -0.3867 0.1511 0.9097
vn -0.6169 0.1136 0.7788
vn -0.5843 -0.1511 0.7974
vn -0.3542 -0.1136 0.9283
vn -0.8144 0.5709 -0.1037
vn 0.3417 0.7592 0.5540
vn -0.6508 -0.7592 -0.0106
vn 0.5053 -0.5709 0.6471
vn 0.4944 -0.0000 -0.8692
# 9 vertex normals

o Fastener2
g Fastener2
usemtl wire_255255000
s 1
f 19//19 20//20 21//21 22//22 
s 2
f 23//23 22//22 21//21 24//24 
s 4
f 25//25 19//19 22//22 23//23 
s 8
f 20//20 26//26 24//24 21//21 
s 16
f 19//19 25//25 26//26 20//20 
s 32
f 27//27 25//25 23//23 
s 64
f 27//27 23//23 24//24 
s 128
f 27//27 24//24 26//26 
s 256
f 27//27 26//26 25//25 
# 5 polygons - 4 triangles

#
# object Fastener3
#

v  -207.1575 -13.0092 196.9837
v  -207.1570 -13.0095 196.9867
v  -207.1569 -13.0065 196.9870
v  -207.1575 -13.0062 196.9840
v  -207.1645 -12.9915 196.9730
v  -207.1592 -12.9944 197.0024
v  -207.1651 -13.0213 196.9701
v  -207.1597 -13.0243 196.9995
v  -207.1474 -13.0079 196.9836
# 9 vertices

vn -0.9400 0.1200 0.3195
vn -0.9876 0.1461 0.0577
vn -0.9923 -0.1200 0.0320
vn -0.9446 -0.1461 0.2938
vn -0.4154 0.7341 -0.5372
vn -0.1761 0.6029 0.7782
vn -0.4389 -0.6029 -0.6663
vn -0.1996 -0.7341 0.6491
vn 0.9839 0.0000 -0.1790
# 9 vertex normals

o Fastener3
g Fastener3
usemtl wire_255255000
s 1
f 28//28 29//29 30//30 31//31 
s 2
f 32//32 31//31 30//30 33//33 
s 4
f 34//34 28//28 31//31 32//32 
s 8
f 29//29 35//35 33//33 30//30 
s 16
f 28//28 34//34 35//35 29//29 
s 32
f 36//36 34//34 32//32 
s 64
f 36//36 32//32 33//33 
s 128
f 36//36 33//33 35//35 
s 256
f 36//36 35//35 34//34 
# 5 polygons - 4 triangles

#
# object Fastener4
#

v  -210.3678 -11.2490 179.3338
v  -210.3676 -11.2493 179.3368
v  -210.3676 -11.2463 179.3371
v  -210.3678 -11.2460 179.3341
v  -210.3733 -11.2312 179.3223
v  -210.3719 -11.2342 179.3521
v  -210.3734 -11.2611 179.3193
v  -210.3721 -11.2640 179.3492
v  -210.3577 -11.2476 179.3350
# 9 vertices

vn -0.9742 0.1200 0.1913
vn -0.9865 0.1461 -0.0744
vn -0.9877 -0.1200 -0.1005
vn -0.9754 -0.1461 0.1652
vn -0.3401 0.7341 -0.5877
vn -0.2783 0.6028 0.7478
vn -0.3462 -0.6028 -0.7189
vn -0.2844 -0.7341 0.6166
vn 0.9989 0.0000 -0.0462
# 9 vertex normals

o Fastener4
g Fastener4
usemtl wire_255255000
s 1
f 37//37 38//38 39//39 40//40 
s 2
f 41//41 40//40 39//39 42//42 
s 4
f 43//43 37//37 40//40 41//41 
s 8
f 38//38 44//44 42//42 39//39 
s 16
f 37//37 43//43 44//44 38//38 
s 32
f 45//45 43//43 41//41 
s 64
f 45//45 41//41 42//42 
s 128
f 45//45 42//42 44//44 
s 256
f 45//45 44//44 43//43 
# 5 polygons - 4 triangles

#
# object Fastener5
#

v  -221.2756 11.9229 -56.3562
v  -221.2760 11.9227 -56.3533
v  -221.2760 11.9257 -56.3531
v  -221.2756 11.9259 -56.3561
v  -221.2791 11.9401 -56.3693
v  -221.2826 11.9384 -56.3395
v  -221.2789 11.9102 -56.3710
v  -221.2824 11.9085 -56.3412
v  -221.2659 11.9243 -56.3535
# 9 vertices

vn -0.9918 0.1257 0.0243
vn -0.9603 0.1412 -0.2407
vn -0.9585 -0.1257 -0.2560
vn -0.9899 -0.1412 0.0090
vn -0.2358 0.7094 -0.6642
vn -0.3941 0.6317 0.6675
vn -0.2267 -0.6317 -0.7413
vn -0.3849 -0.7094 0.5905
vn 0.9930 0.0000 0.1180
# 9 vertex normals

o Fastener5
g Fastener5
usemtl wire_255255000
s 1
f 46//46 47//47 48//48 49//49 
s 2
f 50//50 49//49 48//48 51//51 
s 4
f 52//52 46//46 49//49 50//50 
s 8
f 47//47 53//53 51//51 48//48 
s 16
f 46//46 52//52 53//53 47//47 
s 32
f 54//54 52//52 50//50 
s 64
f 54//54 50//50 51//51 
s 128
f 54//54 51//51 53//53 
s 256
f 54//54 53//53 52//52 
# 5 polygons - 4 triangles

#
# object Fastener6
#

v  -206.3950 19.2238 -181.5973
v  -206.3963 19.2238 -181.5946
v  -206.3963 19.2268 -181.5946
v  -206.3950 19.2268 -181.5973
v  -206.3936 19.2403 -181.6116
v  -206.4067 19.2403 -181.5847
v  -206.3936 19.2103 -181.6116
v  -206.4067 19.2103 -181.5847
v  -206.3867 19.2253 -181.5916
# 9 vertices

vn -0.9411 0.1337 -0.3105
vn -0.8239 0.1337 -0.5508
vn -0.8239 -0.1337 -0.5508
vn -0.9411 -0.1337 -0.3105
vn 0.0137 0.6717 -0.7407
vn -0.5755 0.6717 0.4666
vn 0.0137 -0.6717 -0.7407
vn -0.5755 -0.6717 0.4666
vn 0.8987 0.0000 0.4386
# 9 vertex normals

o Fastener6
g Fastener6
usemtl wire_255255000
s 1
f 55//55 56//56 57//57 58//58 
s 2
f 59//59 58//58 57//57 60//60 
s 4
f 61//61 55//55 58//58 59//59 
s 8
f 56//56 62//62 60//60 57//57 
s 16
f 55//55 61//61 62//62 56//56 
s 32
f 63//63 61//61 59//59 
s 64
f 63//63 59//59 60//60 
s 128
f 63//63 60//60 62//62 
s 256
f 63//63 62//62 61//61 
# 5 polygons - 4 triangles

#
# object Fastener7
#

v  -198.2742 19.2236 -198.2315
v  -198.2769 19.2239 -198.2303
v  -198.2767 19.2269 -198.2304
v  -198.2739 19.2266 -198.2316
v  -198.2624 19.2387 -198.2421
v  -198.2897 19.2417 -198.2302
v  -198.2651 19.2089 -198.2409
v  -198.2925 19.2119 -198.2290
v  -198.2714 19.2253 -198.2218
# 9 vertices

vn -0.5020 0.1464 -0.8524
vn -0.2582 0.1196 -0.9587
vn -0.2827 -0.1464 -0.9480
vn -0.5265 -0.1196 -0.8417
vn 0.5493 0.6012 -0.5804
vn -0.6760 0.7354 -0.0463
vn 0.4262 -0.7354 -0.5267
vn -0.7991 -0.6012 0.0073
vn 0.3995 0.0000 0.9167
# 9 vertex normals

o Fastener7
g Fastener7
usemtl wire_255255000
s 1
f 64//64 65//65 66//66 67//67 
s 2
f 68//68 67//67 66//66 69//69 
s 4
f 70//70 64//64 67//67 68//68 
s 8
f 65//65 71//71 69//69 66//66 
s 16
f 64//64 70//70 71//71 65//65 
s 32
f 72//72 70//70 68//68 
s 64
f 72//72 68//68 69//69 
s 128
f 72//72 69//69 71//71 
s 256
f 72//72 71//71 70//70 
# 5 polygons - 4 triangles

#
# object Fastener8
#

v  -180.8061 17.3102 -205.8428
v  -180.8091 17.3106 -205.8430
v  -180.8087 17.3135 -205.8429
v  -180.8057 17.3131 -205.8428
v  -180.7902 17.3247 -205.8468
v  -180.8199 17.3287 -205.8487
v  -180.7942 17.2950 -205.8470
v  -180.8239 17.2990 -205.8490
v  -180.8080 17.3118 -205.8329
# 9 vertices

vn -0.0505 0.1501 -0.9874
vn 0.2140 0.1149 -0.9701
vn 0.1788 -0.1501 -0.9724
vn -0.0856 -0.1149 -0.9897
vn 0.7732 0.5772 -0.2626
vn -0.5555 0.7544 -0.3496
vn 0.5964 -0.7544 -0.2742
vn -0.7324 -0.5772 -0.3612
vn -0.0654 0.0000 0.9979
# 9 vertex normals

o Fastener8
g Fastener8
usemtl wire_255255000
s 1
f 73//73 74//74 75//75 76//76 
s 2
f 77//77 76//76 75//75 78//78 
s 4
f 79//79 73//73 76//76 77//77 
s 8
f 74//74 80//80 78//78 75//75 
s 16
f 73//73 79//79 80//80 74//74 
s 32
f 81//81 79//79 77//77 
s 64
f 81//81 77//77 78//78 
s 128
f 81//81 78//78 80//80 
s 256
f 81//81 80//80 79//79 
# 5 polygons - 4 triangles

#
# object Fastener9
#

v  0.0015 -6.8015 -194.0011
v  -0.0015 -6.8015 -194.0011
v  -0.0015 -6.7985 -194.0011
v  0.0015 -6.7985 -194.0011
v  0.0149 -6.7850 -194.0064
v  -0.0151 -6.7850 -194.0058
v  0.0149 -6.8150 -194.0064
v  -0.0151 -6.8150 -194.0058
v  0.0003 -6.8000 -193.9911
# 9 vertices

vn -0.1548 0.1337 -0.9789
vn 0.1126 0.1337 -0.9846
vn 0.1126 -0.1337 -0.9846
vn -0.1548 -0.1337 -0.9789
vn 0.6648 0.6717 -0.3269
vn -0.6782 0.6717 -0.2981
vn 0.6648 -0.6717 -0.3269
vn -0.6782 -0.6717 -0.2981
vn 0.0215 0.0000 0.9998
# 9 vertex normals

o Fastener9
g Fastener9
usemtl wire_255255000
s 1
f 82//82 83//83 84//84 85//85 
s 2
f 86//86 85//85 84//84 87//87 
s 4
f 88//88 82//82 85//85 86//86 
s 8
f 83//83 89//89 87//87 84//84 
s 16
f 82//82 88//88 89//89 83//83 
s 32
f 90//90 88//88 86//86 
s 64
f 90//90 86//86 87//87 
s 128
f 90//90 87//87 89//89 
s 256
f 90//90 89//89 88//88 
# 5 polygons - 4 triangles

#
# object Fastener10
#

v  90.4060 -6.8014 -195.9443
v  90.4030 -6.8014 -195.9439
v  90.4030 -6.7984 -195.9439
v  90.4060 -6.7984 -195.9443
v  90.4189 -6.7849 -195.9507
v  90.3891 -6.7849 -195.9474
v  90.4189 -6.8149 -195.9507
v  90.3891 -6.8149 -195.9474
v  90.4056 -6.7999 -195.9342
# 9 vertices

vn -0.2397 0.1337 -0.9616
vn 0.0260 0.1337 -0.9907
vn 0.0260 -0.1337 -0.9907
vn -0.2397 -0.1337 -0.9616
vn 0.6337 0.6717 -0.3838
vn -0.7017 0.6717 -0.2376
vn 0.6337 -0.6717 -0.3838
vn -0.7017 -0.6717 -0.2376
vn 0.1088 0.0000 0.9941
# 9 vertex normals

o Fastener10
g Fastener10
usemtl wire_255255000
s 1
f 91//91 92//92 93//93 94//94 
s 2
f 95//95 94//94 93//93 96//96 
s 4
f 97//97 91//91 94//94 95//95 
s 8
f 92//92 98//98 96//96 93//93 
s 16
f 91//91 97//97 98//98 92//92 
s 32
f 99//99 97//97 95//95 
s 64
f 99//99 95//95 96//96 
s 128
f 99//99 96//96 98//98 
s 256
f 99//99 98//98 97//97 
# 5 polygons - 4 triangles

#
# object Fastener11
#

v  180.8163 -6.8014 -205.8402
v  180.8136 -6.8014 -205.8414
v  180.8136 -6.7984 -205.8414
v  180.8163 -6.7984 -205.8402
v  180.8307 -6.7849 -205.8394
v  180.8032 -6.7849 -205.8514
v  180.8307 -6.8149 -205.8394
v  180.8032 -6.8149 -205.8514
v  180.8109 -6.7999 -205.8316
# 9 vertices

vn 0.2709 0.1336 -0.9533
vn 0.5158 0.1336 -0.8462
vn 0.5158 -0.1336 -0.8462
vn 0.2709 -0.1336 -0.9533
vn 0.7406 0.6717 -0.0173
vn -0.4902 0.6717 -0.5554
vn 0.7406 -0.6717 -0.0173
vn -0.4902 -0.6717 -0.5554
vn -0.4006 0.0000 0.9163
# 9 vertex normals

o Fastener11
g Fastener11
usemtl wire_255255000
s 1
f 100//100 101//101 102//102 103//103 
s 2
f 104//104 103//103 102//102 105//105 
s 4
f 106//106 100//100 103//103 104//104 
s 8
f 101//101 107//107 105//105 102//102 
s 16
f 100//100 106//106 107//107 101//101 
s 32
f 108//108 106//106 104//104 
s 64
f 108//108 104//104 105//105 
s 128
f 108//108 105//105 107//107 
s 256
f 108//108 107//107 106//106 
# 5 polygons - 4 triangles

#
# object Fastener12
#

v  198.2609 -6.8014 -198.2098
v  198.2596 -6.8014 -198.2125
v  198.2596 -6.7983 -198.2125
v  198.2609 -6.7983 -198.2098
v  198.2711 -6.7849 -198.1997
v  198.2583 -6.7849 -198.2268
v  198.2711 -6.8148 -198.1997
v  198.2583 -6.8148 -198.2268
v  198.2512 -6.7998 -198.2069
# 9 vertices

vn 0.8307 0.1337 -0.5404
vn 0.9449 0.1337 -0.2987
vn 0.9449 -0.1337 -0.2987
vn 0.8307 -0.1337 -0.5404
vn 0.5696 0.6717 0.4737
vn -0.0044 0.6717 -0.7408
vn 0.5696 -0.6717 0.4737
vn -0.0044 -0.6717 -0.7408
vn -0.9041 -0.0000 0.4273
# 9 vertex normals

o Fastener12
g Fastener12
usemtl wire_255255000
s 1
f 109//109 110//110 111//111 112//112 
s 2
f 113//113 112//112 111//111 114//114 
s 4
f 115//115 109//109 112//112 113//113 
s 8
f 110//110 116//116 114//114 111//111 
s 16
f 109//109 115//115 116//116 110//110 
s 32
f 117//117 115//115 113//113 
s 64
f 117//117 113//113 114//114 
s 128
f 117//117 114//114 116//116 
s 256
f 117//117 116//116 115//115 
# 5 polygons - 4 triangles

#
# object Fastener13
#

v  206.3398 -6.8013 -181.1110
v  206.3398 -6.8013 -181.1140
v  206.3398 -6.7983 -181.1140
v  206.3398 -6.7983 -181.1110
v  206.3449 -6.7848 -181.0975
v  206.3448 -6.7848 -181.1275
v  206.3449 -6.8148 -181.0975
v  206.3448 -6.8148 -181.1275
v  206.3298 -6.7998 -181.1124
# 9 vertices

vn 0.9814 0.1337 -0.1379
vn 0.9825 0.1337 0.1294
vn 0.9825 -0.1337 0.1294
vn 0.9814 -0.1337 -0.1379
vn 0.3154 0.6717 0.6703
vn 0.3097 0.6717 -0.6730
vn 0.3154 -0.6717 0.6703
vn 0.3097 -0.6717 -0.6730
vn -1.0000 -0.0000 0.0043
# 9 vertex normals

o Fastener13
g Fastener13
usemtl wire_255255000
s 1
f 118//118 119//119 120//120 121//121 
s 2
f 122//122 121//121 120//120 123//123 
s 4
f 124//124 118//118 121//121 122//122 
s 8
f 119//119 125//125 123//123 120//120 
s 16
f 118//118 124//124 125//125 119//119 
s 32
f 126//126 124//124 122//122 
s 64
f 126//126 122//122 123//123 
s 128
f 126//126 123//123 125//125 
s 256
f 126//126 125//125 124//124 
# 5 polygons - 4 triangles

#
# object Fastener14
#

v  207.9053 -6.8012 183.2583
v  207.9062 -6.8012 183.2554
v  207.9062 -6.7982 183.2554
v  207.9053 -6.7982 183.2583
v  207.9063 -6.7847 183.2727
v  207.9147 -6.7847 183.2439
v  207.9063 -6.8147 183.2727
v  207.9147 -6.8147 183.2439
v  207.8961 -6.7997 183.2541
# 9 vertices

vn 0.9801 0.1337 0.1466
vn 0.9052 0.1337 0.4033
vn 0.9052 -0.1337 0.4033
vn 0.9801 -0.1337 0.1466
vn 0.1120 0.6717 0.7323
vn 0.4881 0.6717 -0.5573
vn 0.1120 -0.6717 0.7323
vn 0.4881 -0.6717 -0.5573
vn -0.9600 -0.0000 -0.2800
# 9 vertex normals

o Fastener14
g Fastener14
usemtl wire_255255000
s 1
f 127//127 128//128 129//129 130//130 
s 2
f 131//131 130//130 129//129 132//132 
s 4
f 133//133 127//127 130//130 131//131 
s 8
f 128//128 134//134 132//132 129//129 
s 16
f 127//127 133//133 134//134 128//128 
s 32
f 135//135 133//133 131//131 
s 64
f 135//135 131//131 132//132 
s 128
f 135//135 132//132 134//134 
s 256
f 135//135 134//134 133//133 
# 5 polygons - 4 triangles

#
# object Fastener15
#

v  203.8206 -6.8012 197.2506
v  203.8231 -6.8012 197.2490
v  203.8231 -6.7982 197.2490
v  203.8206 -6.7982 197.2506
v  203.8117 -6.7847 197.2619
v  203.8372 -6.7847 197.2462
v  203.8117 -6.8147 197.2619
v  203.8372 -6.8147 197.2462
v  203.8166 -6.7997 197.2413
# 9 vertices

vn 0.6287 0.1337 0.7661
vn 0.4010 0.1337 0.9063
vn 0.4010 -0.1337 0.9063
vn 0.6287 -0.1337 0.7661
vn -0.4081 0.6717 0.6183
vn 0.7358 0.6717 -0.0860
vn -0.4081 -0.6717 0.6183
vn 0.7358 -0.6717 -0.0860
vn -0.5243 -0.0000 -0.8515
# 9 vertex normals

o Fastener15
g Fastener15
usemtl wire_255255000
s 1
f 136//136 137//137 138//138 139//139 
s 2
f 140//140 139//139 138//138 141//141 
s 4
f 142//142 136//136 139//139 140//140 
s 8
f 137//137 143//143 141//141 138//138 
s 16
f 136//136 142//142 143//143 137//137 
s 32
f 144//144 142//142 140//140 
s 64
f 144//144 140//140 141//141 
s 128
f 144//144 141//141 143//143 
s 256
f 144//144 143//143 142//142 
# 5 polygons - 4 triangles

#
# object Fastener16
#

v  191.1367 -6.8012 205.0574
v  191.1398 -6.8012 205.0574
v  191.1398 -6.7982 205.0574
v  191.1367 -6.7982 205.0574
v  191.1232 -6.7847 205.0622
v  191.1532 -6.7847 205.0625
v  191.1232 -6.8147 205.0622
v  191.1532 -6.8147 205.0625
v  191.1384 -6.7997 205.0474
# 9 vertices

vn 0.1225 0.1337 0.9834
vn -0.1448 0.1337 0.9804
vn -0.1448 -0.1337 0.9804
vn 0.1225 -0.1337 0.9834
vn -0.6752 0.6717 0.3049
vn 0.6681 0.6717 0.3202
vn -0.6752 -0.6717 0.3049
vn 0.6681 -0.6717 0.3202
vn 0.0114 -0.0000 -0.9999
# 9 vertex normals

o Fastener16
g Fastener16
usemtl wire_255255000
s 1
f 145//145 146//146 147//147 148//148 
s 2
f 149//149 148//148 147//147 150//150 
s 4
f 151//151 145//145 148//148 149//149 
s 8
f 146//146 152//152 150//150 147//147 
s 16
f 145//145 151//151 152//152 146//146 
s 32
f 153//153 151//151 149//149 
s 64
f 153//153 149//149 150//150 
s 128
f 153//153 150//150 152//152 
s 256
f 153//153 152//152 151//151 
# 5 polygons - 4 triangles

#
# object Fastener17
#

v  103.1534 -6.8015 204.0587
v  103.1564 -6.8010 204.0583
v  103.1559 -6.7980 204.0584
v  103.1529 -6.7985 204.0587
v  103.1379 -6.7876 204.0653
v  103.1672 -6.7823 204.0622
v  103.1431 -6.8172 204.0648
v  103.1725 -6.8119 204.0617
v  103.1536 -6.7998 204.0486
# 9 vertices

vn 0.2103 0.1552 0.9653
vn -0.0515 0.1080 0.9928
vn -0.0045 -0.1552 0.9879
vn 0.2572 -0.1080 0.9603
vn -0.7426 0.5427 0.3925
vn 0.5724 0.7796 0.2540
vn -0.5069 -0.7796 0.3677
vn 0.8081 -0.5427 0.2292
vn -0.1047 -0.0000 -0.9945
# 9 vertex normals

o Fastener17
g Fastener17
usemtl wire_255255000
s 1
f 154//154 155//155 156//156 157//157 
s 2
f 158//158 157//157 156//156 159//159 
s 4
f 160//160 154//154 157//157 158//158 
s 8
f 155//155 161//161 159//159 156//156 
s 16
f 154//154 160//160 161//161 155//155 
s 32
f 162//162 160//160 158//158 
s 64
f 162//162 158//158 159//159 
s 128
f 162//162 159//159 161//161 
s 256
f 162//162 161//161 160//160 
# 5 polygons - 4 triangles

#
# object Fastener18
#

v  -0.5804 -25.4940 214.9767
v  -0.5804 -25.4970 214.9767
v  -0.5804 -25.4970 214.9737
v  -0.5804 -25.4940 214.9737
v  -0.5754 -25.4805 214.9602
v  -0.5754 -25.5105 214.9602
v  -0.5754 -25.4805 214.9902
v  -0.5754 -25.5105 214.9902
v  -0.5904 -25.4955 214.9752
# 9 vertices

vn 0.9820 -0.1337 -0.1337
vn 0.9820 0.1337 -0.1337
vn 0.9820 0.1337 0.1337
vn 0.9820 -0.1337 0.1337
vn 0.3126 0.6717 -0.6717
vn 0.3126 -0.6717 -0.6717
vn 0.3126 0.6717 0.6717
vn 0.3126 -0.6717 0.6717
vn -1.0000 0.0000 0.0000
# 9 vertex normals

o Fastener18
g Fastener18
usemtl wire_255255000
s 1
f 163//163 164//164 165//165 166//166 
s 2
f 167//167 166//166 165//165 168//168 
s 4
f 169//169 163//163 166//166 167//167 
s 8
f 164//164 170//170 168//168 165//165 
s 16
f 163//163 169//169 170//170 164//164 
s 32
f 171//171 169//169 167//167 
s 64
f 171//171 167//167 168//168 
s 128
f 171//171 168//168 170//170 
s 256
f 171//171 170//170 169//169 
# 5 polygons - 4 triangles

#
# object polySurface905__WaveRock02
#

v  -206.3869 19.2255 -181.5915
v  -190.2040 13.6243 -188.1036
v  -198.2716 19.2255 -198.2217
v  -180.8083 17.3120 -205.8329
v  0.0999 -6.7999 -175.1768
v  -0.0002 -6.7999 -193.9912
v  90.4051 -6.7999 -195.9342
v  -205.2455 6.6296 -57.0261
v  -221.2660 11.9244 -56.3534
v  -210.3577 -11.2476 179.3351
v  -188.4388 -12.3688 186.3080
v  -207.1472 -13.0078 196.9837
v  -192.9224 -10.6915 205.0751
v  -103.4009 -21.1981 191.3611
v  -101.1865 -19.2865 212.6883
v  0.1977 -25.4956 190.4672
v  -0.5908 -25.4956 214.9750
v  103.1531 -6.7999 204.0484
v  100.1733 -6.7999 181.1392
v  98.4655 -3.1195 -173.5923
v  180.8104 -6.7999 -205.8317
v  187.9712 -5.2045 183.3819
v  191.1377 -6.7999 205.0473
v  203.8159 -6.7999 197.2412
v  207.8955 -6.7999 183.2540
v  183.7804 -6.9811 -179.0392
v  206.3292 -6.7999 -181.1125
v  198.2506 -6.7999 -198.2069
# 28 vertices

vn 0.0930 0.9936 0.0640
vn 0.1267 0.9890 0.0763
vn 0.0931 0.9936 0.0641
vn 0.0946 0.9932 0.0671
vn -0.0214 0.9987 0.0458
vn 0.0946 0.9933 0.0671
vn 0.0000 1.0000 -0.0031
vn 0.1158 0.9906 0.0731
vn 0.0870 0.9927 0.0840
vn 0.1099 0.9920 0.0626
vn 0.0473 0.9983 -0.0351
vn 0.0611 0.9962 0.0626
vn 0.0763 0.9958 0.0504
vn 0.0640 0.9973 0.0366
vn -0.0568 0.9978 0.0336
vn -0.0640 0.9979 0.0031
vn -0.0953 0.9954 0.0031
vn -0.0580 0.9981 0.0183
vn -0.0519 0.9986 0.0122
vn -0.0061 1.0000 -0.0000
vn 0.0183 0.9998 0.0015
vn 0.0015 1.0000 -0.0015
vn -0.0504 0.9987 0.0061
vn 0.0152 0.9999 -0.0000
vn -0.0549 0.9985 0.0061
vn -0.0611 0.9950 0.0795
# 26 vertex normals

vt 37.8171 -1.5824 0.0000
vt 37.8329 -1.5795 0.0000
vt 37.8269 -1.5746 0.0000
vt 37.8425 -1.5708 0.0000
vt 37.9675 -1.5872 0.0000
vt 37.9696 -1.5747 0.0000
vt 38.0320 -1.5718 0.0000
vt 37.8228 -1.6423 0.0000
vt 37.8174 -1.6435 0.0000
vt 37.8153 -1.7523 0.0000
vt 37.8284 -1.7528 0.0000
vt 37.8224 -1.7589 0.0000
vt 37.8301 -1.7629 0.0000
vt 37.8934 -1.7569 0.0000
vt 37.8949 -1.7673 0.0000
vt 37.9675 -1.7468 0.0000
vt 37.9676 -1.7565 0.0000
vt 38.0428 -1.7531 0.0000
vt 38.0424 -1.7444 0.0000
vt 38.0359 -1.5841 0.0000
vt 38.0913 -1.5661 0.0000
vt 38.1153 -1.7494 0.0000
vt 38.1093 -1.7573 0.0000
vt 38.1249 -1.7597 0.0000
vt 38.1280 -1.7556 0.0000
vt 38.0956 -1.5819 0.0000
vt 38.1070 -1.5838 0.0000
vt 38.1040 -1.5711 0.0000
# 28 texture coords

o polySurface905__WaveRock02
g polySurface905__WaveRock02
usemtl WaveRock02
s 1
f 172/1/172 173/2/173 174/3/174 
f 174/3/174 173/2/173 175/4/175 
f 175/4/175 173/2/173 176/5/176 
f 175/4/175 176/5/176 177/6/177 
f 177/6/177 176/5/176 178/7/178 
f 176/5/176 173/2/173 179/8/179 
f 179/8/179 173/2/173 172/1/172 
f 179/8/179 172/1/172 180/9/172 
f 179/8/179 180/9/172 181/10/180 
f 179/8/179 181/10/180 182/11/181 
f 182/11/181 181/10/180 183/12/182 
f 184/13/183 182/11/181 183/12/182 
f 185/14/184 179/8/179 182/11/181 
f 185/14/184 182/11/181 184/13/183 
f 176/5/176 179/8/179 185/14/184 
f 186/15/185 185/14/184 184/13/183 
f 187/16/186 185/14/184 186/15/185 
f 187/16/186 186/15/185 188/17/187 
f 187/16/186 176/5/176 185/14/184 
f 187/16/186 188/17/187 189/18/188 
f 190/19/189 187/16/186 189/18/188 
f 190/19/189 176/5/176 187/16/186 
f 191/20/190 176/5/176 190/19/189 
f 178/7/178 176/5/176 191/20/190 
f 178/7/178 191/20/190 192/21/191 
f 191/20/190 190/19/189 193/22/192 
f 190/19/189 189/18/188 193/22/192 
f 193/22/192 189/18/188 194/23/193 
f 193/22/192 194/23/193 195/24/193 
f 193/22/192 195/24/193 196/25/194 
f 191/20/190 197/26/195 192/21/191 
f 191/20/190 193/22/192 197/26/195 
f 197/26/195 193/22/192 196/25/194 
f 197/26/195 196/25/194 198/27/196 
f 192/21/191 197/26/195 199/28/197 
f 197/26/195 198/27/196 199/28/197 
# 0 polygons - 36 triangles

