# 3ds Max Wavefront OBJ Exporter v0.97b - (c)2007 guruware
# File Created: 23.11.2020 21:52:44

mtllib Ground2DCover.mtl

#
# object LakeWorldHomeGround2DCover
#

v  0.0100 0.0015 0.0015
v  0.0100 -0.0015 0.0015
v  0.0100 -0.0015 -0.0015
v  0.0100 0.0015 -0.0015
v  0.0150 0.0150 -0.0150
v  0.0150 -0.0150 -0.0150
v  0.0150 0.0150 0.0150
v  0.0150 -0.0150 0.0150
v  0.0000 0.0000 -0.0000
# 9 vertices

vn 0.9820 -0.1337 -0.1337
vn 0.9820 0.1337 -0.1337
vn 0.9820 0.1337 0.1337
vn 0.9820 -0.1337 0.1337
vn 0.3126 0.6717 -0.6717
vn 0.3126 -0.6717 -0.6717
vn 0.3126 0.6717 0.6717
vn 0.3126 -0.6717 0.6717
vn -1.0000 0.0000 -0.0000
# 9 vertex normals

o LakeWorldHomeGround2DCover
g LakeWorldHomeGround2DCover
usemtl wire_255255000
s 1
f 1//1 2//2 3//3 4//4 
s 2
f 5//5 4//4 3//3 6//6 
s 4
f 7//7 1//1 4//4 5//5 
s 8
f 2//2 8//8 6//6 3//3 
s 16
f 1//1 7//7 8//8 2//2 
s 32
f 9//9 7//7 5//5 
s 64
f 9//9 5//5 6//6 
s 128
f 9//9 6//6 8//8 
s 256
f 9//9 8//8 7//7 
# 5 polygons - 4 triangles

#
# object shape0__Dot2D_rep
#

v  2500.0000 4248.0005 -2300.0000
v  2500.0000 4248.0005 -1100.0000
v  2450.0000 4248.0005 -2250.0000
v  2450.0000 4248.0005 -1150.0000
v  1950.0000 4248.0005 -1400.0000
v  -4400.0000 4248.0005 -1100.0000
v  -4350.0000 4248.0005 -1150.0000
v  -4400.0000 4248.0005 -2300.0000
v  1750.0000 4248.0005 -1400.0000
v  -4350.0000 4248.0005 -2250.0000
v  1800.0000 4248.0005 -2300.0000
v  1750.0000 4248.0005 -2250.0000
v  1800.0000 4248.0005 -1450.0000
v  1900.0000 4248.0005 -1450.0000
v  1950.0000 4248.0005 -2250.0000
v  1900.0000 4248.0005 -2300.0000
# 16 vertices

vn 0.0000 -1.0000 -0.0000
# 1 vertex normals

vt 0.0000 0.7501 0.0000
vt 0.0000 0.0005 0.0000
vt 0.0313 0.7190 0.0000
vt 0.0313 0.0317 0.0000
vt 0.3438 0.1875 0.0000
vt 4.3125 0.0005 0.0000
vt 4.2813 0.0313 0.0000
vt 4.3125 0.7500 0.0000
vt 0.4688 0.1875 0.0000
vt 4.2813 0.7188 0.0000
vt 0.4375 0.7500 0.0000
vt 0.4688 0.7188 0.0000
vt 0.4375 0.2188 0.0000
vt 0.3750 0.2188 0.0000
vt 0.3438 0.7188 0.0000
vt 0.3750 0.7500 0.0000
# 16 texture coords

o shape0__Dot2D_rep
g shape0__Dot2D_rep
usemtl Dot2D_rep
s 1
f 10/1/10 11/2/10 12/3/10 
f 11/2/10 13/4/10 12/3/10 
f 13/4/10 14/5/10 12/3/10 
f 11/2/10 15/6/10 13/4/10 
f 15/6/10 16/7/10 13/4/10 
f 15/6/10 17/8/10 16/7/10 
f 16/7/10 18/9/10 13/4/10 
f 17/8/10 19/10/10 16/7/10 
f 18/9/10 16/7/10 19/10/10 
f 17/8/10 20/11/10 19/10/10 
f 21/12/10 18/9/10 19/10/10 
f 20/11/10 21/12/10 19/10/10 
f 20/11/10 22/13/10 21/12/10 
f 22/13/10 18/9/10 21/12/10 
f 22/13/10 23/14/10 18/9/10 
f 18/9/10 14/5/10 13/4/10 
f 23/14/10 14/5/10 18/9/10 
f 24/15/10 14/5/10 23/14/10 
f 12/3/10 14/5/10 24/15/10 
f 25/16/10 24/15/10 23/14/10 
f 10/1/10 12/3/10 24/15/10 
f 25/16/10 10/1/10 24/15/10 
# 0 polygons - 22 triangles

