# 3ds Max Wavefront OBJ Exporter v0.97b - (c)2007 guruware
# File Created: 23.11.2020 21:53:33

mtllib Pillar000.mtl

#
# object LakeWorldHomePillar000
#

v  0.0100 0.0015 0.0015
v  0.0100 -0.0015 0.0015
v  0.0100 -0.0015 -0.0015
v  0.0100 0.0015 -0.0015
v  0.0150 0.0150 -0.0150
v  0.0150 -0.0150 -0.0150
v  0.0150 0.0150 0.0150
v  0.0150 -0.0150 0.0150
v  0.0000 0.0000 -0.0000
# 9 vertices

vn 0.9820 -0.1337 -0.1337
vn 0.9820 0.1337 -0.1337
vn 0.9820 0.1337 0.1337
vn 0.9820 -0.1337 0.1337
vn 0.3126 0.6717 -0.6717
vn 0.3126 -0.6717 -0.6717
vn 0.3126 0.6717 0.6717
vn 0.3126 -0.6717 0.6717
vn -1.0000 0.0000 -0.0000
# 9 vertex normals

o LakeWorldHomePillar000
g LakeWorldHomePillar000
usemtl wire_255255000
s 1
f 1//1 2//2 3//3 4//4 
s 2
f 5//5 4//4 3//3 6//6 
s 4
f 7//7 1//1 4//4 5//5 
s 8
f 2//2 8//8 6//6 3//3 
s 16
f 1//1 7//7 8//8 2//2 
s 32
f 9//9 7//7 5//5 
s 64
f 9//9 5//5 6//6 
s 128
f 9//9 6//6 8//8 
s 256
f 9//9 8//8 7//7 
# 5 polygons - 4 triangles

#
# object WaterPoleGlassModel2__Glass01
#

v  304.3383 -98.8854 -550.0000
v  316.0605 -50.0590 -2430.0000
v  316.0605 -50.0590 -550.0000
v  304.3383 -98.8854 -2430.0000
v  285.1223 -145.2770 -550.0000
v  285.1223 -145.2770 -2430.0000
v  258.8857 -188.0913 -550.0000
v  258.8857 -188.0913 -2430.0000
v  226.2744 -226.2743 -550.0000
v  226.2744 -226.2743 -2430.0000
v  188.0915 -258.8856 -550.0000
v  188.0915 -258.8856 -2430.0000
v  145.2771 -285.1222 -550.0000
v  145.2771 -285.1222 -2430.0000
v  98.8856 -304.3383 -550.0000
v  98.8856 -304.3383 -2430.0000
v  50.0591 -316.0605 -550.0000
v  50.0591 -316.0605 -2430.0000
v  0.0001 -320.0002 -550.0000
v  0.0001 -320.0002 -2430.0000
v  -50.0590 -316.0605 -550.0000
v  -50.0590 -316.0605 -2430.0000
v  -98.8854 -304.3383 -550.0000
v  -98.8854 -304.3383 -2430.0000
v  -145.2770 -285.1223 -550.0000
v  -145.2770 -285.1223 -2430.0000
v  -188.0913 -258.8856 -550.0000
v  -188.0913 -258.8856 -2430.0000
v  -226.2742 -226.2743 -550.0000
v  -226.2742 -226.2743 -2430.0000
v  -258.8855 -188.0914 -550.0000
v  -258.8855 -188.0914 -2430.0000
v  -285.1222 -145.2771 -550.0000
v  -285.1222 -145.2771 -2430.0000
v  -304.3382 -98.8855 -550.0000
v  -304.3382 -98.8855 -2430.0000
v  -316.0604 -50.0591 -550.0000
v  -316.0604 -50.0591 -2430.0000
v  -320.0001 -0.0001 -550.0000
v  -320.0001 -0.0001 -2430.0000
v  -316.0604 50.0590 -550.0000
v  -316.0604 50.0590 -2430.0000
v  -304.3382 98.8854 -550.0000
v  -304.3382 98.8854 -2430.0000
v  -285.1222 145.2770 -550.0000
v  -285.1222 145.2770 -2430.0000
v  -258.8856 188.0913 -550.0000
v  -258.8856 188.0913 -2430.0000
v  -226.2743 226.2742 -550.0000
v  -226.2743 226.2742 -2430.0000
v  -188.0914 258.8855 -550.0000
v  -188.0914 258.8855 -2430.0000
v  -145.2770 285.1221 -550.0000
v  -145.2770 285.1221 -2430.0000
v  -98.8855 304.3382 -550.0000
v  -98.8855 304.3382 -2430.0000
v  -50.0591 316.0604 -550.0000
v  -50.0591 316.0604 -2430.0000
v  -0.0000 320.0001 -550.0000
v  -0.0000 320.0001 -2430.0000
v  50.0590 316.0604 -550.0000
v  50.0590 316.0604 -2430.0000
v  98.8854 304.3382 -550.0000
v  98.8854 304.3382 -2430.0000
v  145.2770 285.1222 -550.0000
v  145.2770 285.1222 -2430.0000
v  188.0913 258.8855 -550.0000
v  188.0913 258.8855 -2430.0000
v  226.2742 226.2742 -550.0000
v  226.2742 226.2742 -2430.0000
v  258.8855 188.0913 -550.0000
v  258.8855 188.0913 -2430.0000
v  285.1221 145.2770 -550.0000
v  285.1221 145.2770 -2430.0000
v  304.3381 98.8855 -550.0000
v  304.3381 98.8855 -2430.0000
v  316.0603 50.0590 -550.0000
v  316.0603 50.0590 -2430.0000
v  320.0000 0.0000 -550.0000
v  320.0000 0.0000 -2430.0000
v  -155.6189 -220.8653 -550.0000
v  -155.6189 -220.8653 -50.0000
v  -188.0913 -258.8856 -50.0000
v  155.6191 -220.8652 -50.0000
v  155.6191 -220.8652 -550.0000
v  188.0915 -258.8856 -50.0000
v  -226.2742 -226.2743 -50.0000
v  226.2744 -226.2743 -50.0000
v  -258.8855 -188.0914 -50.0000
v  -285.1222 -145.2771 -50.0000
v  -304.3382 -98.8855 -50.0000
v  -316.0604 -50.0591 -50.0000
v  -320.0001 -0.0001 -50.0000
v  -316.0604 50.0590 -50.0000
v  -304.3382 98.8854 -50.0000
v  -285.1222 145.2770 -50.0000
v  -258.8856 188.0913 -50.0000
v  -226.2743 226.2742 -50.0000
v  -188.0914 258.8855 -50.0000
v  -145.2770 285.1221 -50.0000
v  -98.8855 304.3382 -50.0000
v  -50.0591 316.0604 -50.0000
v  -0.0000 320.0001 -50.0000
v  50.0590 316.0604 -50.0000
v  98.8854 304.3382 -50.0000
v  145.2770 285.1222 -50.0000
v  188.0913 258.8855 -50.0000
v  226.2742 226.2742 -50.0000
v  258.8855 188.0913 -50.0000
v  285.1221 145.2770 -50.0000
v  304.3381 98.8855 -50.0000
v  316.0603 50.0590 -50.0000
v  320.0000 0.0000 -50.0000
v  316.0605 -50.0590 -50.0000
v  304.3383 -98.8854 -50.0000
v  285.1223 -145.2770 -50.0000
v  258.8857 -188.0913 -50.0000
# 117 vertices

vn 0.9512 -0.3087 -0.0000
vn 0.9877 -0.1562 -0.0000
vn 0.8907 -0.4545 -0.0000
vn 0.8091 -0.5877 -0.0000
vn 0.7071 -0.7071 -0.0000
vn 0.5931 -0.8051 -0.0000
vn 0.5877 -0.8091 -0.0000
vn 0.4545 -0.8907 -0.0000
vn 0.3087 -0.9512 -0.0000
vn 0.1562 -0.9877 -0.0000
vn 0.0000 -1.0000 -0.0000
vn -0.1562 -0.9877 -0.0000
vn -0.3087 -0.9512 -0.0000
vn -0.4545 -0.8907 -0.0000
vn -0.5931 -0.8051 -0.0000
vn -0.5877 -0.8091 -0.0000
vn -0.7071 -0.7071 -0.0000
vn -0.8091 -0.5877 -0.0000
vn -0.8907 -0.4545 -0.0000
vn -0.9512 -0.3087 -0.0000
vn -0.9877 -0.1562 -0.0000
vn -1.0000 0.0000 -0.0000
vn -0.9877 0.1562 -0.0000
vn -0.9512 0.3087 -0.0000
vn -0.8907 0.4545 -0.0000
vn -0.8091 0.5877 -0.0000
vn -0.7071 0.7071 -0.0000
vn -0.5877 0.8091 -0.0000
vn -0.4545 0.8907 -0.0000
vn -0.3087 0.9512 -0.0000
vn -0.1562 0.9877 -0.0000
vn 0.0000 1.0000 -0.0000
vn 0.1562 0.9877 -0.0000
vn 0.3087 0.9512 -0.0000
vn 0.4545 0.8907 -0.0000
vn 0.5877 0.8091 -0.0000
vn 0.7071 0.7071 -0.0000
vn 0.8091 0.5877 -0.0000
vn 0.8907 0.4545 -0.0000
vn 0.9512 0.3087 -0.0000
vn 0.9877 0.1562 -0.0000
vn 1.0000 0.0000 -0.0000
vn 0.7607 -0.6492 -0.0000
vn 0.7599 -0.6500 -0.0000
vn -0.7607 -0.6492 -0.0000
vn -0.7599 -0.6500 -0.0000
vn -0.6492 -0.7607 -0.0000
vn 0.6492 -0.7607 -0.0000
# 48 vertex normals

vt 0.3812 0.5005 0.0000
vt 0.3750 0.6913 0.0000
vt 0.3750 0.5005 0.0000
vt 0.3812 0.6913 0.0000
vt 0.3875 0.5005 0.0000
vt 0.3875 0.6913 0.0000
vt 0.3937 0.5005 0.0000
vt 0.3937 0.6913 0.0000
vt 0.4000 0.5005 0.0000
vt 0.4000 0.6913 0.0000
vt 0.4063 0.5005 0.0000
vt 0.4063 0.6913 0.0000
vt 0.4125 0.5005 0.0000
vt 0.4125 0.6913 0.0000
vt 0.4188 0.5005 0.0000
vt 0.4188 0.6913 0.0000
vt 0.4250 0.5005 0.0000
vt 0.4250 0.6913 0.0000
vt 0.4313 0.5005 0.0000
vt 0.4313 0.6913 0.0000
vt 0.4375 0.5005 0.0000
vt 0.4375 0.6913 0.0000
vt 0.4437 0.5005 0.0000
vt 0.4437 0.6913 0.0000
vt 0.4500 0.5005 0.0000
vt 0.4500 0.6913 0.0000
vt 0.4562 0.5005 0.0000
vt 0.4562 0.6913 0.0000
vt 0.4625 0.5005 0.0000
vt 0.4625 0.6913 0.0000
vt 0.4688 0.5005 0.0000
vt 0.4688 0.6913 0.0000
vt 0.4750 0.5005 0.0000
vt 0.4750 0.6913 0.0000
vt 0.4813 0.5005 0.0000
vt 0.4813 0.6913 0.0000
vt 0.4875 0.5005 0.0000
vt 0.4875 0.6913 0.0000
vt 0.4938 0.5005 0.0000
vt 0.4938 0.6913 0.0000
vt 0.5000 0.5005 0.0000
vt 0.5000 0.6913 0.0000
vt 0.5062 0.5005 0.0000
vt 0.5062 0.6913 0.0000
vt 0.5125 0.5005 0.0000
vt 0.5125 0.6913 0.0000
vt 0.5187 0.5005 0.0000
vt 0.5187 0.6913 0.0000
vt 0.5250 0.5005 0.0000
vt 0.5250 0.6913 0.0000
vt 0.5312 0.5005 0.0000
vt 0.5312 0.6913 0.0000
vt 0.5375 0.5005 0.0000
vt 0.5375 0.6913 0.0000
vt 0.5438 0.5005 0.0000
vt 0.5438 0.6913 0.0000
vt 0.5500 0.5005 0.0000
vt 0.5500 0.6913 0.0000
vt 0.5563 0.5005 0.0000
vt 0.5563 0.6913 0.0000
vt 0.5625 0.5005 0.0000
vt 0.5625 0.6913 0.0000
vt 0.5687 0.5005 0.0000
vt 0.5687 0.6913 0.0000
vt 0.5750 0.5005 0.0000
vt 0.5750 0.6913 0.0000
vt 0.5812 0.5005 0.0000
vt 0.5812 0.6913 0.0000
vt 0.5875 0.5005 0.0000
vt 0.5875 0.6913 0.0000
vt 0.5937 0.5005 0.0000
vt 0.5937 0.6913 0.0000
vt 0.6000 0.5005 0.0000
vt 0.6000 0.6913 0.0000
vt 0.6063 0.5005 0.0000
vt 0.6063 0.6913 0.0000
vt 0.6125 0.5005 0.0000
vt 0.6125 0.6913 0.0000
vt 0.6188 0.5005 0.0000
vt 0.6188 0.6913 0.0000
vt 0.6250 0.5005 0.0000
vt 0.6250 0.6913 0.0000
vt 1.0000 1.0000 0.0000
vt 0.0000 1.0000 0.0000
vt 1.0000 0.0000 0.0000
vt 0.0000 0.0000 0.0000
vt 0.4625 0.3125 0.0000
vt 0.4688 0.3125 0.0000
vt 0.4750 0.3125 0.0000
vt 0.4813 0.3125 0.0000
vt 0.4875 0.3125 0.0000
vt 0.4938 0.3125 0.0000
vt 0.5000 0.3125 0.0000
vt 0.5062 0.3125 0.0000
vt 0.5125 0.3125 0.0000
vt 0.5187 0.3125 0.0000
vt 0.5250 0.3125 0.0000
vt 0.5312 0.3125 0.0000
vt 0.5375 0.3125 0.0000
vt 0.5438 0.3125 0.0000
vt 0.5500 0.3125 0.0000
vt 0.5563 0.3125 0.0000
vt 0.5625 0.3125 0.0000
vt 0.5687 0.3125 0.0000
vt 0.5750 0.3125 0.0000
vt 0.5812 0.3125 0.0000
vt 0.5875 0.3125 0.0000
vt 0.5937 0.3125 0.0000
vt 0.6000 0.3125 0.0000
vt 0.6063 0.3125 0.0000
vt 0.6125 0.3125 0.0000
vt 0.6188 0.3125 0.0000
vt 0.6250 0.3125 0.0000
vt 0.3750 0.3125 0.0000
vt 0.3812 0.3125 0.0000
vt 0.3875 0.3125 0.0000
vt 0.3937 0.3125 0.0000
vt 0.4000 0.3125 0.0000
# 118 texture coords

o WaterPoleGlassModel2__Glass01
g WaterPoleGlassModel2__Glass01
usemtl Glass01
s 1
f 10/1/10 11/2/11 12/3/11 
f 13/4/10 11/2/11 10/1/10 
f 14/5/12 13/4/10 10/1/10 
f 15/6/12 13/4/10 14/5/12 
f 16/7/13 15/6/12 14/5/12 
f 17/8/13 15/6/12 16/7/13 
f 18/9/14 17/8/13 16/7/13 
f 19/10/14 17/8/13 18/9/14 
f 20/11/15 19/10/14 18/9/14 
f 21/12/16 19/10/14 20/11/15 
f 22/13/17 21/12/16 20/11/15 
f 23/14/17 21/12/16 22/13/17 
f 24/15/18 23/14/17 22/13/17 
f 25/16/18 23/14/17 24/15/18 
f 26/17/19 25/16/18 24/15/18 
f 27/18/19 25/16/18 26/17/19 
f 28/19/20 27/18/19 26/17/19 
f 29/20/20 27/18/19 28/19/20 
f 30/21/21 29/20/20 28/19/20 
f 31/22/21 29/20/20 30/21/21 
f 32/23/22 31/22/21 30/21/21 
f 33/24/22 31/22/21 32/23/22 
f 34/25/23 33/24/22 32/23/22 
f 35/26/23 33/24/22 34/25/23 
f 36/27/24 35/26/23 34/25/23 
f 37/28/25 35/26/23 36/27/24 
f 37/28/25 36/27/24 38/29/26 
f 37/28/25 38/29/26 39/30/26 
f 38/29/26 40/31/27 39/30/26 
f 39/30/26 40/31/27 41/32/27 
f 40/31/27 42/33/28 41/32/27 
f 41/32/27 42/33/28 43/34/28 
f 42/33/28 44/35/29 43/34/28 
f 43/34/28 44/35/29 45/36/29 
f 44/35/29 46/37/30 45/36/29 
f 45/36/29 46/37/30 47/38/30 
f 46/37/30 48/39/31 47/38/30 
f 47/38/30 48/39/31 49/40/31 
f 48/39/31 50/41/32 49/40/31 
f 49/40/31 50/41/32 51/42/32 
f 50/41/32 52/43/33 51/42/32 
f 51/42/32 52/43/33 53/44/33 
f 52/43/33 54/45/34 53/44/33 
f 53/44/33 54/45/34 55/46/34 
f 54/45/34 56/47/35 55/46/34 
f 55/46/34 56/47/35 57/48/35 
f 56/47/35 58/49/36 57/48/35 
f 57/48/35 58/49/36 59/50/36 
f 58/49/36 60/51/37 59/50/36 
f 59/50/36 60/51/37 61/52/37 
f 60/51/37 62/53/38 61/52/37 
f 61/52/37 62/53/38 63/54/38 
f 62/53/38 64/55/39 63/54/38 
f 63/54/38 64/55/39 65/56/39 
f 64/55/39 66/57/40 65/56/39 
f 65/56/39 66/57/40 67/58/40 
f 66/57/40 68/59/41 67/58/40 
f 67/58/40 68/59/41 69/60/41 
f 68/59/41 70/61/42 69/60/41 
f 69/60/41 70/61/42 71/62/42 
f 70/61/42 72/63/43 71/62/42 
f 71/62/42 72/63/43 73/64/43 
f 72/63/43 74/65/44 73/64/43 
f 73/64/43 74/65/44 75/66/44 
f 74/65/44 76/67/45 75/66/44 
f 75/66/44 76/67/45 77/68/45 
f 76/67/45 78/69/46 77/68/45 
f 77/68/45 78/69/46 79/70/46 
f 78/69/46 80/71/47 79/70/46 
f 79/70/46 80/71/47 81/72/47 
f 80/71/47 82/73/48 81/72/47 
f 81/72/47 82/73/48 83/74/48 
f 82/73/48 84/75/49 83/74/48 
f 83/74/48 84/75/49 85/76/49 
f 84/75/49 86/77/50 85/76/49 
f 85/76/49 86/77/50 87/78/50 
f 86/77/50 88/79/51 87/78/50 
f 87/78/50 88/79/51 89/80/51 
f 88/79/51 12/81/11 89/80/51 
f 89/80/51 12/81/11 11/82/11 
f 10/1/10 11/2/11 12/3/11 
f 13/4/10 11/2/11 10/1/10 
f 14/5/12 13/4/10 10/1/10 
f 15/6/12 13/4/10 14/5/12 
f 16/7/13 15/6/12 14/5/12 
f 17/8/13 15/6/12 16/7/13 
f 18/9/14 17/8/13 16/7/13 
f 19/10/14 17/8/13 18/9/14 
f 20/11/15 19/10/14 18/9/14 
f 21/12/16 19/10/14 20/11/15 
f 22/13/17 21/12/16 20/11/15 
f 23/14/17 21/12/16 22/13/17 
f 24/15/18 23/14/17 22/13/17 
f 25/16/18 23/14/17 24/15/18 
f 26/17/19 25/16/18 24/15/18 
f 27/18/19 25/16/18 26/17/19 
f 28/19/20 27/18/19 26/17/19 
f 29/20/20 27/18/19 28/19/20 
f 30/21/21 29/20/20 28/19/20 
f 31/22/21 29/20/20 30/21/21 
f 32/23/22 31/22/21 30/21/21 
f 33/24/22 31/22/21 32/23/22 
f 34/25/23 33/24/22 32/23/22 
f 35/26/23 33/24/22 34/25/23 
f 36/27/24 35/26/23 34/25/23 
f 37/28/25 35/26/23 36/27/24 
f 37/28/25 36/27/24 38/29/26 
f 37/28/25 38/29/26 39/30/26 
f 38/29/26 40/31/27 39/30/26 
f 39/30/26 40/31/27 41/32/27 
f 40/31/27 42/33/28 41/32/27 
f 41/32/27 42/33/28 43/34/28 
f 42/33/28 44/35/29 43/34/28 
f 43/34/28 44/35/29 45/36/29 
f 44/35/29 46/37/30 45/36/29 
f 45/36/29 46/37/30 47/38/30 
f 46/37/30 48/39/31 47/38/30 
f 47/38/30 48/39/31 49/40/31 
f 48/39/31 50/41/32 49/40/31 
f 49/40/31 50/41/32 51/42/32 
f 50/41/32 52/43/33 51/42/32 
f 51/42/32 52/43/33 53/44/33 
f 52/43/33 54/45/34 53/44/33 
f 53/44/33 54/45/34 55/46/34 
f 54/45/34 56/47/35 55/46/34 
f 55/46/34 56/47/35 57/48/35 
f 56/47/35 58/49/36 57/48/35 
f 57/48/35 58/49/36 59/50/36 
f 58/49/36 60/51/37 59/50/36 
f 59/50/36 60/51/37 61/52/37 
f 60/51/37 62/53/38 61/52/37 
f 61/52/37 62/53/38 63/54/38 
f 62/53/38 64/55/39 63/54/38 
f 63/54/38 64/55/39 65/56/39 
f 64/55/39 66/57/40 65/56/39 
f 65/56/39 66/57/40 67/58/40 
f 66/57/40 68/59/41 67/58/40 
f 67/58/40 68/59/41 69/60/41 
f 68/59/41 70/61/42 69/60/41 
f 69/60/41 70/61/42 71/62/42 
f 70/61/42 72/63/43 71/62/42 
f 71/62/42 72/63/43 73/64/43 
f 72/63/43 74/65/44 73/64/43 
f 73/64/43 74/65/44 75/66/44 
f 74/65/44 76/67/45 75/66/44 
f 75/66/44 76/67/45 77/68/45 
f 76/67/45 78/69/46 77/68/45 
f 77/68/45 78/69/46 79/70/46 
f 78/69/46 80/71/47 79/70/46 
f 79/70/46 80/71/47 81/72/47 
f 80/71/47 82/73/48 81/72/47 
f 81/72/47 82/73/48 83/74/48 
f 82/73/48 84/75/49 83/74/48 
f 83/74/48 84/75/49 85/76/49 
f 84/75/49 86/77/50 85/76/49 
f 85/76/49 86/77/50 87/78/50 
f 86/77/50 88/79/51 87/78/50 
f 87/78/50 88/79/51 89/80/51 
f 88/79/51 12/81/11 89/80/51 
f 89/80/51 12/81/11 11/82/11 
f 90/83/52 91/84/52 36/85/53 
f 91/84/52 92/86/53 36/85/53 
f 93/83/54 94/84/54 95/85/55 
f 94/84/54 20/86/55 95/85/55 
f 92/83/56 96/84/26 36/85/24 
f 96/84/26 38/86/26 36/85/24 
f 97/83/14 95/84/57 18/85/14 
f 95/84/57 20/86/15 18/85/14 
f 90/83/52 91/84/52 36/85/53 
f 91/84/52 92/86/53 36/85/53 
f 93/83/54 94/84/54 95/85/55 
f 94/84/54 20/86/55 95/85/55 
f 92/83/56 96/84/26 36/85/24 
f 96/84/26 38/86/26 36/85/24 
f 97/83/14 95/84/57 18/85/14 
f 95/84/57 20/86/15 18/85/14 
f 38/29/26 96/87/26 98/88/27 
f 38/29/26 98/88/27 40/31/27 
f 98/88/27 99/89/28 40/31/27 
f 40/31/27 99/89/28 42/33/28 
f 99/89/28 100/90/29 42/33/28 
f 42/33/28 100/90/29 44/35/29 
f 100/90/29 101/91/30 44/35/29 
f 44/35/29 101/91/30 46/37/30 
f 101/91/30 102/92/31 46/37/30 
f 46/37/30 102/92/31 48/39/31 
f 102/92/31 103/93/32 48/39/31 
f 48/39/31 103/93/32 50/41/32 
f 103/93/32 104/94/33 50/41/32 
f 50/41/32 104/94/33 52/43/33 
f 104/94/33 105/95/34 52/43/33 
f 52/43/33 105/95/34 54/45/34 
f 105/95/34 106/96/35 54/45/34 
f 54/45/34 106/96/35 56/47/35 
f 106/96/35 107/97/36 56/47/35 
f 56/47/35 107/97/36 58/49/36 
f 107/97/36 108/98/37 58/49/36 
f 58/49/36 108/98/37 60/51/37 
f 108/98/37 109/99/38 60/51/37 
f 60/51/37 109/99/38 62/53/38 
f 109/99/38 110/100/39 62/53/38 
f 62/53/38 110/100/39 64/55/39 
f 110/100/39 111/101/40 64/55/39 
f 64/55/39 111/101/40 66/57/40 
f 111/101/40 112/102/41 66/57/40 
f 66/57/40 112/102/41 68/59/41 
f 112/102/41 113/103/42 68/59/41 
f 68/59/41 113/103/42 70/61/42 
f 113/103/42 114/104/43 70/61/42 
f 70/61/42 114/104/43 72/63/43 
f 114/104/43 115/105/44 72/63/43 
f 72/63/43 115/105/44 74/65/44 
f 115/105/44 116/106/45 74/65/44 
f 74/65/44 116/106/45 76/67/45 
f 116/106/45 117/107/46 76/67/45 
f 76/67/45 117/107/46 78/69/46 
f 117/107/46 118/108/47 78/69/46 
f 78/69/46 118/108/47 80/71/47 
f 118/108/47 119/109/48 80/71/47 
f 80/71/47 119/109/48 82/73/48 
f 119/109/48 120/110/49 82/73/48 
f 82/73/48 120/110/49 84/75/49 
f 120/110/49 121/111/50 84/75/49 
f 84/75/49 121/111/50 86/77/50 
f 121/111/50 122/112/51 86/77/50 
f 86/77/50 122/112/51 88/79/51 
f 122/112/51 123/113/11 88/79/51 
f 88/79/51 123/113/11 12/81/11 
f 12/3/11 123/114/11 124/115/10 
f 10/1/10 12/3/11 124/115/10 
f 10/1/10 124/115/10 125/116/12 
f 14/5/12 10/1/10 125/116/12 
f 14/5/12 125/116/12 126/117/13 
f 16/7/13 14/5/12 126/117/13 
f 16/7/13 126/117/13 97/118/14 
f 18/9/14 16/7/13 97/118/14 
f 38/29/26 96/87/26 98/88/27 
f 38/29/26 98/88/27 40/31/27 
f 98/88/27 99/89/28 40/31/27 
f 40/31/27 99/89/28 42/33/28 
f 99/89/28 100/90/29 42/33/28 
f 42/33/28 100/90/29 44/35/29 
f 100/90/29 101/91/30 44/35/29 
f 44/35/29 101/91/30 46/37/30 
f 101/91/30 102/92/31 46/37/30 
f 46/37/30 102/92/31 48/39/31 
f 102/92/31 103/93/32 48/39/31 
f 48/39/31 103/93/32 50/41/32 
f 103/93/32 104/94/33 50/41/32 
f 50/41/32 104/94/33 52/43/33 
f 104/94/33 105/95/34 52/43/33 
f 52/43/33 105/95/34 54/45/34 
f 105/95/34 106/96/35 54/45/34 
f 54/45/34 106/96/35 56/47/35 
f 106/96/35 107/97/36 56/47/35 
f 56/47/35 107/97/36 58/49/36 
f 107/97/36 108/98/37 58/49/36 
f 58/49/36 108/98/37 60/51/37 
f 108/98/37 109/99/38 60/51/37 
f 60/51/37 109/99/38 62/53/38 
f 109/99/38 110/100/39 62/53/38 
f 62/53/38 110/100/39 64/55/39 
f 110/100/39 111/101/40 64/55/39 
f 64/55/39 111/101/40 66/57/40 
f 111/101/40 112/102/41 66/57/40 
f 66/57/40 112/102/41 68/59/41 
f 112/102/41 113/103/42 68/59/41 
f 68/59/41 113/103/42 70/61/42 
f 113/103/42 114/104/43 70/61/42 
f 70/61/42 114/104/43 72/63/43 
f 114/104/43 115/105/44 72/63/43 
f 72/63/43 115/105/44 74/65/44 
f 115/105/44 116/106/45 74/65/44 
f 74/65/44 116/106/45 76/67/45 
f 116/106/45 117/107/46 76/67/45 
f 76/67/45 117/107/46 78/69/46 
f 117/107/46 118/108/47 78/69/46 
f 78/69/46 118/108/47 80/71/47 
f 118/108/47 119/109/48 80/71/47 
f 80/71/47 119/109/48 82/73/48 
f 119/109/48 120/110/49 82/73/48 
f 82/73/48 120/110/49 84/75/49 
f 120/110/49 121/111/50 84/75/49 
f 84/75/49 121/111/50 86/77/50 
f 121/111/50 122/112/51 86/77/50 
f 86/77/50 122/112/51 88/79/51 
f 122/112/51 123/113/11 88/79/51 
f 88/79/51 123/113/11 12/81/11 
f 12/3/11 123/114/11 124/115/10 
f 10/1/10 12/3/11 124/115/10 
f 10/1/10 124/115/10 125/116/12 
f 14/5/12 10/1/10 125/116/12 
f 14/5/12 125/116/12 126/117/13 
f 16/7/13 14/5/12 126/117/13 
f 16/7/13 126/117/13 97/118/14 
f 18/9/14 16/7/13 97/118/14 
# 0 polygons - 296 triangles

