# 3ds Max Wavefront OBJ Exporter v0.97b - (c)2007 guruware
# File Created: 23.11.2020 22:12:25

mtllib VisibleSwitchParts005.mtl

#
# object LakeWorldHomeVisibleSwitchParts005
#

v  0.0100 0.0015 0.0015
v  0.0100 -0.0015 0.0015
v  0.0100 -0.0015 -0.0015
v  0.0100 0.0015 -0.0015
v  0.0150 0.0150 -0.0150
v  0.0150 -0.0150 -0.0150
v  0.0150 0.0150 0.0150
v  0.0150 -0.0150 0.0150
v  0.0000 0.0000 -0.0000
# 9 vertices

vn 0.9820 -0.1337 -0.1337
vn 0.9820 0.1337 -0.1337
vn 0.9820 0.1337 0.1337
vn 0.9820 -0.1337 0.1337
vn 0.3126 0.6717 -0.6717
vn 0.3126 -0.6717 -0.6717
vn 0.3126 0.6717 0.6717
vn 0.3126 -0.6717 0.6717
vn -1.0000 0.0000 -0.0000
# 9 vertex normals

o LakeWorldHomeVisibleSwitchParts005
g LakeWorldHomeVisibleSwitchParts005
usemtl wire_255255000
s 1
f 1//1 2//2 3//3 4//4 
s 2
f 5//5 4//4 3//3 6//6 
s 4
f 7//7 1//1 4//4 5//5 
s 8
f 2//2 8//8 6//6 3//3 
s 16
f 1//1 7//7 8//8 2//2 
s 32
f 9//9 7//7 5//5 
s 64
f 9//9 5//5 6//6 
s 128
f 9//9 6//6 8//8 
s 256
f 9//9 8//8 7//7 
# 5 polygons - 4 triangles

#
# object pPlane272__WaveRock02
#

v  -300.0000 -152.8206 -301.8287
v  -300.0000 -133.5241 -599.9998
v  -117.0313 -119.6931 -600.0000
v  -117.0313 -137.3029 -286.7893
v  -300.0000 -172.1172 -3.6577
v  22.0176 -92.8343 -600.0000
v  -117.0313 -154.9128 26.4214
v  -300.0000 -148.8311 61.8406
v  22.0176 -110.4442 -266.2397
v  166.0205 -49.6209 -600.0000
v  -117.0313 -131.2417 91.9196
v  -300.0000 -137.6541 250.0000
v  22.0176 -128.0540 67.5205
v  166.0205 -67.2307 -257.4814
v  300.0088 -22.2466 -252.9528
v  300.0000 0.0000 -600.0000
v  166.0205 -84.8405 85.0372
v  300.0176 -44.4932 94.0945
v  22.0176 -104.3829 133.0187
v  166.0205 -61.1694 150.5354
v  300.0000 -13.4162 159.5928
v  -117.0313 -133.9214 312.1344
v  22.0176 -107.0626 332.6841
v  166.0205 -63.8492 341.4423
v  300.0000 -16.7081 345.9711
v  -117.0313 -136.6011 483.7655
v  22.0176 -109.7423 516.9561
v  166.0205 -66.5289 532.3492
v  300.0000 -20.0000 532.3492
v  166.0205 -49.6209 600.0000
v  300.0000 0.0000 600.0000
v  22.0176 -101.2883 583.4812
v  22.0176 -92.8343 600.0000
v  -117.0313 -119.6931 600.0000
v  -117.0313 -128.1471 543.7860
v  -293.3574 -133.5241 600.0000
v  -294.0273 -142.3949 508.1050
v  -400.0000 -137.6541 600.0000
v  -400.0000 -146.1082 497.6840
v  -294.6973 -151.2658 451.7323
v  -400.0000 -154.5622 441.1868
v  -400.0000 -137.6541 250.0000
# 42 vertices

vn 0.0884 -0.9942 -0.0610
vn 0.0550 -0.9984 -0.0122
vn 0.1252 -0.9921 -0.0000
vn 0.1373 -0.9888 -0.0580
vn 0.0244 -0.9995 -0.0176
vn 0.2407 -0.9706 -0.0000
vn 0.0237 -0.9996 -0.0175
vn 0.0031 -0.9762 0.2170
vn 0.2463 -0.9678 -0.0519
vn 0.3174 -0.9483 -0.0000
vn 0.0038 -0.9761 0.2173
vn 0.0031 -0.9921 0.1252
vn 0.0000 -0.9998 -0.0176
vn 0.3053 -0.9509 -0.0519
vn 0.3203 -0.9457 -0.0549
vn 0.1618 -0.9868 -0.0122
vn 0.0000 -0.9998 -0.0175
vn 0.0000 -0.9998 -0.0183
vn 0.0000 -0.9985 0.0549
vn 0.1237 -0.9923 -0.0031
vn 0.2425 -0.9701 -0.0122
vn 0.3097 -0.9508 -0.0122
vn 0.3326 -0.9429 -0.0153
vn 0.1336 -0.9907 0.0244
vn 0.2406 -0.9701 0.0305
vn 0.3113 -0.9491 0.0488
vn 0.0000 -0.9995 0.0305
vn 0.2931 -0.9528 -0.0794
vn 0.2045 -0.9776 -0.0488
vn 0.2193 -0.9572 0.1891
vn 0.2388 -0.9688 -0.0671
vn 0.1213 -0.9914 -0.0488
vn 0.0976 -0.9853 0.1403
vn 0.0641 -0.9970 -0.0428
vn 0.0458 -0.9915 0.1220
vn 0.0336 -0.9958 0.0855
vn 0.0275 -0.9932 0.1129
vn 0.0519 -0.9986 -0.0092
vn 0.0183 -0.9994 -0.0305
# 39 vertex normals

vt 23.4525 1.9486 0.0000
vt 23.4532 2.1251 0.0000
vt 23.3350 2.1459 0.0000
vt 23.3310 1.9513 0.0000
vt 23.4518 1.7721 0.0000
vt 23.2497 2.1419 0.0000
vt 23.3270 1.7529 0.0000
vt 23.4532 1.7373 0.0000
vt 23.2409 1.9405 0.0000
vt 23.1545 2.1184 0.0000
vt 23.3284 1.7211 0.0000
vt 23.4514 1.6269 0.0000
vt 23.2379 1.7312 0.0000
vt 23.1465 1.9355 0.0000
vt 23.0585 1.9192 0.0000
vt 23.0624 2.1109 0.0000
vt 23.1460 1.7214 0.0000
vt 23.0621 1.7240 0.0000
vt 23.2381 1.6991 0.0000
vt 23.1461 1.6889 0.0000
vt 23.0633 1.6882 0.0000
vt 23.3230 1.5922 0.0000
vt 23.2359 1.5791 0.0000
vt 23.1458 1.5730 0.0000
vt 23.0643 1.5731 0.0000
vt 23.3176 1.4889 0.0000
vt 23.2315 1.4712 0.0000
vt 23.1456 1.4606 0.0000
vt 23.0681 1.4560 0.0000
vt 23.1533 1.4279 0.0000
vt 23.0698 1.4194 0.0000
vt 23.2321 1.4388 0.0000
vt 23.2331 1.4305 0.0000
vt 23.3167 1.4305 0.0000
vt 23.3181 1.4589 0.0000
vt 23.4222 1.4305 0.0000
vt 23.4244 1.4733 0.0000
vt 23.4952 1.4323 0.0000
vt 23.4833 1.4682 0.0000
vt 23.4331 1.5089 0.0000
vt 23.4950 1.5038 0.0000
vt 23.5103 1.6296 0.0000
# 42 texture coords

o pPlane272__WaveRock02
g pPlane272__WaveRock02
usemtl WaveRock02
s 1
f 10/1/10 11/2/11 12/3/12 
f 13/4/13 10/1/10 12/3/12 
f 14/5/14 10/1/10 13/4/13 
f 13/4/13 12/3/12 15/6/15 
f 16/7/16 14/5/14 13/4/13 
f 17/8/17 14/5/14 16/7/16 
f 13/4/13 15/6/15 18/9/18 
f 16/7/16 13/4/13 18/9/18 
f 18/9/18 15/6/15 19/10/19 
f 20/11/20 17/8/17 16/7/16 
f 20/11/20 21/12/21 17/8/17 
f 16/7/16 18/9/18 22/13/22 
f 20/11/20 16/7/16 22/13/22 
f 18/9/18 19/10/19 23/14/23 
f 22/13/22 18/9/18 23/14/23 
f 24/15/24 19/10/19 25/16/25 
f 23/14/23 19/10/19 24/15/24 
f 26/17/26 23/14/23 24/15/24 
f 22/13/22 23/14/23 26/17/26 
f 26/17/26 24/15/24 27/18/26 
f 20/11/20 22/13/22 28/19/27 
f 28/19/27 22/13/22 26/17/26 
f 29/20/28 26/17/26 27/18/26 
f 28/19/27 26/17/26 29/20/28 
f 29/20/28 27/18/26 30/21/28 
f 31/22/29 20/11/20 28/19/27 
f 31/22/29 21/12/21 20/11/20 
f 32/23/30 28/19/27 29/20/28 
f 31/22/29 28/19/27 32/23/30 
f 29/20/28 30/21/28 33/24/31 
f 32/23/30 29/20/28 33/24/31 
f 33/24/31 30/21/28 34/25/32 
f 35/26/33 31/22/29 32/23/30 
f 35/26/33 21/12/21 31/22/29 
f 32/23/30 33/24/31 36/27/34 
f 35/26/33 32/23/30 36/27/34 
f 33/24/31 34/25/32 37/28/35 
f 36/27/34 33/24/31 37/28/35 
f 37/28/35 34/25/32 38/29/36 
f 39/30/37 38/29/36 40/31/38 
f 37/28/35 38/29/36 39/30/37 
f 41/32/39 37/28/35 39/30/37 
f 36/27/34 37/28/35 41/32/39 
f 41/32/39 39/30/37 42/33/40 
f 41/32/39 42/33/40 43/34/41 
f 44/35/42 36/27/34 41/32/39 
f 44/35/42 41/32/39 43/34/41 
f 35/26/33 36/27/34 44/35/42 
f 44/35/42 43/34/41 45/36/43 
f 46/37/44 44/35/42 45/36/43 
f 46/37/44 35/26/33 44/35/42 
f 46/37/44 45/36/43 47/38/45 
f 48/39/46 46/37/44 47/38/45 
f 49/40/47 35/26/33 46/37/44 
f 48/39/46 49/40/47 46/37/44 
f 49/40/47 21/12/21 35/26/33 
f 50/41/48 49/40/47 48/39/46 
f 50/41/48 21/12/21 49/40/47 
f 51/42/21 21/12/21 50/41/48 
# 0 polygons - 59 triangles

#
# object pPlane274__WaveRock01_vis
#

v  -400.0000 -40.2188 250.0000
v  -392.5098 -0.6445 274.3225
v  -400.0000 24.1232 250.0000
v  -400.0000 -58.6298 271.8750
v  -392.5098 -7.2479 292.5060
v  -400.0000 -137.6541 250.0000
v  -400.0000 -65.7831 286.5868
v  -400.0000 -63.5032 302.9344
v  -392.5098 -5.8675 310.0133
v  -400.0000 -64.9107 321.1815
v  -392.5098 -8.9223 330.3335
v  -392.5098 -19.7385 352.1400
v  -400.0000 -80.2532 341.3782
v  -392.5098 -38.2543 366.9636
v  -400.0000 -92.8533 351.9684
v  -392.5098 -43.0513 385.7744
v  -400.0000 -101.0426 381.4651
v  -400.0000 -154.5622 441.1868
v  -400.0000 -93.6760 410.6896
v  -392.5098 -40.8730 402.9683
v  -400.0000 -146.1082 497.6840
v  -400.0000 -85.6931 436.8337
v  -392.5098 -34.0616 428.1044
v  -392.5098 -32.2527 444.8875
v  -392.5098 -37.1779 464.7316
v  -400.0000 -94.4147 469.5625
v  -392.5098 -47.4897 482.5851
v  -400.0000 -102.2486 487.6353
v  -400.0000 -101.5841 503.9614
v  -392.5098 -45.4871 504.0126
v  -400.0000 -84.6076 530.3545
v  -392.5098 -34.3617 530.5580
v  -392.5098 -35.8681 555.9237
v  -400.0000 -84.7862 557.2792
v  -400.0000 -84.4631 570.7416
v  -392.5098 -30.2237 574.8357
v  -400.0000 -74.1187 588.8130
v  -400.0000 -137.6541 600.0000
v  -392.5098 -7.9817 600.0000
v  -400.0000 -60.9747 600.0000
# 40 vertices

vn -0.9854 0.0431 0.1647
vn -0.9830 0.0745 0.1679
vn -0.9764 0.0547 0.2090
vn -0.9969 0.0507 0.0610
vn -0.9917 0.1271 0.0183
vn -1.0000 0.0000 -0.0000
vn -0.9976 0.0686 0.0092
vn -0.9966 0.0823 -0.0000
vn -0.9916 0.1291 0.0031
vn -0.9966 0.0762 0.0305
vn -0.9917 0.1213 0.0427
vn -0.9900 0.1117 0.0856
vn -0.9968 0.0587 0.0549
vn -0.9906 0.1135 0.0762
vn -0.9997 0.0213 0.0091
vn -0.9917 0.1289 0.0031
vn -0.9998 0.0213 0.0030
vn -0.9987 0.0489 -0.0122
vn -0.9902 0.1352 -0.0336
vn -0.9959 0.0901 -0.0031
vn -0.9900 0.1371 -0.0336
vn -0.9906 0.1349 0.0244
vn -0.9899 0.1352 0.0428
vn -0.9953 0.0901 0.0366
vn -0.9899 0.1371 0.0367
vn -0.9956 0.0924 0.0122
vn -0.9958 0.0878 -0.0244
vn -0.9892 0.1370 -0.0519
vn -0.9941 0.1037 -0.0305
vn -0.9890 0.1450 -0.0305
vn -0.9891 0.1469 -0.0061
vn -0.9950 0.1000 -0.0061
vn -0.9930 0.1077 -0.0489
vn -0.9903 0.1353 -0.0306
vn -0.9993 0.0275 -0.0244
vn -0.9854 0.1348 -0.1037
vn -0.9854 0.1351 -0.1037
vn -0.9989 0.0294 -0.0367
# 38 vertex normals

vt -1.4209 6.3789 0.0000
vt -1.3955 6.3672 0.0000
vt -1.3809 6.3828 0.0000
vt -1.4316 6.3672 0.0000
vt -1.3994 6.3555 0.0000
vt -1.4824 6.3789 0.0000
vt -1.4365 6.3555 0.0000
vt -1.4346 6.3477 0.0000
vt -1.3975 6.3438 0.0000
vt -1.4346 6.3359 0.0000
vt -1.3984 6.3320 0.0000
vt -1.4043 6.3164 0.0000
vt -1.4434 6.3242 0.0000
vt -1.4150 6.3086 0.0000
vt -1.4512 6.3164 0.0000
vt -1.4180 6.2969 0.0000
vt -1.4551 6.2969 0.0000
vt -1.4863 6.2578 0.0000
vt -1.4492 6.2773 0.0000
vt -1.4150 6.2852 0.0000
vt -1.4805 6.2227 0.0000
vt -1.4443 6.2617 0.0000
vt -1.4102 6.2656 0.0000
vt -1.4082 6.2539 0.0000
vt -1.4111 6.2422 0.0000
vt -1.4492 6.2422 0.0000
vt -1.4170 6.2305 0.0000
vt -1.4531 6.2305 0.0000
vt -1.4531 6.2188 0.0000
vt -1.4160 6.2188 0.0000
vt -1.4434 6.1992 0.0000
vt -1.4111 6.1992 0.0000
vt -1.4131 6.1836 0.0000
vt -1.4443 6.1836 0.0000
vt -1.4453 6.1758 0.0000
vt -1.4102 6.1719 0.0000
vt -1.4404 6.1641 0.0000
vt -1.4824 6.1602 0.0000
vt -1.3975 6.1523 0.0000
vt -1.4326 6.1563 0.0000
# 40 texture coords

o pPlane274__WaveRock01_vis
g pPlane274__WaveRock01_vis
usemtl WaveRock01_vis
s 1
f 52/43/49 53/44/50 54/45/51 
f 55/46/52 53/44/50 52/43/49 
f 55/46/52 56/47/53 53/44/50 
f 57/48/54 55/46/52 52/43/49 
f 55/46/52 58/49/55 56/47/53 
f 57/48/54 58/49/55 55/46/52 
f 58/49/55 59/50/56 56/47/53 
f 57/48/54 59/50/56 58/49/55 
f 59/50/56 60/51/57 56/47/53 
f 59/50/56 61/52/58 60/51/57 
f 57/48/54 61/52/58 59/50/56 
f 61/52/58 62/53/59 60/51/57 
f 61/52/58 63/54/60 62/53/59 
f 64/55/61 63/54/60 61/52/58 
f 57/48/54 64/55/61 61/52/58 
f 65/56/62 63/54/60 64/55/61 
f 66/57/63 65/56/62 64/55/61 
f 66/57/63 64/55/61 57/48/54 
f 67/58/64 65/56/62 66/57/63 
f 68/59/65 66/57/63 57/48/54 
f 67/58/64 66/57/63 68/59/65 
f 69/60/54 68/59/65 57/48/54 
f 70/61/66 67/58/64 68/59/65 
f 70/61/66 68/59/65 69/60/54 
f 70/61/66 71/62/67 67/58/64 
f 72/63/54 70/61/66 69/60/54 
f 70/61/66 73/64/68 71/62/67 
f 72/63/54 73/64/68 70/61/66 
f 73/64/68 74/65/69 71/62/67 
f 73/64/68 75/66/70 74/65/69 
f 73/64/68 76/67/71 75/66/70 
f 77/68/72 76/67/71 73/64/68 
f 72/63/54 77/68/72 73/64/68 
f 78/69/73 76/67/71 77/68/72 
f 78/69/73 77/68/72 79/70/74 
f 72/63/54 79/70/74 77/68/72 
f 80/71/75 78/69/73 79/70/74 
f 80/71/75 79/70/74 72/63/54 
f 81/72/76 78/69/73 80/71/75 
f 82/73/77 81/72/76 80/71/75 
f 82/73/77 80/71/75 72/63/54 
f 83/74/78 81/72/76 82/73/77 
f 84/75/79 83/74/78 82/73/77 
f 84/75/79 82/73/77 85/76/80 
f 82/73/77 72/63/54 85/76/80 
f 84/75/79 85/76/80 86/77/81 
f 85/76/80 72/63/54 86/77/81 
f 87/78/82 84/75/79 86/77/81 
f 86/77/81 72/63/54 88/79/83 
f 86/77/81 88/79/83 87/78/84 
f 72/63/54 89/80/54 88/79/83 
f 88/79/83 90/81/85 87/78/84 
f 88/79/83 89/80/54 91/82/86 
f 88/79/83 91/82/86 90/81/85 
# 0 polygons - 54 triangles

