# 3ds Max Wavefront OBJ Exporter v0.97b - (c)2007 guruware
# File Created: 23.11.2020 22:10:36

mtllib VisiblePartsShadow003.mtl

#
# object LakeWorldHomeVisiblePartsShadow003
#

v  0.0100 0.0015 0.0015
v  0.0100 -0.0015 0.0015
v  0.0100 -0.0015 -0.0015
v  0.0100 0.0015 -0.0015
v  0.0150 0.0150 -0.0150
v  0.0150 -0.0150 -0.0150
v  0.0150 0.0150 0.0150
v  0.0150 -0.0150 0.0150
v  0.0000 0.0000 -0.0000
# 9 vertices

vn 0.9820 -0.1337 -0.1337
vn 0.9820 0.1337 -0.1337
vn 0.9820 0.1337 0.1337
vn 0.9820 -0.1337 0.1337
vn 0.3126 0.6717 -0.6717
vn 0.3126 -0.6717 -0.6717
vn 0.3126 0.6717 0.6717
vn 0.3126 -0.6717 0.6717
vn -1.0000 0.0000 -0.0000
# 9 vertex normals

o LakeWorldHomeVisiblePartsShadow003
g LakeWorldHomeVisiblePartsShadow003
usemtl wire_255255000
s 1
f 1//1 2//2 3//3 4//4 
s 2
f 5//5 4//4 3//3 6//6 
s 4
f 7//7 1//1 4//4 5//5 
s 8
f 2//2 8//8 6//6 3//3 
s 16
f 1//1 7//7 8//8 2//2 
s 32
f 9//9 7//7 5//5 
s 64
f 9//9 5//5 6//6 
s 128
f 9//9 6//6 8//8 
s 256
f 9//9 8//8 7//7 
# 5 polygons - 4 triangles

#
# object pCube164__Black00
#

v  -400.0000 -300.9994 -800.0001
v  399.9999 -300.9995 -800.0001
v  -400.0000 -1000.0000 -800.0001
v  399.9999 -1000.0000 -800.0001
v  -400.0000 -1000.0000 -100.0000
v  399.9999 -1000.0000 -100.0000
v  399.9999 -300.9995 -150.0000
v  -400.0000 -300.9994 -150.0000
v  399.9999 -300.9995 -100.0000
v  -400.0000 -300.9994 -100.0000
v  -400.0000 -1000.0000 -150.0000
v  399.9999 -1000.0000 -150.0000
# 12 vertices

vn 0.0000 0.0000 -1.0000
vn 0.0000 -1.0000 -0.0000
vn 0.0000 1.0000 -0.0000
vn -1.0000 0.0000 -0.0000
vn 1.0000 0.0000 -0.0000
# 5 vertex normals

vt 0.0000 0.0000 0.0000
# 1 texture coords

o pCube164__Black00
g pCube164__Black00
usemtl Black00
s 1
f 10/1/10 11/1/10 12/1/10 
f 11/1/10 13/1/10 12/1/10 
f 12/1/11 13/1/11 14/1/11 
f 13/1/11 15/1/11 14/1/11 
f 11/1/12 10/1/12 16/1/12 
f 10/1/12 17/1/12 16/1/12 
f 16/1/12 17/1/12 18/1/12 
f 17/1/12 19/1/12 18/1/12 
f 10/1/13 12/1/13 20/1/13 
f 17/1/13 10/1/13 20/1/13 
f 17/1/13 20/1/13 14/1/13 
f 19/1/13 17/1/13 14/1/13 
f 18/1/14 15/1/14 21/1/14 
f 16/1/14 18/1/14 21/1/14 
f 16/1/14 21/1/14 13/1/14 
f 11/1/14 16/1/14 13/1/14 
# 0 polygons - 16 triangles

