# 3ds Max Wavefront OBJ Exporter v0.97b - (c)2007 guruware
# File Created: 23.11.2020 22:14:27

mtllib Water002.mtl

#
# object LakeWorldHomeWater002
#

v  0.0100 0.0015 0.0015
v  0.0100 -0.0015 0.0015
v  0.0100 -0.0015 -0.0015
v  0.0100 0.0015 -0.0015
v  0.0150 0.0150 -0.0150
v  0.0150 -0.0150 -0.0150
v  0.0150 0.0150 0.0150
v  0.0150 -0.0150 0.0150
v  0.0000 0.0000 -0.0000
# 9 vertices

vn 0.9820 -0.1337 -0.1337
vn 0.9820 0.1337 -0.1337
vn 0.9820 0.1337 0.1337
vn 0.9820 -0.1337 0.1337
vn 0.3126 0.6717 -0.6717
vn 0.3126 -0.6717 -0.6717
vn 0.3126 0.6717 0.6717
vn 0.3126 -0.6717 0.6717
vn -1.0000 0.0000 -0.0000
# 9 vertex normals

o LakeWorldHomeWater002
g LakeWorldHomeWater002
usemtl wire_255255000
s 1
f 1//1 2//2 3//3 4//4 
s 2
f 5//5 4//4 3//3 6//6 
s 4
f 7//7 1//1 4//4 5//5 
s 8
f 2//2 8//8 6//6 3//3 
s 16
f 1//1 7//7 8//8 2//2 
s 32
f 9//9 7//7 5//5 
s 64
f 9//9 5//5 6//6 
s 128
f 9//9 6//6 8//8 
s 256
f 9//9 8//8 7//7 
# 5 polygons - 4 triangles

#
# object WaterPoleGlassModel1__Water00
#

v  300.0000 -300.0000 -2650.0000
v  -300.0000 -300.0000 -2650.0000
v  300.0000 300.0000 -2650.0000
v  -300.0000 300.0000 -2650.0000
v  -175.0289 -237.5696 -550.0970
v  -133.9272 -262.8471 -0.0000
v  -175.0289 -237.5696 -0.0000
v  -133.9272 -262.8471 -550.0970
v  -91.1600 -280.5619 -0.0000
v  -91.1600 -280.5619 -550.0970
v  -46.1481 -291.3682 -0.0000
v  -46.1481 -291.3682 -550.0970
v  0.0001 -295.0002 -0.0000
v  0.0001 -295.0002 -550.0970
v  46.1483 -291.3682 -0.0000
v  46.1483 -291.3682 -550.0970
v  91.1601 -280.5618 -0.0000
v  91.1601 -280.5618 -550.0970
v  133.9274 -262.8470 -0.0000
v  133.9274 -262.8470 -550.0970
v  175.0290 -237.5696 -0.0000
v  175.0290 -237.5696 -550.0970
# 22 vertices

vn 0.0000 0.0000 -1.0000
vn 0.0000 -1.0000 -0.0000
# 2 vertex normals

vt 0.7500 0.7500 0.0000
vt 0.0000 0.7500 0.0000
vt 0.7500 0.0000 0.0000
vt 0.0000 0.0000 0.0000
vt 0.6294 0.2915 0.0000
vt 0.5688 -0.1523 0.0000
vt 0.6294 -0.1523 0.0000
vt 0.5688 0.2915 0.0000
vt 0.5112 -0.1523 0.0000
vt 0.5112 0.2915 0.0000
vt 0.4534 -0.1523 0.0000
vt 0.4534 0.2915 0.0000
vt 0.3955 -0.1523 0.0000
vt 0.3955 0.2915 0.0000
vt 0.3376 -0.1523 0.0000
vt 0.3376 0.2915 0.0000
vt 0.2798 -0.1523 0.0000
vt 0.2798 0.2915 0.0000
vt 0.2219 -0.1523 0.0000
vt 0.2219 0.2915 0.0000
vt 0.1616 -0.1523 0.0000
vt 0.1616 0.2915 0.0000
# 22 texture coords

o WaterPoleGlassModel1__Water00
g WaterPoleGlassModel1__Water00
usemtl Water00
s 1
f 10/1/10 11/2/10 12/3/10 
f 11/2/10 13/4/10 12/3/10 
f 14/5/11 15/6/11 16/7/11 
f 14/5/11 17/8/11 15/6/11 
f 15/6/11 17/8/11 18/9/11 
f 17/8/11 19/10/11 18/9/11 
f 18/9/11 19/10/11 20/11/11 
f 19/10/11 21/12/11 20/11/11 
f 20/11/11 21/12/11 22/13/11 
f 21/12/11 23/14/11 22/13/11 
f 22/13/11 23/14/11 24/15/11 
f 23/14/11 25/16/11 24/15/11 
f 24/15/11 25/16/11 26/17/11 
f 25/16/11 27/18/11 26/17/11 
f 26/17/11 27/18/11 28/19/11 
f 27/18/11 29/20/11 28/19/11 
f 28/19/11 29/20/11 30/21/11 
f 29/20/11 31/22/11 30/21/11 
# 0 polygons - 18 triangles

