# Noesis .obj export.
#
mtllib egg.mtl
g
v  -4.968550 48.522598 0.000000
v  -4.968550 48.522598 0.000000
v  -14.179600 42.015400 0.000000
v  -10.026400 42.015400 -10.026500
v  -13.343400 31.393700 -13.343500
v  0.000046 31.393700 -18.870501
v  -13.350600 16.123400 -13.350700
v  4.968640 48.522598 0.000000
v  4.968640 48.522598 0.000000
v  14.179600 42.015400 0.000000
v  10.026500 42.015400 10.026500
v  13.343500 31.393700 13.343500
v  0.000046 31.393700 18.870501
v  13.350700 16.123400 13.350700
v  0.000046 0.190197 4.908120
v  0.000046 0.190197 4.908120
v  0.000046 6.134450 14.007000
v  9.904500 6.134450 9.904450
v  13.350700 16.123400 13.350700
v  18.880699 16.123400 0.000000
v  13.343500 31.393700 13.343500
v  0.000046 0.190197 -4.908120
v  0.000046 0.190197 -4.908120
v  0.000046 6.134450 -14.007000
v  -9.904410 6.134450 -9.904450
v  -13.350600 16.123400 -13.350700
v  -18.880699 16.123400 0.000000
v  -18.870501 31.393700 0.000000
v  -4.968550 48.522598 0.000000
v  0.000046 48.522598 -4.968590
v  -10.026400 42.015400 -10.026500
v  0.000046 42.015400 -14.179600
v  0.000046 31.393700 -18.870501
v  10.026500 42.015400 -10.026500
v  4.968640 48.522598 0.000000
v  14.179600 42.015400 0.000000
v  10.026500 42.015400 -10.026500
v  13.343500 31.393700 -13.343500
v  0.000046 31.393700 -18.870501
v  13.350700 16.123400 -13.350700
v  4.968640 48.522598 0.000000
v  0.000046 48.522598 4.968590
v  10.026500 42.015400 10.026500
v  0.000046 42.015400 14.179600
v  0.000046 31.393700 18.870501
v  -10.026400 42.015400 10.026500
v  -4.968550 48.522598 0.000000
v  -14.179600 42.015400 0.000000
v  -10.026400 42.015400 10.026500
v  -13.343400 31.393700 13.343500
v  0.000046 31.393700 18.870501
v  -13.350600 16.123400 13.350700
v  0.000046 0.190197 4.908120
v  0.000046 6.134450 14.007000
v  -9.904410 6.134450 9.904450
v  -13.350600 16.123400 13.350700
v  -18.880699 16.123400 0.000000
v  -18.870501 31.393700 0.000000
v  0.000046 0.190197 -4.908120
v  0.000046 6.134450 -14.007000
v  9.904500 6.134450 -9.904450
v  13.350700 16.123400 -13.350700
v  18.880699 16.123400 0.000000
v  13.343500 31.393700 -13.343500
v  0.000046 0.190197 4.908120
v  4.908160 0.190197 0.000000
v  9.904500 6.134450 9.904450
v  14.007100 6.134450 0.000000
v  18.880699 16.123400 0.000000
v  0.000046 0.190197 -4.908120
v  -4.908070 0.190197 0.000000
v  -9.904410 6.134450 -9.904450
v  -4.908070 0.190197 0.000000
v  -4.908070 0.190197 0.000000
v  -9.904410 6.134450 -9.904450
v  -14.007000 6.134450 0.000000
v  -18.880699 16.123400 0.000000
v  13.350700 16.123400 -13.350700
v  0.000046 6.134450 -14.007000
v  0.000046 16.123400 -18.880699
v  -13.350600 16.123400 -13.350700
v  0.000046 31.393700 -18.870501
v  -13.350600 16.123400 13.350700
v  0.000046 6.134450 14.007000
v  0.000046 16.123400 18.880699
v  13.350700 16.123400 13.350700
v  0.000046 31.393700 18.870501
v  -4.908070 0.190197 0.000000
v  -9.904410 6.134450 9.904450
v  -14.007000 6.134450 0.000000
v  -18.880699 16.123400 0.000000
v  4.908160 0.190197 0.000000
v  9.904500 6.134450 -9.904450
v  14.007100 6.134450 0.000000
v  18.880699 16.123400 0.000000
v  0.000046 0.190197 -4.908120
v  4.908160 0.190197 0.000000
v  -4.908070 0.190197 0.000000
v  0.000046 0.190197 4.908120
v  18.880699 16.123400 0.000000
v  13.343500 31.393700 -13.343500
v  18.870600 31.393700 0.000000
v  14.179600 42.015400 0.000000
v  -13.350600 16.123400 -13.350700
v  -18.870501 31.393700 0.000000
v  -13.343400 31.393700 -13.343500
v  -14.179600 42.015400 0.000000
v  -13.350600 16.123400 13.350700
v  -13.343400 31.393700 13.343500
v  -18.870501 31.393700 0.000000
v  -14.179600 42.015400 0.000000
v  18.880699 16.123400 0.000000
v  18.870600 31.393700 0.000000
v  13.343500 31.393700 13.343500
v  14.179600 42.015400 0.000000
v  4.968640 48.522598 0.000000
v  0.000046 48.522598 -4.968590
v  -4.968550 48.522598 0.000000
v  -10.026400 42.015400 10.026500
v  0.000046 42.015400 14.179600
v  0.000046 48.522598 4.968590
v  10.026500 42.015400 -10.026500
v  0.000046 42.015400 -14.179600
v  0.000046 48.522598 -4.968590
v  10.026500 42.015400 -10.026500
v  0.000046 48.522598 -4.968590
v  4.968640 48.522598 0.000000
v  -10.026400 42.015400 10.026500
v  0.000046 48.522598 4.968590
v  -4.968550 48.522598 0.000000
v  -9.904410 6.134450 9.904450
v  -4.908070 0.190197 0.000000
v  0.000046 0.190197 4.908120
v  9.904500 6.134450 -9.904450
v  4.908160 0.190197 0.000000
v  0.000046 0.190197 -4.908120
v  -4.968550 48.522598 0.000000
v  0.000046 48.522598 4.968590
v  4.968640 48.522598 0.000000
v  0.000046 31.393700 -18.870501
v  13.350700 16.123400 -13.350700
v  0.000046 16.123400 -18.880699
v  0.000046 31.393700 18.870501
v  -13.350600 16.123400 13.350700
v  0.000046 16.123400 18.880699

vt  0.882813 -0.054687 0.000000
vt  0.882813 -0.054687 0.000000
vt  0.998019 -0.195312 0.000000
vt  0.757813 -0.195312 0.000000
vt  0.757813 -0.398437 0.000000
vt  0.507813 -0.398437 0.000000
vt  0.757813 -0.601562 0.000000
vt  0.882813 -0.054687 0.000000
vt  0.882813 -0.054687 0.000000
vt  0.998019 -0.195312 0.000000
vt  0.757813 -0.195312 0.000000
vt  0.757813 -0.382812 0.000000
vt  0.507813 -0.382812 0.000000
vt  0.757813 -0.601562 0.000000
vt  0.632813 -0.929687 0.000000
vt  0.632813 -0.929687 0.000000
vt  0.507813 -0.789062 0.000000
vt  0.757813 -0.789062 0.000000
vt  0.757813 -0.601562 0.000000
vt  0.998019 -0.601562 0.000000
vt  0.757813 -0.382812 0.000000
vt  0.632813 -0.929687 0.000000
vt  0.632813 -0.929687 0.000000
vt  0.507813 -0.789062 0.000000
vt  0.757813 -0.789062 0.000000
vt  0.757813 -0.601562 0.000000
vt  0.998019 -0.601562 0.000000
vt  0.998019 -0.398437 0.000000
vt  0.882813 -0.054687 0.000000
vt  0.632813 -0.054687 0.000000
vt  0.757813 -0.195312 0.000000
vt  0.507813 -0.195312 0.000000
vt  0.507813 -0.398437 0.000000
vt  0.257813 -0.195312 0.000000
vt  0.132813 -0.054687 0.000000
vt  -0.000933 -0.195312 0.000000
vt  0.257813 -0.195312 0.000000
vt  0.257813 -0.398437 0.000000
vt  0.507813 -0.398437 0.000000
vt  0.257813 -0.601562 0.000000
vt  0.882813 -0.054687 0.000000
vt  0.632813 -0.054687 0.000000
vt  0.757813 -0.195312 0.000000
vt  0.507813 -0.195312 0.000000
vt  0.507813 -0.382812 0.000000
vt  0.257813 -0.195312 0.000000
vt  0.132813 -0.054687 0.000000
vt  -0.000933 -0.195312 0.000000
vt  0.257813 -0.195312 0.000000
vt  0.257813 -0.382812 0.000000
vt  0.507813 -0.382812 0.000000
vt  0.257813 -0.601562 0.000000
vt  0.382813 -0.929687 0.000000
vt  0.507813 -0.789062 0.000000
vt  0.257813 -0.789062 0.000000
vt  0.257813 -0.601562 0.000000
vt  -0.000933 -0.601562 0.000000
vt  -0.000933 -0.382812 0.000000
vt  0.382813 -0.929687 0.000000
vt  0.507813 -0.789062 0.000000
vt  0.257813 -0.789062 0.000000
vt  0.257813 -0.601562 0.000000
vt  -0.000933 -0.601562 0.000000
vt  0.257813 -0.398437 0.000000
vt  0.632813 -0.929687 0.000000
vt  0.882813 -0.929687 0.000000
vt  0.757813 -0.789062 0.000000
vt  0.998019 -0.789062 0.000000
vt  0.998019 -0.601562 0.000000
vt  0.632813 -0.929687 0.000000
vt  0.882813 -0.929687 0.000000
vt  0.757813 -0.789062 0.000000
vt  0.882813 -0.929687 0.000000
vt  0.882813 -0.929687 0.000000
vt  0.757813 -0.789062 0.000000
vt  0.998019 -0.789062 0.000000
vt  0.998019 -0.601562 0.000000
vt  0.257813 -0.601562 0.000000
vt  0.507813 -0.789062 0.000000
vt  0.507813 -0.601562 0.000000
vt  0.757813 -0.601562 0.000000
vt  0.507813 -0.398437 0.000000
vt  0.257813 -0.601562 0.000000
vt  0.507813 -0.789062 0.000000
vt  0.507813 -0.601562 0.000000
vt  0.757813 -0.601562 0.000000
vt  0.507813 -0.382812 0.000000
vt  0.132813 -0.929687 0.000000
vt  0.257813 -0.789062 0.000000
vt  -0.000933 -0.789062 0.000000
vt  -0.000933 -0.601562 0.000000
vt  0.132813 -0.929687 0.000000
vt  0.257813 -0.789062 0.000000
vt  -0.000933 -0.789062 0.000000
vt  -0.000933 -0.601562 0.000000
vt  0.507813 -0.851562 0.000000
vt  0.382813 -0.992187 0.000000
vt  0.632813 -0.992187 0.000000
vt  0.507813 -0.851562 0.000000
vt  -0.000933 -0.601562 0.000000
vt  0.257813 -0.398437 0.000000
vt  -0.000933 -0.398437 0.000000
vt  -0.000933 -0.195312 0.000000
vt  0.757813 -0.601562 0.000000
vt  0.998019 -0.398437 0.000000
vt  0.757813 -0.398437 0.000000
vt  0.998019 -0.195312 0.000000
vt  0.257813 -0.601562 0.000000
vt  0.257813 -0.382812 0.000000
vt  -0.000933 -0.382812 0.000000
vt  -0.000933 -0.195312 0.000000
vt  0.998019 -0.601562 0.000000
vt  0.998019 -0.382812 0.000000
vt  0.757813 -0.382812 0.000000
vt  0.998019 -0.195312 0.000000
vt  0.382813 -0.007812 0.000000
vt  0.507813 -0.148437 0.000000
vt  0.632813 -0.007812 0.000000
vt  0.257813 -0.195312 0.000000
vt  0.507813 -0.195312 0.000000
vt  0.382813 -0.054687 0.000000
vt  0.257813 -0.195312 0.000000
vt  0.507813 -0.195312 0.000000
vt  0.382813 -0.054687 0.000000
vt  0.257813 -0.195312 0.000000
vt  0.382813 -0.054687 0.000000
vt  0.132813 -0.054687 0.000000
vt  0.257813 -0.195312 0.000000
vt  0.382813 -0.054687 0.000000
vt  0.132813 -0.054687 0.000000
vt  0.257813 -0.789062 0.000000
vt  0.132813 -0.929687 0.000000
vt  0.382813 -0.929687 0.000000
vt  0.257813 -0.789062 0.000000
vt  0.132813 -0.929687 0.000000
vt  0.382813 -0.929687 0.000000
vt  0.382813 -0.007812 0.000000
vt  0.507813 -0.148437 0.000000
vt  0.632813 -0.007812 0.000000
vt  0.507813 -0.398437 0.000000
vt  0.257813 -0.601562 0.000000
vt  0.507813 -0.601562 0.000000
vt  0.507813 -0.382812 0.000000
vt  0.257813 -0.601562 0.000000
vt  0.507813 -0.601562 0.000000

vn  -0.331187 0.943565 0.000000
vn  -0.331187 0.943565 0.000000
vn  -0.770449 0.637502 0.000000
vn  -0.511761 0.690071 -0.511764
vn  -0.691637 0.208015 -0.691641
vn  0.000000 0.208016 -0.978125
vn  -0.688760 -0.226304 -0.688764
vn  0.331189 0.943564 0.000000
vn  0.331189 0.943564 0.000000
vn  0.770450 0.637501 0.000000
vn  0.511762 0.690073 0.511761
vn  0.691638 0.208016 0.691640
vn  0.000000 0.208016 0.978125
vn  0.688762 -0.226304 0.688762
vn  0.000000 -0.927615 0.373537
vn  0.000000 -0.927615 0.373537
vn  0.000000 -0.665762 0.746164
vn  0.493633 -0.715998 0.493633
vn  0.688762 -0.226304 0.688762
vn  0.974057 -0.226304 0.000000
vn  0.691638 0.208016 0.691640
vn  0.000000 -0.927615 -0.373537
vn  0.000000 -0.927615 -0.373537
vn  0.000000 -0.665762 -0.746164
vn  -0.493632 -0.715999 -0.493633
vn  -0.688760 -0.226304 -0.688764
vn  -0.974057 -0.226304 0.000000
vn  -0.978125 0.208016 0.000000
vn  -0.331187 0.943565 0.000000
vn  0.000000 0.917768 -0.397117
vn  -0.511761 0.690071 -0.511764
vn  0.000000 0.637500 -0.770450
vn  0.000000 0.208016 -0.978125
vn  0.511763 0.690071 -0.511762
vn  0.331189 0.943564 0.000000
vn  0.770450 0.637501 0.000000
vn  0.511763 0.690071 -0.511762
vn  0.691638 0.208016 -0.691640
vn  0.000000 0.208016 -0.978125
vn  0.688761 -0.226304 -0.688763
vn  0.331189 0.943564 0.000000
vn  0.000000 0.917768 0.397117
vn  0.511762 0.690073 0.511761
vn  0.000000 0.637500 0.770450
vn  0.000000 0.208016 0.978125
vn  -0.511761 0.690071 0.511764
vn  -0.331187 0.943565 0.000000
vn  -0.770449 0.637502 0.000000
vn  -0.511761 0.690071 0.511764
vn  -0.691637 0.208016 0.691641
vn  0.000000 0.208016 0.978125
vn  -0.688760 -0.226304 0.688764
vn  0.000000 -0.927615 0.373537
vn  0.000000 -0.665762 0.746164
vn  -0.493632 -0.715998 0.493634
vn  -0.688760 -0.226304 0.688764
vn  -0.974057 -0.226304 0.000000
vn  -0.978125 0.208016 0.000000
vn  0.000000 -0.927615 -0.373537
vn  0.000000 -0.665762 -0.746164
vn  0.493632 -0.715999 -0.493633
vn  0.688761 -0.226304 -0.688763
vn  0.974057 -0.226304 0.000000
vn  0.691638 0.208016 -0.691640
vn  0.000000 -0.927615 0.373537
vn  0.311461 -0.950259 0.000000
vn  0.493633 -0.715998 0.493633
vn  0.746165 -0.665761 0.000000
vn  0.974057 -0.226304 0.000000
vn  0.000000 -0.927615 -0.373537
vn  -0.311461 -0.950259 0.000000
vn  -0.493632 -0.715999 -0.493633
vn  -0.311461 -0.950259 0.000000
vn  -0.311461 -0.950259 0.000000
vn  -0.493632 -0.715999 -0.493633
vn  -0.746163 -0.665763 0.000000
vn  -0.974057 -0.226304 0.000000
vn  0.688761 -0.226304 -0.688763
vn  0.000000 -0.665762 -0.746164
vn  0.000000 -0.226304 -0.974057
vn  -0.688760 -0.226304 -0.688764
vn  0.000000 0.208016 -0.978125
vn  -0.688760 -0.226304 0.688764
vn  0.000000 -0.665762 0.746164
vn  0.000000 -0.226305 0.974057
vn  0.688762 -0.226304 0.688762
vn  0.000000 0.208016 0.978125
vn  -0.311461 -0.950259 0.000000
vn  -0.493632 -0.715998 0.493634
vn  -0.746163 -0.665763 0.000000
vn  -0.974057 -0.226304 0.000000
vn  0.311461 -0.950259 0.000000
vn  0.493632 -0.715999 -0.493633
vn  0.746165 -0.665761 0.000000
vn  0.974057 -0.226304 0.000000
vn  0.000000 -0.927615 -0.373537
vn  0.311461 -0.950259 0.000000
vn  -0.311461 -0.950259 0.000000
vn  0.000000 -0.927615 0.373537
vn  0.974057 -0.226304 0.000000
vn  0.691638 0.208016 -0.691640
vn  0.978125 0.208016 0.000000
vn  0.770450 0.637501 0.000000
vn  -0.688760 -0.226304 -0.688764
vn  -0.978125 0.208016 0.000000
vn  -0.691637 0.208015 -0.691641
vn  -0.770449 0.637502 0.000000
vn  -0.688760 -0.226304 0.688764
vn  -0.691637 0.208016 0.691641
vn  -0.978125 0.208016 0.000000
vn  -0.770449 0.637502 0.000000
vn  0.974057 -0.226304 0.000000
vn  0.978125 0.208016 0.000000
vn  0.691638 0.208016 0.691640
vn  0.770450 0.637501 0.000000
vn  0.331189 0.943564 0.000000
vn  0.000000 0.917768 -0.397117
vn  -0.331187 0.943565 0.000000
vn  -0.511761 0.690071 0.511764
vn  0.000000 0.637500 0.770450
vn  0.000000 0.917768 0.397117
vn  0.511763 0.690071 -0.511762
vn  0.000000 0.637500 -0.770450
vn  0.000000 0.917768 -0.397117
vn  0.511763 0.690071 -0.511762
vn  0.000000 0.917768 -0.397117
vn  0.331189 0.943564 0.000000
vn  -0.511761 0.690071 0.511764
vn  0.000000 0.917768 0.397117
vn  -0.331187 0.943565 0.000000
vn  -0.493632 -0.715998 0.493634
vn  -0.311461 -0.950259 0.000000
vn  0.000000 -0.927615 0.373537
vn  0.493632 -0.715999 -0.493633
vn  0.311461 -0.950259 0.000000
vn  0.000000 -0.927615 -0.373537
vn  -0.331187 0.943565 0.000000
vn  0.000000 0.917768 0.397117
vn  0.331189 0.943564 0.000000
vn  0.000000 0.208016 -0.978125
vn  0.688761 -0.226304 -0.688763
vn  0.000000 -0.226304 -0.974057
vn  0.000000 0.208016 0.978125
vn  -0.688760 -0.226304 0.688764
vn  0.000000 -0.226305 0.974057

g rdmobj00
usemtl material000
f  1/1/1 2/2/2 3/3/3
f  4/4/4 3/3/3 2/2/2
f  3/3/3 4/4/4 5/5/5
f  6/6/6 5/5/5 4/4/4
f  5/5/5 6/6/6 7/7/7
f  8/8/8 9/9/9 10/10/10
f  11/11/11 10/10/10 9/9/9
f  10/10/10 11/11/11 12/12/12
f  13/13/13 12/12/12 11/11/11
f  12/12/12 13/13/13 14/14/14
f  15/15/15 16/16/16 17/17/17
f  18/18/18 17/17/17 16/16/16
f  17/17/17 18/18/18 19/19/19
f  20/20/20 19/19/19 18/18/18
f  19/19/19 20/20/20 21/21/21
f  22/22/22 23/23/23 24/24/24
f  25/25/25 24/24/24 23/23/23
f  24/24/24 25/25/25 26/26/26
f  27/27/27 26/26/26 25/25/25
f  26/26/26 27/27/27 28/28/28
f  29/29/29 30/30/30 31/31/31
f  32/32/32 31/31/31 30/30/30
f  31/31/31 32/32/32 33/33/33
f  34/34/34 33/33/33 32/32/32
f  35/35/35 36/36/36 37/37/37
f  38/38/38 37/37/37 36/36/36
f  37/37/37 38/38/38 39/39/39
f  40/40/40 39/39/39 38/38/38
f  41/41/41 42/42/42 43/43/43
f  44/44/44 43/43/43 42/42/42
f  43/43/43 44/44/44 45/45/45
f  46/46/46 45/45/45 44/44/44
f  47/47/47 48/48/48 49/49/49
f  50/50/50 49/49/49 48/48/48
f  49/49/49 50/50/50 51/51/51
f  52/52/52 51/51/51 50/50/50
f  53/53/53 54/54/54 55/55/55
f  56/56/56 55/55/55 54/54/54
f  55/55/55 56/56/56 57/57/57
f  58/58/58 57/57/57 56/56/56
f  59/59/59 60/60/60 61/61/61
f  62/62/62 61/61/61 60/60/60
f  61/61/61 62/62/62 63/63/63
f  64/64/64 63/63/63 62/62/62
f  65/65/65 66/66/66 67/67/67
f  68/68/68 67/67/67 66/66/66
f  67/67/67 68/68/68 69/69/69
f  70/70/70 71/71/71 72/72/72
f  73/73/73 74/74/74 75/75/75
f  76/76/76 75/75/75 74/74/74
f  75/75/75 76/76/76 77/77/77
f  78/78/78 79/79/79 80/80/80
f  81/81/81 80/80/80 79/79/79
f  80/80/80 81/81/81 82/82/82
f  83/83/83 84/84/84 85/85/85
f  86/86/86 85/85/85 84/84/84
f  85/85/85 86/86/86 87/87/87
f  88/88/88 89/89/89 90/90/90
f  91/91/91 90/90/90 89/89/89
f  92/92/92 93/93/93 94/94/94
f  95/95/95 94/94/94 93/93/93
f  96/96/96 97/97/97 98/98/98
f  99/99/99 98/98/98 97/97/97
f  100/100/100 101/101/101 102/102/102
f  103/103/103 102/102/102 101/101/101
f  104/104/104 105/105/105 106/106/106
f  107/107/107 106/106/106 105/105/105
f  108/108/108 109/109/109 110/110/110
f  111/111/111 110/110/110 109/109/109
f  112/112/112 113/113/113 114/114/114
f  115/115/115 114/114/114 113/113/113
f  116/116/116 117/117/117 118/118/118
f  119/119/119 120/120/120 121/121/121
f  122/122/122 123/123/123 124/124/124
f  125/125/125 126/126/126 127/127/127
f  128/128/128 129/129/129 130/130/130
f  131/131/131 132/132/132 133/133/133
f  134/134/134 135/135/135 136/136/136
f  137/137/137 138/138/138 139/139/139
f  140/140/140 141/141/141 142/142/142
f  143/143/143 144/144/144 145/145/145

g
